<svg id="Layer_1" data-name="Layer 1" xmlns="http://www.w3.org/2000/svg" viewBox="0 0 255.58 287.25"><defs><style>.cls-1{fill:#5c8dbc;}.cls-2{fill:#1a4674;}.cls-3{fill:#1b598e;}.cls-4{fill:#fff;}</style></defs><title>c</title><path class="cls-1" d="M271.57,84.72A25.42,25.42,0,0,0,268.45,72a24.52,24.52,0,0,0-9.25-9q-51-29.43-102.1-58.82C147.93-1.16,139-1,129.94,4.4c-13.55,8-81.35,46.84-101.55,58.54C20.06,67.76,16,75.13,16,84.71q0,59.19,0,118.37a25.38,25.38,0,0,0,3,12.51,24.34,24.34,0,0,0,9.38,9.26c20.21,11.7,88,50.54,101.56,58.53,9.11,5.38,18,5.57,27.17.27q51-29.46,102.11-58.81a24.37,24.37,0,0,0,9.39-9.26,25.49,25.49,0,0,0,3-12.51s0-78.89,0-118.35" transform="translate(-16 -0.27)"/><path class="cls-2" d="M144.18,143.51,19,215.59a24.34,24.34,0,0,0,9.38,9.26c20.21,11.7,88,50.54,101.56,58.53,9.11,5.38,18,5.57,27.17.27q51-29.46,102.11-58.81a24.37,24.37,0,0,0,9.39-9.26L144.18,143.51" transform="translate(-16 -0.27)"/><path class="cls-2" d="M107.1,164.86a42.25,42.25,0,0,0,73.52-.24l-36.44-21.11L107.1,164.86" transform="translate(-16 -0.27)"/><path class="cls-3" d="M271.57,84.72A25.42,25.42,0,0,0,268.45,72L144.18,143.51,268.6,215.58a25.49,25.49,0,0,0,3-12.51s0-78.89,0-118.35" transform="translate(-16 -0.27)"/><path class="cls-4" d="M180.62,164.62a42.27,42.27,0,1,1-.28-41.93l36.95-21.27a84.87,84.87,0,1,0,.22,84.57l-36.89-21.37" transform="translate(-16 -0.27)"/></svg>