<svg id="Layer_1" data-name="Layer 1" xmlns="http://www.w3.org/2000/svg" xmlns:xlink="http://www.w3.org/1999/xlink" viewBox="0 0 400 400"><defs><style>.cls-1{fill:url(#linear-gradient);}.cls-2{fill:#fff;}.cls-3{fill:url(#linear-gradient-2);}.cls-4{fill:url(#linear-gradient-3);}.cls-5{fill:url(#linear-gradient-4);}.cls-6{fill:url(#linear-gradient-5);}.cls-7{fill:url(#linear-gradient-6);}.cls-8{fill:url(#linear-gradient-7);}.cls-9{fill:url(#linear-gradient-8);}</style><linearGradient id="linear-gradient" x1="29.17" y1="203.07" x2="368.31" y2="203.07" gradientUnits="userSpaceOnUse"><stop offset="0" stop-color="#cf86b9"/><stop offset="0.99" stop-color="#4787c7"/></linearGradient><linearGradient id="linear-gradient-2" x1="35.17" y1="216.01" x2="362.32" y2="216.01" xlink:href="#linear-gradient"/><linearGradient id="linear-gradient-3" x1="311.07" y1="110.31" x2="350.14" y2="110.31" xlink:href="#linear-gradient"/><linearGradient id="linear-gradient-4" x1="305.66" y1="115.58" x2="338.66" y2="115.58" xlink:href="#linear-gradient"/><linearGradient id="linear-gradient-5" x1="124.83" y1="241.68" x2="288.17" y2="241.68" xlink:href="#linear-gradient"/><linearGradient id="linear-gradient-6" x1="196.51" y1="167.06" x2="241.01" y2="167.06" xlink:href="#linear-gradient"/><linearGradient id="linear-gradient-7" x1="142.54" y1="248.5" x2="187.31" y2="248.5" xlink:href="#linear-gradient"/><linearGradient id="linear-gradient-8" x1="65.87" y1="64.12" x2="110.61" y2="64.12" xlink:href="#linear-gradient"/></defs><title>icon</title><path class="cls-1" d="M367.72,109.36c.67,13.44-3.93,25.56-10.54,37a6.42,6.42,0,0,0-.52,6.19,166.86,166.86,0,0,1,10.93,77.24C361,304,305.07,365.86,231.48,380.34c-6,1.17-12.07,1.61-18.1,2.43a22.46,22.46,0,0,0-2.66.66H186.78c-6.11-.91-12.23-1.72-18.32-2.77a161.67,161.67,0,0,1-71.18-30.94c-31.61-24-52.81-55.13-62.76-93.68a169.2,169.2,0,0,1-1.14-79.75c.83-3.72,3.38-5.75,6.34-5.19a6,6,0,0,1,1.55.51,163.59,163.59,0,1,0,304.59-27.18c5.57-8.71,9.64-18.15,11.12-28.94,2.48-18.06-11.12-34.29-29-34.34A28.8,28.8,0,0,0,305.2,91.81a163.67,163.67,0,0,0-189.27-16.9,62.26,62.26,0,0,0,1.52-8.46c1.84-17.11-12-33-29.22-33.28-2.52.45-5.11.71-7.57,1.38C65,38.77,56.33,53.66,59.58,70.76,62.2,84.57,68.75,96.1,77.2,106.54A163.53,163.53,0,0,0,45,160.05a4.45,4.45,0,0,1-3-1.2c-1.16-1.58-1.84-4.58-1.11-6.29a247.6,247.6,0,0,1,11.19-23.42c3.87-6.94,8.6-13.4,13-20.2-2.64-4.42-5.59-9-8.23-13.84a71.92,71.92,0,0,1-8.65-28.71C46.36,44.94,62.05,25.72,83.69,23c20.85-2.61,40.69,12.64,44,33.78.12.79.33,1.57.58,2.7,1.07-.36,2-.62,2.94-1a169.21,169.21,0,0,1,167.2,18.45c2.78,2,4.44,2.23,7.48.25,12.92-8.41,26.66-9.35,40.34-2.15S367,94,367.72,109.36Z"/><path class="cls-2" d="M358.11,202.7c-.82,12.22-.83,24.36-2.6,36.25-4.09,27.42-14.81,52.32-32.52,73.69-38,45.9-87.05,65.83-146.22,58.49-37.38-4.64-69-21.79-94.59-49.5s-39.63-60.75-42-98.56a161.66,161.66,0,0,1,3.59-44.73c.71-3.21-.31-5.64-2.55-6.73,1.09-3.91,2.34-7.77,3.72-11.56a5.74,5.74,0,0,0,2.34-.23c1.55-.6,2.88-2.65,3.59-4.37A166.52,166.52,0,0,1,69.07,122.2c.76-1.06,1.59-2.07,2.93-3.8,0,9.8.12,18.59,0,27.37-.11,6,2,10.57,7.3,13.4s10.38,1.76,15.16-1.62c5.65-4,11.38-7.89,17-11.86a31.86,31.86,0,0,1,19.09-6.05c7.63.09,15.26,0,22.89,0a35.89,35.89,0,0,0,26.28-10.75c7.8-7.8,15.65-15.54,23.39-23.41,8.67-8.83,9-21.11.95-30.48-3.52-4.1-7.27-8-10.57-12.27-1.51-1.94-2.17-4.52-3.49-7.44C229.51,53.87,264,64.57,295,87.5c-8.51,12.76-8.41,26.21-4.65,40.09a38,38,0,0,1,.79,7.18c.41,5.6.07,11.34,1.21,16.78,3.08,14.7,9.92,28,17.14,41,6.7,12,21.15,17.61,34.58,14.83C348.52,206.42,352.79,204.49,358.11,202.7Zm-74.42,53.18a26.08,26.08,0,0,0,3.82-20.48c-1.81-8.26-7.13-13.68-13.85-18.25-8.22-5.57-16.24-11.45-24.43-17.25l1.82-3.7c4.81-9.93,7.93-20.25,7.59-31.43a40.66,40.66,0,0,0-27.29-37A39.1,39.1,0,0,0,188,140.43c-3.87,5-6.34,11-9.75,17.07-13.76.14-24.61,6.92-32.49,19.2-4.5,7-9.61,13.61-14.39,20.41-7,10-8.45,20.59-3.89,32a5.28,5.28,0,0,1,.1,3.57c-3.17,8.27-3.28,16.71-1.64,25.26,3.15,16.5,11.63,30.22,22.17,42.92a9.82,9.82,0,0,1,2.12,5.87c0,9.27-.47,18.53-.73,27.8s3.72,16.21,11.75,20.45,16.1,3.36,23.57-1.82q23.85-16.53,47.66-33.11a78.69,78.69,0,0,0,19.24-18.9q7.15-10,14.23-20.1c2.52-3.59,2.23-6.67-.66-8.58s-5.56-1-8,2.42c-4.23,5.92-8.45,11.83-12.59,17.81a75.51,75.51,0,0,1-19.86,19.71c-9.68,6.61-19.26,13.39-28.89,20.07-6,4.14-11.86,8.42-18,12.36-7.6,4.88-17.44.36-17.77-8.43-.3-7.92.45-15.88.73-24,5.19,1.29,9.58.25,13.19-3.37a118.82,118.82,0,0,0,21.29-27.86c6.64-12.39,11.28-25.38,8.94-39.7-2.48-15.32-11.06-26.35-25.65-31.74-14.28-5.27-27.66-2.72-39.57,6.93-.94.76-1.83,1.58-3.26,2.82-.68-5.48.13-10,2.75-13.81,6.47-9.5,13-19,20-28.1,4.88-6.39,11.74-9.36,19.85-9.06.9,4.65,1.46,9.06,2.61,13.31,4.72,17.48,14.93,31.64,27.28,44.45,6.92,7.18,14.16,7.24,21-.09,5-5.39,9.66-11.12,14.73-17,9.48,6.81,19.28,13.45,28.59,20.72a12.87,12.87,0,0,1,4.37,14.63c-1.25,3.79-3.73,7.19-5.81,10.68-1.81,3-1.59,6,.83,7.84,2.59,1.94,5.59,1.33,7.9-1.72C281.18,259.57,282.48,257.76,283.69,255.88Z"/><path class="cls-3" d="M355.51,239c1.77-11.89,1.78-24,2.6-36.25-5.32,1.79-9.59,3.72-14.07,4.66-13.43,2.78-27.88-2.84-34.58-14.83-7.22-12.94-14.06-26.28-17.14-41-1.14-5.44-.8-11.18-1.21-16.78a38,38,0,0,0-.79-7.18c-3.76-13.88-3.86-27.33,4.65-40.09-31-22.93-65.46-33.63-105-32.19,1.32,2.92,2,5.5,3.49,7.44,3.3,4.26,7,8.17,10.57,12.27,8.05,9.37,7.72,21.65-.95,30.48-7.74,7.87-15.59,15.61-23.39,23.41a35.89,35.89,0,0,1-26.28,10.75c-7.63,0-15.26.07-22.89,0a31.86,31.86,0,0,0-19.09,6.05c-5.67,4-11.4,7.86-17,11.86-4.78,3.38-9.82,4.48-15.16,1.62s-7.41-7.43-7.3-13.4c.17-8.78,0-17.57,0-27.37-1.34,1.73-2.17,2.74-2.93,3.8a166.52,166.52,0,0,0-18.15,33.25c-.71,1.72-2,3.77-3.59,4.37a5.74,5.74,0,0,1-2.34.23A163.53,163.53,0,0,1,77.2,106.54c2.85,3.55,5.93,7,9.15,10.31,1.37,1.42,2.63,1.28,3.9-.07,2.06-2.24,4.21-4.42,6.16-6.75,8.87-10.58,16.23-21.82,19.52-35.12A163.67,163.67,0,0,1,305.2,91.81a31.24,31.24,0,0,0-6.24,25c3.2,19,13.84,33.71,26.67,47.24,1.53,1.61,3,1.64,4.47,0C332,162,334,160,335.8,157.9a123.41,123.41,0,0,0,10.06-13.47A163.56,163.56,0,1,1,41.27,171.61c2.24,1.09,3.26,3.52,2.55,6.73a161.66,161.66,0,0,0-3.59,44.73c2.32,37.81,16.29,70.76,42,98.56s57.21,44.86,94.59,49.5C235.94,378.47,285,358.54,323,312.64,340.7,291.27,351.42,266.37,355.51,239Zm-1.17-47.87a3.52,3.52,0,0,0,1.11-2.81c-.75-4.49-1.56-9-2.7-13.41-1.26-4.88-2.9-9.67-4.46-14.81-3.9,4.23-7.19,8-10.72,11.62-6.06,6.17-13.46,6.17-19.42-.08-4.6-4.82-8.9-9.91-13.59-15.17.63,1.66,1.1,3.06,1.71,4.41q4.56,10.26,9.18,20.49C323.1,198.29,339.7,202.49,354.34,191.08ZM194,99.62c6.78-6.78,6.78-12,.71-19.29s-14.43-13.06-14.79-23.85c-1.65.1-2.82.09-4,.25a172.4,172.4,0,0,0-43,12.54c-3.78,1.64-5.63,3.82-6.59,8-4.09,17.52-14.2,31.63-26.14,44.68-4.83,5.27-10,8.4-17.65,5.51,0,6.22-.1,12.07.08,17.91,0,1.46.64,3.59,1.66,4.13s3.13-.18,4.34-1c5.58-3.67,11-7.51,16.5-11.38a42.74,42.74,0,0,1,26-8.12c7,.09,14.08-.07,21.11,0a27.31,27.31,0,0,0,21.09-8.7C180.08,113.3,187.07,106.52,194,99.62Z"/><path class="cls-2" d="M328,81.15c17.88,0,31.48,16.28,29,34.34-1.48,10.79-5.55,20.23-11.12,28.94q-3.3-6.78-7.2-13.19a22.33,22.33,0,0,0-10.61-41.85,22,22,0,0,0-17,7.72q-2.86-2.72-5.87-5.3A28.8,28.8,0,0,1,328,81.15Z"/><path class="cls-2" d="M355.45,188.27a3.52,3.52,0,0,1-1.11,2.81c-14.64,11.41-31.24,7.21-38.89-9.76q-4.62-10.24-9.18-20.49c-.61-1.35-1.08-2.75-1.71-4.41,4.69,5.26,9,10.35,13.59,15.17,6,6.25,13.36,6.25,19.42.08,3.53-3.58,6.82-7.39,10.72-11.62,1.56,5.14,3.2,9.93,4.46,14.81C353.89,179.28,354.7,183.78,355.45,188.27Z"/><path class="cls-4" d="M328.05,89.39a22.33,22.33,0,0,1,10.61,41.85q-2.79-4.59-5.87-9a12,12,0,0,0,6.79-10.36,11.73,11.73,0,0,0-21-7.19q-3.64-3.93-7.53-7.59A22,22,0,0,1,328.05,89.39Z"/><path class="cls-2" d="M338.66,131.24q3.9,6.4,7.2,13.19A123.41,123.41,0,0,1,335.8,157.9C334,160,332,162,330.1,164.12c-1.5,1.62-2.94,1.59-4.47,0-12.83-13.53-23.47-28.25-26.67-47.24a31.24,31.24,0,0,1,6.24-25q3,2.58,5.87,5.3a22.27,22.27,0,0,0,27.59,34.13Z"/><path class="cls-2" d="M328.05,100.18a11.61,11.61,0,0,1,11.53,11.71,12,12,0,0,1-6.79,10.36A162,162,0,0,0,318.6,104.7,11.59,11.59,0,0,1,328.05,100.18Z"/><path class="cls-5" d="M332.79,122.25q3.07,4.4,5.87,9a22.07,22.07,0,0,1-10.76,2.82,22.37,22.37,0,0,1-16.83-36.95q3.89,3.66,7.53,7.59a11.38,11.38,0,0,0-2.3,6.85,11.67,11.67,0,0,0,11.41,11.84A11,11,0,0,0,332.79,122.25Z"/><path class="cls-2" d="M332.79,122.25a11,11,0,0,1-5.08,1.14,11.67,11.67,0,0,1-11.41-11.84,11.38,11.38,0,0,1,2.3-6.85A162,162,0,0,1,332.79,122.25Z"/><path class="cls-6" d="M287.51,235.4a26.08,26.08,0,0,1-3.82,20.48c-1.21,1.88-2.51,3.69-3.84,5.46-2.31,3.05-5.31,3.66-7.9,1.72-2.42-1.81-2.64-4.79-.83-7.84,2.08-3.49,4.56-6.89,5.81-10.68a12.87,12.87,0,0,0-4.37-14.63c-9.31-7.27-19.11-13.91-28.59-20.72-5.07,5.87-9.73,11.6-14.73,17-6.81,7.33-14.05,7.27-21,.09-12.35-12.81-22.56-27-27.28-44.45-1.15-4.25-1.71-8.66-2.61-13.31-8.11-.3-15,2.67-19.85,9.06-7,9.13-13.49,18.6-20,28.1-2.62,3.83-3.43,8.33-2.75,13.81,1.43-1.24,2.32-2.06,3.26-2.82,11.91-9.65,25.29-12.2,39.57-6.93,14.59,5.39,23.17,16.42,25.65,31.74,2.34,14.32-2.3,27.31-8.94,39.7A118.82,118.82,0,0,1,174.07,309c-3.61,3.62-8,4.66-13.19,3.37-.28,8.12-1,16.08-.73,24,.33,8.79,10.17,13.31,17.77,8.43,6.11-3.94,12-8.22,18-12.36,9.63-6.68,19.21-13.46,28.89-20.07a75.51,75.51,0,0,0,19.86-19.71c4.14-6,8.36-11.89,12.59-17.81,2.47-3.46,5.26-4.26,8-2.42s3.18,5,.66,8.58q-7.07,10.08-14.23,20.1A78.69,78.69,0,0,1,232.45,320q-23.82,16.54-47.66,33.11c-7.47,5.18-15.51,6.09-23.57,1.82s-12-11.24-11.75-20.45.69-18.53.73-27.8a9.82,9.82,0,0,0-2.12-5.87c-10.54-12.7-19-26.42-22.17-42.92-1.64-8.55-1.53-17,1.64-25.26a5.28,5.28,0,0,0-.1-3.57c-4.56-11.4-3.11-22,3.89-32,4.78-6.8,9.89-13.41,14.39-20.41,7.88-12.28,18.73-19.06,32.49-19.2,3.41-6.07,5.88-12.11,9.75-17.07a39.1,39.1,0,0,1,43.38-12.63,40.66,40.66,0,0,1,27.29,37c.34,11.18-2.78,21.5-7.59,31.43l-1.82,3.7c8.19,5.8,16.21,11.68,24.43,17.25C280.38,221.72,285.7,227.14,287.51,235.4Zm-39.67-64.59a30.15,30.15,0,0,0-28-34.43c-16.36-1.06-30.41,12.76-30.53,29.93.2,2.09.29,4.2.63,6.28,3.11,19,13.9,33.71,26.94,47,.62.65,3,.61,3.7,0a82.74,82.74,0,0,0,7.64-8.24C238,199.43,245.71,186.5,247.84,170.81ZM194.16,250a30.25,30.25,0,0,0-29.38-32.46,78.61,78.61,0,0,0-8.23,1.58c-15.51,4.62-23.67,19.58-20.16,36.76,3.69,18.05,14,32.2,26.44,45.12,1.44,1.48,2.74,1.57,4.15,0,1.74-1.89,3.61-3.7,5.28-5.66C183.5,282.13,192.63,267.94,194.16,250Z"/><path class="cls-2" d="M219.86,136.38a30.15,30.15,0,0,1,28,34.43c-2.13,15.69-9.8,28.62-19.6,40.55a82.74,82.74,0,0,1-7.64,8.24c-.7.64-3.08.68-3.7,0-13-13.33-23.83-28-26.94-47-.34-2.08-.43-4.19-.63-6.28C189.45,149.14,203.5,135.32,219.86,136.38Zm3.68,52.5c10-2.15,18.05-12.18,17.44-21.84a5.26,5.26,0,0,0-10.51-.44,30.09,30.09,0,0,1-.57,3.44,11.45,11.45,0,0,1-13.16,8.47c-5.61-.81-9.81-6.1-9.59-12a11.61,11.61,0,0,1,13.24-10.9c3.83.48,6.61-1.34,7-4.58.37-2.84-1.71-5.23-5.2-5.95a11.38,11.38,0,0,0-1.74-.24,22.33,22.33,0,1,0,3.06,44.09Z"/><path class="cls-7" d="M241,167c.61,9.66-7.4,19.69-17.44,21.84a22.33,22.33,0,1,1-3.06-44.09,11.38,11.38,0,0,1,1.74.24c3.49.72,5.57,3.11,5.2,5.95-.42,3.24-3.2,5.06-7,4.58a11.61,11.61,0,0,0-13.24,10.9c-.22,5.95,4,11.24,9.59,12A11.45,11.45,0,0,0,229.9,170a30.09,30.09,0,0,0,.57-3.44A5.26,5.26,0,0,1,241,167Z"/><path class="cls-2" d="M194.66,80.33c6.07,7.33,6.07,12.51-.71,19.29s-13.87,13.68-20.62,20.69a27.31,27.31,0,0,1-21.09,8.7c-7-.1-14.07.06-21.11,0a42.74,42.74,0,0,0-26,8.12c-5.45,3.87-10.92,7.71-16.5,11.38-1.21.79-3.32,1.51-4.34,1s-1.61-2.67-1.66-4.13c-.18-5.84-.08-11.69-.08-17.91,7.61,2.89,12.82-.24,17.65-5.51,11.94-13.05,22-27.16,26.14-44.68,1-4.13,2.81-6.31,6.59-8a172.4,172.4,0,0,1,43-12.54c1.14-.16,2.31-.15,4-.25C180.23,67.27,188.64,73.06,194.66,80.33Z"/><path class="cls-2" d="M164.78,217.53A30.25,30.25,0,0,1,194.16,250c-1.53,17.95-10.66,32.14-21.9,45.35-1.67,2-3.54,3.77-5.28,5.66-1.41,1.56-2.71,1.47-4.15,0-12.43-12.92-22.75-27.07-26.44-45.12-3.51-17.18,4.65-32.14,20.16-36.76A78.61,78.61,0,0,1,164.78,217.53Zm22.53,31a22.39,22.39,0,1,0-22.55,22.18A22.34,22.34,0,0,0,187.31,248.56Z"/><path class="cls-8" d="M164.92,226.26a22.24,22.24,0,1,1-22.38,22.32A22.34,22.34,0,0,1,164.92,226.26Zm11.54,22.37a11.56,11.56,0,1,0-23.12-.29,11.56,11.56,0,1,0,23.12.29Z"/><path class="cls-2" d="M165.07,236.9a11.44,11.44,0,0,1,11.39,11.73,11.56,11.56,0,1,1-23.12-.29A11.5,11.5,0,0,1,165.07,236.9Z"/><path class="cls-2" d="M88.23,33.17c17.23.24,31.06,16.17,29.22,33.28a62.26,62.26,0,0,1-1.52,8.46A164.17,164.17,0,0,0,77.2,106.54c-8.45-10.44-15-22-17.62-35.78-3.25-17.1,5.39-32,21.08-36.21C83.12,33.88,85.71,33.62,88.23,33.17Zm0,53.19A22.24,22.24,0,1,0,65.87,64,22.32,22.32,0,0,0,88.23,86.36Z"/><path class="cls-2" d="M115.93,74.91c-3.29,13.3-10.65,24.54-19.52,35.12-2,2.33-4.1,4.51-6.16,6.75-1.27,1.35-2.53,1.49-3.9.07-3.22-3.34-6.3-6.76-9.15-10.31A164.17,164.17,0,0,1,115.93,74.91Z"/><path class="cls-9" d="M110.61,64.06A22.37,22.37,0,1,1,88.43,41.89,22.32,22.32,0,0,1,110.61,64.06Zm-10.74.19a11.84,11.84,0,0,0-11.5-11.82A11.65,11.65,0,0,0,76.71,64,11.44,11.44,0,0,0,88.12,75.73,11.62,11.62,0,0,0,99.87,64.25Z"/><path class="cls-2" d="M88.37,52.43a11.84,11.84,0,0,1,11.5,11.82A11.62,11.62,0,0,1,88.12,75.73,11.44,11.44,0,0,1,76.71,64,11.65,11.65,0,0,1,88.37,52.43Z"/></svg>