<svg id="Layer_1" data-name="Layer 1" xmlns="http://www.w3.org/2000/svg" xmlns:xlink="http://www.w3.org/1999/xlink" viewBox="0 0 400 400"><defs><style>.cls-1{fill:#fff;}.cls-2{fill:url(#linear-gradient);}.cls-3{fill:url(#linear-gradient-2);}.cls-4{fill:url(#linear-gradient-3);}.cls-5{fill:url(#linear-gradient-4);}.cls-6{fill:url(#linear-gradient-5);}.cls-7{fill:url(#linear-gradient-6);}.cls-8{fill:url(#linear-gradient-7);}.cls-9{fill:url(#linear-gradient-8);}.cls-10{fill:url(#linear-gradient-9);}.cls-11{fill:url(#linear-gradient-10);}.cls-12{fill:url(#linear-gradient-11);}.cls-13{fill:url(#linear-gradient-12);}.cls-14{fill:url(#linear-gradient-13);}</style><linearGradient id="linear-gradient" x1="201.77" y1="219.58" x2="381.62" y2="219.58" gradientUnits="userSpaceOnUse"><stop offset="0" stop-color="#cf86b9"/><stop offset="0.99" stop-color="#4787c7"/></linearGradient><linearGradient id="linear-gradient-2" x1="225.78" y1="81.15" x2="370.32" y2="81.15" xlink:href="#linear-gradient"/><linearGradient id="linear-gradient-3" x1="250" y1="93.12" x2="346.05" y2="93.12" xlink:href="#linear-gradient"/><linearGradient id="linear-gradient-4" x1="286.16" y1="68.96" x2="346.05" y2="68.96" xlink:href="#linear-gradient"/><linearGradient id="linear-gradient-5" x1="108.93" y1="333.79" x2="298.31" y2="333.79" xlink:href="#linear-gradient"/><linearGradient id="linear-gradient-6" x1="39.45" y1="141.25" x2="287.93" y2="141.25" xlink:href="#linear-gradient"/><linearGradient id="linear-gradient-7" x1="250.09" y1="69.08" x2="273.94" y2="69.08" xlink:href="#linear-gradient"/><linearGradient id="linear-gradient-8" x1="195.9" y1="345.99" x2="207.79" y2="345.99" xlink:href="#linear-gradient"/><linearGradient id="linear-gradient-9" x1="21.19" y1="300.89" x2="165.76" y2="300.89" xlink:href="#linear-gradient"/><linearGradient id="linear-gradient-10" x1="87.69" y1="315.71" x2="141.42" y2="315.71" xlink:href="#linear-gradient"/><linearGradient id="linear-gradient-11" x1="21.2" y1="69.12" x2="93.63" y2="69.12" xlink:href="#linear-gradient"/><linearGradient id="linear-gradient-12" x1="45.42" y1="315.8" x2="75.38" y2="315.8" xlink:href="#linear-gradient"/><linearGradient id="linear-gradient-13" x1="45.41" y1="69.05" x2="69.24" y2="69.05" xlink:href="#linear-gradient"/></defs><title>icon</title><rect class="cls-1" x="111.27" y="22.97" width="180.43" height="341.07" rx="12"/><path class="cls-2" d="M381.62,148.21v12.7c-6.68,8.13-13.15,16.45-20.08,24.37q-32.85,37.54-66,74.81a15.93,15.93,0,0,0-4.11,8.21c-3.6,21.05-20.39,35.33-41.79,35.62-13.4.18-26.8,0-40.2,0-3.47,0-6.39-1-7.4-4.65-.93-3.33.82-5.63,3.59-7.28,6-3.54,8.31-9,8.17-15.69-.2-9.19-.15-18.33,4.19-26.82q10.58-20.69,33.58-23.7a5.69,5.69,0,0,0,2.89-1c10.86-9.51,21.66-19.1,32.11-28.33a27.79,27.79,0,0,1-.6-4c0-18,0-36-.08-53.95,0-2.59.69-3.43,3.36-3.44,9,0,9-.11,9,9V186c2-1.67,3.39-2.81,4.75-4,15.07-13.29,30.48-26.24,45.1-40C359.19,131.56,375.51,133.61,381.62,148.21Zm-14.4,12.12c1.58-1.84,2.9-4.89,2.61-7.16-.8-6.17-7.37-7.43-12.69-2.73q-38.36,33.81-76.68,67.62c-5.15,4.55-10.28,9.13-15.16,13.47l20.85,20.87,49-55.51C345.86,184.73,356.68,172.65,367.22,160.33ZM279.4,266.15a5,5,0,0,0-1.17-3.62q-11.46-11.71-23.17-23.2a4.29,4.29,0,0,0-2.93-1.27c-13.28,1.32-24.44,13-25.88,26.21-1,9,1.38,18.42-3.52,27a13.89,13.89,0,0,0,1.8.3c9.28-.05,18.56.13,27.83-.21C265.82,290.91,277.9,279.51,279.4,266.15Z"/><path class="cls-3" d="M370.32,47.36q0,33.84,0,67.68c0,6.31-2.06,8.35-8.5,8.35H234.56c-6.73,0-8.77-2.08-8.77-8.88q0-33.49,0-67c0-6.67,2-8.62,8.6-8.62h63.8q31.9,0,63.81,0C368.45,38.93,370.32,40.82,370.32,47.36ZM358,110.79V51.2H238.21v59.59Z"/><path class="cls-1" d="M369.83,153.17c.29,2.27-1,5.32-2.61,7.16-10.54,12.32-21.36,24.4-32.09,36.56l-49,55.51L265.3,231.53c4.88-4.34,10-8.92,15.16-13.47q38.34-33.83,76.68-67.62C362.46,145.74,369,147,369.83,153.17Z"/><path class="cls-1" d="M358,51.2v59.59H238.21V51.2Zm-12,47.8V87.23H250V99Zm0-24.13V63.06H286.16V74.87Zm-72.11.07V63.22H250.09V74.94Z"/><path class="cls-4" d="M346.05,87.23V99H250V87.23Z"/><path class="cls-5" d="M346.05,63.06V74.87H286.16V63.06Z"/><path class="cls-6" d="M298.3,342.55c.31,18.07-10.35,30.34-25.42,33.12a1.88,1.88,0,0,0-.59.37H130.51c-4.2-1.92-8.71-3.38-12.53-5.9-3.3-2.19-5.8-5.58-9-8.82L119.76,355c1.31,1.45,2.47,2.91,3.82,4.18,3.79,3.59,8.53,4.83,13.58,4.83q64.69.06,129.38,0c11.92,0,19.23-7.44,19.36-19.38.07-5.39,0-10.78,0-16.5H178V315.84h107.9c0-7.2.14-13.88-.07-20.56-.09-3,.91-3.94,3.8-3.7,2.66.22,5.36.05,8.41.05.08,1.56.18,2.8.18,4C298.26,311.3,298.05,326.92,298.3,342.55Z"/><path class="cls-7" d="M287.93,22.46c-2.62,3-5.14,5.85-8,9.09-5.9-5.22-13-4.64-20.06-4.64h-122c-10.43,0-17.63,5-19.69,14.07-.7,3-.44,6.27-.66,9.79h96V63H118V95.12c1.93-.37,3.74-.75,5.56-1.05,6-1,6-1,6-7.18V75.17h12V92.91c41.66,6.74,65.74,30.62,72.47,72.25h17.68v12.38c-4.71,0-9.6.25-14.44-.08-3.26-.23-3.89,1.28-4.24,4-3,23.34-14.48,41.61-33.79,54.91a72.52,72.52,0,0,1-35,12.69c-2,.19-2.55,1-2.52,2.89.1,5.14,0,10.29,0,15.67H129.5c0-5.09-.1-10,0-14.91.08-2.43-.53-3.47-3.24-3.71-31.72-2.8-60.66-28.89-66.95-60.24A70.6,70.6,0,0,1,58,180.05c-.16-2.05-1-2.55-2.87-2.53-5.14.07-10.29,0-15.66,0v-12.3H57.57a80.45,80.45,0,0,1,8-28.61,77.19,77.19,0,0,1,36.79-36c2.22-1.06,3.08-2.18,3.07-4.69-.13-16.1-.08-32.21-.06-48.31,0-7.31,1.4-14.24,5.9-20.24,6.39-8.49,15-12.47,25.55-12.47q55.89,0,111.79,0c6.58,0,13.16,0,19.75,0C275.69,15,282.07,17.57,287.93,22.46ZM190,165.14h11c-1.84-32.22-31.23-58.37-59.38-59V117H129.45V106.06c-28.82,1.11-57.28,27-59.39,59.23H81.31v12.3H69.81c2.09,18,9.6,32.46,23.43,44.62.29-18,7.57-31.24,22.55-40C99.35,165.63,105.42,146,115,137.18a30.23,30.23,0,0,1,41-.17,28.93,28.93,0,0,1,9.63,19.41c.93,10.13-2.87,18.56-10.37,25.76,15.4,9.06,22.55,22.3,22.7,39.65,13-9.35,23.93-31.46,22.7-44.45H190ZM165.63,228c0-4-.11-8-.46-11.94-1.11-12.65-10.7-23-23.72-25.9-12-2.62-25.39,3.58-31.67,14.17-4.67,7.89-4.14,16.42-4.07,25a1.82,1.82,0,0,0,.77,1.41,60.06,60.06,0,0,0,23.09,6.4V225.72h12.09V237c6.38-.15,17.44-3.07,22.37-6A4.11,4.11,0,0,0,165.63,228Zm-30.24-50.75A18,18,0,0,0,153.6,159.3a18.21,18.21,0,0,0-18-17.94,18,18,0,0,0-17.9,17.88A17.7,17.7,0,0,0,135.39,177.23Z"/><path class="cls-1" d="M278.23,262.53a5,5,0,0,1,1.17,3.62c-1.5,13.36-13.58,24.76-27,25.25-9.27.34-18.55.16-27.83.21a13.89,13.89,0,0,1-1.8-.3c4.9-8.62,2.54-18,3.52-27,1.44-13.19,12.6-24.89,25.88-26.21a4.29,4.29,0,0,1,2.93,1.27Q266.75,250.83,278.23,262.53Z"/><path class="cls-8" d="M273.94,63.22V74.94H250.09V63.22Z"/><path class="cls-9" d="M207.79,340.18v11.63H195.9V340.18Z"/><path class="cls-1" d="M201,165.14H190v12.24h10.59c1.23,13-9.7,35.1-22.7,44.45-.15-17.35-7.3-30.59-22.7-39.65,7.5-7.2,11.3-15.63,10.37-25.76A28.93,28.93,0,0,0,156,137a30.23,30.23,0,0,0-41,.17c-9.55,8.86-15.62,28.45.82,45.08-15,8.71-22.26,21.94-22.55,40-13.83-12.16-21.34-26.65-23.43-44.62h11.5v-12.3H70.06c2.11-32.25,30.57-58.12,59.39-59.23V117h12.21V106.14C169.81,106.77,199.2,132.92,201,165.14Z"/><path class="cls-10" d="M165.74,293.4q0,22.22,0,44.43c0,6.11-2.05,8.16-8.3,8.18-12.81,0-25.62,0-38.44,0H31.21c-1.18,0-2.36.05-3.52-.05-4.32-.37-6.44-2.49-6.46-6.77q-.07-23.26,0-46.54c0-4.69,2.4-6.87,7.37-6.87q36.13,0,72.28,0h4.52v-30h12.19v30h4.11q18.17,0,36.32,0C163.58,285.78,165.73,287.89,165.74,293.4Zm-12.26,40.15V298.09h-120v35.46Z"/><path class="cls-1" d="M165.17,216c.35,4,.49,8,.46,11.94a4.11,4.11,0,0,1-1.6,3c-4.93,3-16,5.89-22.37,6V225.72H129.57v11.36a60.06,60.06,0,0,1-23.09-6.4,1.82,1.82,0,0,1-.77-1.41c-.07-8.54-.6-17.07,4.07-25,6.28-10.59,19.65-16.79,31.67-14.17C154.47,193,164.06,203.39,165.17,216Z"/><path class="cls-1" d="M153.6,159.3a18,18,0,0,1-18.21,17.93,17.7,17.7,0,0,1-17.67-18,18,18,0,0,1,17.9-17.88A18.21,18.21,0,0,1,153.6,159.3Z"/><path class="cls-1" d="M153.48,298.09v35.46h-120V298.09Zm-12.06,23.48V309.85H87.69v11.72Zm-66,0V310.06h-30v11.48Z"/><path class="cls-11" d="M141.42,309.85v11.72H87.69V309.85Z"/><path class="cls-12" d="M93.59,47.05q.07,22,0,44c0,6-2.33,8.2-8.4,8.22q-27.84,0-55.67,0c-6.17,0-8.31-2.17-8.31-8.22q0-22,0-44c0-6.14,2-8.13,8.3-8.14q13.92,0,27.84,0t27.83,0C91.34,38.93,93.57,41,93.59,47.05ZM81.09,86.78V51.21H33.52V86.78Z"/><path class="cls-1" d="M81.09,51.21V86.78H33.52V51.21ZM69.24,75V63.15H45.41V75Z"/><path class="cls-13" d="M75.38,310.06v11.48h-30V310.06Z"/><path class="cls-14" d="M69.24,63.15V75H45.41V63.15Z"/></svg>