<svg id="Layer_1" data-name="Layer 1" xmlns="http://www.w3.org/2000/svg" xmlns:xlink="http://www.w3.org/1999/xlink" viewBox="0 0 400 400"><defs><style>.cls-1{fill:#fff;}.cls-2{fill:url(#linear-gradient);}.cls-3{fill:url(#linear-gradient-2);}.cls-4{fill:url(#linear-gradient-3);}</style><linearGradient id="linear-gradient" x1="15.86" y1="198.07" x2="383.51" y2="198.07" gradientUnits="userSpaceOnUse"><stop offset="0" stop-color="#cf86b9"/><stop offset="0.99" stop-color="#4787c7"/></linearGradient><linearGradient id="linear-gradient-2" x1="327.6" y1="343.19" x2="341.93" y2="343.19" xlink:href="#linear-gradient"/><linearGradient id="linear-gradient-3" x1="192.53" y1="153.87" x2="206.83" y2="153.87" xlink:href="#linear-gradient"/></defs><title>icon</title><polygon class="cls-1" points="376.03 319.57 294.42 366.07 291.69 264.47 373.3 217.97 376.03 319.57"/><path class="cls-2" d="M377.13,214.59c4.52,2.48,6.41,5.55,6.38,10.82q-.31,46.47,0,93c0,4.55-1.7,7.4-5.63,9.42-5.09,2.62-10,5.54-15.08,8.25-4.59,2.46-8.82,1.57-10.92-2.21s-.62-7.8,3.95-10.43c3.73-2.13,7.57-4.08,11.24-6.32a4.28,4.28,0,0,0,1.95-2.89q.13-39.12,0-78.23c0-.19-.22-.38-.46-.78-.81.41-1.66.79-2.46,1.23q-34.17,18.9-68.34,37.81c-1.61.9-2.74,1.69-2.73,4,.12,25.49.08,51,.08,76.44,0,.57.07,1.14.13,2.21,3.08-1.67,5.85-3.22,8.66-4.7,4.56-2.39,8.9-1.46,10.93,2.3s.58,7.77-4,10.37c-5.82,3.31-11.76,6.39-17.5,9.8-3.71,2.2-7,2.1-10.74,0-26.48-14.78-53.06-29.41-79.53-44.2a6.05,6.05,0,0,0-6.77,0c-26.26,14.68-52.65,29.16-78.9,43.88-4.24,2.38-7.76,2.41-12,0-27.51-15.4-55.14-30.58-82.66-45.95-2.51-1.39-4.58-3.6-6.85-5.42V220.28c2.1-1.87,3.93-4.2,6.32-5.54q39.41-22,79-43.75a5.1,5.1,0,0,0,3.11-5.23c-.1-29.19,0-58.37-.13-87.56,0-4.78,1.69-7.75,5.87-10Q152.08,45,194,21.62c4-2.22,7.37-2.31,11.38-.07Q247.42,45,289.65,68.26c3.87,2.13,5.63,4.91,5.61,9.45-.13,29.3,0,58.61-.14,87.91,0,2.78.85,4.2,3.28,5.53C324.67,185.57,350.84,200.2,377.13,214.59Zm-16.22,7.88c-.91-.61-1.46-1-2-1.35-22.87-12.67-45.72-25.36-68.65-37.89a5.87,5.87,0,0,0-4.78.17q-34.08,18.65-68,37.54c-.7.4-1.36.86-2.43,1.53.73.51,1,.75,1.3.92q34.76,19.29,69.56,38.45a5.92,5.92,0,0,0,4.8-.31q33.9-18.57,67.67-37.42C359.1,223.68,359.84,223.15,360.91,222.47ZM280.84,278c0-2.15-1.09-2.88-2.59-3.71q-17.25-9.51-34.48-19.05l-37-20.5v3.88c0,24.63,0,49.26-.07,73.9a5.14,5.14,0,0,0,3.08,5.26c22.5,12.34,44.93,24.82,67.38,37.26,1,.56,2,1.07,3.41,1.78.08-.94.16-1.49.16-2.06C280.77,329.18,280.74,303.59,280.84,278Zm-2.25-107.46c2-1.08,2.24-2.39,2.23-4.31q-.06-37.5,0-75c0-.89-.08-1.78-.14-3-1.44.76-2.49,1.29-3.51,1.86-23.82,13.2-47.68,26.33-71.41,39.67-4.24,2.38-7.79,2.36-12,0C170,116.37,146.12,103.23,122.31,90c-1.1-.61-2.24-1.14-3.57-1.81-.07,1-.14,1.43-.14,1.9,0,25.48,0,51-.07,76.45a4.14,4.14,0,0,0,2.57,4.14q34.36,18.94,68.67,38a28.68,28.68,0,0,0,2.73,1.13v-4.36c0-8.5-.05-17,0-25.49,0-4.64,2.64-7.61,6.63-7.89,4.58-.31,7.67,2.69,7.71,7.81.08,9.8,0,19.6,0,30,1.15-.5,1.8-.72,2.4-1.06Q243.94,189.68,278.59,170.54Zm-8.47-93.17c.87-.48,1.68-1.08,2.74-1.77-23.61-13.09-46.92-26-70.15-39-2.31-1.3-3.94-1.11-6.15.12q-33.13,18.54-66.38,36.89c-1.11.61-2.21,1.26-3.54,2,.85.55,1.42,1,2,1.32,23,12.74,45.93,25.51,69,38.13a5.48,5.48,0,0,0,4.43-.15Q236.15,96.29,270.12,77.37ZM192.49,312.85q0-37.32,0-74.62c0-1-.16-2-.28-3.33-24.31,13.47-48.22,26.7-72.07,40a3.73,3.73,0,0,0-1.54,2.76c-.09,26.18-.07,52.36-.07,79.17,1-.47,1.54-.68,2-.95q34.94-19.35,69.88-38.65C192.47,316.11,192.49,314.67,192.49,312.85Zm-8.15-90.16a12.48,12.48,0,0,0-1.22-1.06c-23.28-12.91-46.55-25.85-69.91-38.62a5.5,5.5,0,0,0-4.46.36Q74.84,202,41.05,220.8c-.84.48-1.63,1.07-2.56,1.67a6.86,6.86,0,0,0,.92.76c23.28,12.92,46.54,25.86,69.9,38.62,1.2.66,3.48.36,4.8-.35,11-5.94,22-12.09,32.92-18.17C159.34,236.51,171.66,229.7,184.34,222.69Zm-80.09,55.55c0-2.51-1.33-3.23-3-4.17q-33.69-18.63-67.36-37.3c-1-.56-2.06-1.06-3.51-1.8-.07,1.05-.13,1.51-.13,2,0,25.47,0,50.93-.07,76.4,0,2.39,1.13,3.28,2.91,4.27q34,18.76,68,37.63c.9.51,1.86.89,3,1.44,0-.92.12-1.49.12-2.06C104.18,329.17,104.13,303.7,104.25,278.24Z"/><path class="cls-1" d="M358.87,221.12c.58.33,1.13.74,2,1.35-1.07.68-1.81,1.21-2.59,1.64q-33.81,18.76-67.67,37.42a5.92,5.92,0,0,1-4.8.31Q251,242.76,216.29,223.39c-.31-.17-.57-.41-1.3-.92,1.07-.67,1.73-1.13,2.43-1.53q34-18.81,68-37.54a5.87,5.87,0,0,1,4.78-.17C313.15,195.76,336,208.45,358.87,221.12Z"/><path class="cls-3" d="M341.93,343.18a7,7,0,0,1-6.85,7.16,7.27,7.27,0,0,1-7.48-7,7.68,7.68,0,0,1,7.34-7.31A7.33,7.33,0,0,1,341.93,343.18Z"/><path class="cls-1" d="M278.25,274.29c1.5.83,2.59,1.56,2.59,3.71-.1,25.59-.07,51.18-.07,76.76,0,.57-.08,1.12-.16,2.06-1.37-.71-2.4-1.22-3.41-1.78-22.45-12.44-44.88-24.92-67.38-37.26a5.14,5.14,0,0,1-3.08-5.26c.11-24.64.07-49.27.07-73.9v-3.88l37,20.5Q261,264.78,278.25,274.29Z"/><path class="cls-1" d="M280.82,166.23c0,1.92-.27,3.23-2.23,4.31q-34.69,19.07-69.3,38.31c-.6.34-1.25.56-2.4,1.06,0-10.42.05-20.22,0-30,0-5.12-3.13-8.12-7.71-7.81-4,.28-6.59,3.25-6.63,7.89-.07,8.5,0,17,0,25.49v4.36a28.68,28.68,0,0,1-2.73-1.13q-34.34-19-68.67-38a4.14,4.14,0,0,1-2.57-4.14c.09-25.48.07-51,.07-76.45,0-.47.07-1,.14-1.9,1.33.67,2.47,1.2,3.57,1.81,23.81,13.2,47.67,26.34,71.41,39.67,4.22,2.37,7.77,2.39,12,0,23.73-13.34,47.59-26.47,71.41-39.67,1-.57,2.07-1.1,3.51-1.86.06,1.26.14,2.15.14,3Q280.79,128.72,280.82,166.23Zm-74-12.26a7.21,7.21,0,0,0-6.92-7.27,7.17,7.17,0,1,0-.17,14.34A7.21,7.21,0,0,0,206.83,154Z"/><path class="cls-1" d="M272.86,75.6c-1.06.69-1.87,1.29-2.74,1.77q-34,18.84-68.05,37.59a5.48,5.48,0,0,1-4.43.15c-23-12.62-46-25.39-69-38.13-.61-.35-1.18-.77-2-1.32,1.33-.76,2.43-1.41,3.54-2q33.19-18.42,66.38-36.89c2.21-1.23,3.84-1.42,6.15-.12C225.94,49.64,249.25,62.51,272.86,75.6Z"/><path class="cls-4" d="M199.91,146.7a7.17,7.17,0,0,1-.17,14.34,7.17,7.17,0,1,1,.17-14.34Z"/><path class="cls-1" d="M192.47,238.23q0,37.31,0,74.62c0,1.82,0,3.26-2.07,4.39q-35,19.22-69.88,38.65c-.49.27-1,.48-2,.95,0-26.81,0-53,.07-79.17a3.73,3.73,0,0,1,1.54-2.76c23.85-13.31,47.76-26.54,72.07-40C192.31,236.27,192.47,237.25,192.47,238.23Z"/><path class="cls-1" d="M183.12,221.63a12.48,12.48,0,0,1,1.22,1.06c-12.68,7-25,13.82-37.31,20.64-11,6.08-21.89,12.23-32.92,18.17-1.32.71-3.6,1-4.8.35-23.36-12.76-46.62-25.7-69.9-38.62a6.86,6.86,0,0,1-.92-.76c.93-.6,1.72-1.19,2.56-1.67q33.83-18.75,67.7-37.43a5.5,5.5,0,0,1,4.46-.36C136.57,195.78,159.84,208.72,183.12,221.63Z"/><path class="cls-1" d="M101.22,274.07c1.7.94,3,1.66,3,4.17-.12,25.46-.07,50.93-.08,76.4,0,.57-.07,1.14-.12,2.06-1.16-.55-2.12-.93-3-1.44q-34-18.81-68-37.63c-1.78-1-2.92-1.88-2.91-4.27.1-25.47.07-50.93.07-76.4,0-.48.06-.94.13-2,1.45.74,2.49,1.24,3.51,1.8Q67.55,255.43,101.22,274.07Z"/></svg>