<?xml version="1.0" encoding="iso-8859-1"?>
<!-- Generator: Adobe Illustrator 19.0.0, SVG Export Plug-In . SVG Version: 6.00 Build 0)  -->
<svg version="1.1" id="Capa_1" xmlns="http://www.w3.org/2000/svg" xmlns:xlink="http://www.w3.org/1999/xlink" x="0px" y="0px"
	 viewBox="0 0 360 360" style="enable-background:new 0 0 360 360;" xml:space="preserve">
<g id="XMLID_943_">
	<path id="XMLID_944_" d="M345,124.551h-50V77.834L211.977,0H15v360h280v-52.721h50V124.551z M315,277.279H105V154.551h210V277.279z
		"/>
	<polygon id="XMLID_947_" points="147.586,244.085 159.916,244.085 159.916,191.075 180.347,191.075 180.347,180.185 
		127.156,180.185 127.156,191.075 147.586,191.075 	"/>
	<polygon id="XMLID_948_" points="232.635,233.195 200.686,233.195 200.686,216.545 227.596,216.545 227.596,206.465 
		200.686,206.465 200.686,191.075 231.825,191.075 231.825,180.185 188.266,180.185 188.266,244.085 232.635,244.085 	"/>
	<polygon id="XMLID_949_" points="236.145,244.085 249.645,244.085 264.855,221.225 279.975,244.085 293.385,244.085 
		271.335,212.585 294.105,180.185 280.695,180.185 264.855,203.945 248.925,180.185 235.425,180.185 258.195,212.585 	"/>
</g>
<g>
</g>
<g>
</g>
<g>
</g>
<g>
</g>
<g>
</g>
<g>
</g>
<g>
</g>
<g>
</g>
<g>
</g>
<g>
</g>
<g>
</g>
<g>
</g>
<g>
</g>
<g>
</g>
<g>
</g>
</svg>
