<svg id="Layer_1" data-name="Layer 1" xmlns="http://www.w3.org/2000/svg" xmlns:xlink="http://www.w3.org/1999/xlink" viewBox="0 0 400 400"><defs><style>.cls-1{fill:url(#linear-gradient);}.cls-2{fill:#fff;}.cls-3{fill:url(#linear-gradient-2);}.cls-4{fill:url(#linear-gradient-3);}.cls-5{fill:url(#linear-gradient-4);}.cls-6{fill:url(#linear-gradient-5);}.cls-7{fill:url(#linear-gradient-6);}.cls-8{fill:url(#linear-gradient-7);}.cls-9{fill:url(#linear-gradient-8);}.cls-10{fill:url(#linear-gradient-9);}</style><linearGradient id="linear-gradient" x1="23.24" y1="195.05" x2="377.49" y2="195.05" gradientUnits="userSpaceOnUse"><stop offset="0" stop-color="#cf86b9"/><stop offset="0.99" stop-color="#4787c7"/></linearGradient><linearGradient id="linear-gradient-2" x1="217.69" y1="206.5" x2="285.9" y2="206.5" xlink:href="#linear-gradient"/><linearGradient id="linear-gradient-3" x1="194.8" y1="155.01" x2="285.88" y2="155.01" xlink:href="#linear-gradient"/><linearGradient id="linear-gradient-4" x1="274.84" y1="229.39" x2="285.79" y2="229.39" xlink:href="#linear-gradient"/><linearGradient id="linear-gradient-5" x1="217.67" y1="229.29" x2="263.03" y2="229.29" xlink:href="#linear-gradient"/><linearGradient id="linear-gradient-6" x1="214.9" y1="155.04" x2="265.82" y2="155.04" xlink:href="#linear-gradient"/><linearGradient id="linear-gradient-7" x1="103.47" y1="274.94" x2="114.34" y2="274.94" xlink:href="#linear-gradient"/><linearGradient id="linear-gradient-8" x1="80.68" y1="274.95" x2="91.51" y2="274.95" xlink:href="#linear-gradient"/><linearGradient id="linear-gradient-9" x1="57.69" y1="275.07" x2="68.69" y2="275.07" xlink:href="#linear-gradient"/></defs><title>icon</title><path class="cls-1" d="M377.44,196.16q.06,68.21,0,136.41c0,20.79-16.91,38.68-37,39.54-22.22,1-41-14.46-42.68-35.82-.81-9.94-.21-20-.23-30v-2.42H224.07c-.51,6.91,6.16,19.18,12.18,22.17a7.41,7.41,0,0,0,3.11.41c7.85,0,15.72,0,23.57,0,10,0,17.33,7.33,17.4,17.31,0,3.81.05,7.63,0,11.43a16.92,16.92,0,0,1-17.09,16.92q-85.69,0-171.4,0A16.9,16.9,0,0,1,74.67,355c0-3.82,0-7.62,0-11.43a16.93,16.93,0,0,1,17-17c8.1-.07,16.19.07,24.28-.09a7.51,7.51,0,0,0,4.41-1.65,30.84,30.84,0,0,0,11-21.16h-4.18q-37.15,0-74.29,0c-17.42,0-29.62-12.21-29.62-29.63q0-84.63,0-169.27c0-17.43,12.19-29.6,29.62-29.63,6.78,0,13.57.09,20.35-.08a4.46,4.46,0,0,0,3.19-1.89c3.34-5.84,8.25-9,15.4-9.62,0-5.91,0-11.6,0-17.3a28.55,28.55,0,0,1,57.1-.07c.05,5.7,0,11.39,0,17.31,7.18.62,12.45,3.89,15.67,10.27A3.41,3.41,0,0,0,166.72,75a11.67,11.67,0,0,0,2.84.06c36.43,0,72.88.84,109.27-.21,47-1.35,55.13,6.15,52.94,53-.07,1.64,0,3.3,0,4.91,2.86-.16,5.48-.69,8-.37a14,14,0,0,1,11.12,8q13,25.79,25.81,51.66A9.49,9.49,0,0,1,377.44,196.16Zm-11.38,119H309c0,6.33-.24,12.27.05,18.2.65,13.38,10.42,24.54,23.07,26.73,13.48,2.33,26.22-4.31,31.5-16.53C367.57,334.36,365.63,324.72,366.06,315.17Zm-.17-11.82v-11H309.15v11Zm-.07-22.75V201H343.38V280.6Zm-53-91.43h49.39c-.57-1.31-.91-2.19-1.33-3-6.42-12.84-12.77-25.71-19.34-38.48-.81-1.57-2.66-3.37-4.2-3.54-1.17-.12-3.08,1.92-3.84,3.41-6.61,12.89-13,25.87-19.51,38.82C313.59,187.18,313.29,188.05,312.83,189.17Zm18.89,91.3V201H309.17v79.49ZM320.34,145c0-13,0-25.94,0-38.92,0-12.79-6.84-19.65-19.58-19.65h-86c-15.48,0-31,0-46.43.05-1.19,0-3.14.17-3.47.87-2.35,5-6.26,8.18-11.12,10.54h3.91q69.45,0,138.89,0c7.85,0,12.37,4.53,12.38,12.4q0,27.67,0,55.34v3.46l.74.13c3.4-6.8,6.83-13.58,10.12-20.43A9.18,9.18,0,0,0,320.34,145ZM297.25,246.33V109.61H148.92c0,13.48,0,26.69,0,39.9,0,8.09,1.31,16.5-.5,24.17s-6.78,14.57-10.37,21.81c-.8,1.63-1.6,3.25-2.59,5.28,18.2,0,35.68,0,53.17,0,9.84,0,17.38,7.39,17.44,16.92A17,17,0,0,1,188.65,235q-51.06,0-102.12,0c-10,0-17.58-7.4-17.57-17.14s7.54-17.07,17.6-17.11c6,0,12.1,0,18.6,0-.65-1.45-1.09-2.51-1.6-3.54-3.34-6.69-6.82-13.32-10-20.11a18.45,18.45,0,0,1-1.72-7.44c-.14-18.8-.07-37.6-.07-56.41v-3.65H57.69V246.33Zm0,45.86V257.88H58.84c-8.34,0-12.74-4.4-12.74-12.76q0-67.47,0-134.94c0-7.59,4.62-12.22,12.17-12.24,9.62,0,19.25,0,28.87,0a22,22,0,0,1-10.87-9.74,4.48,4.48,0,0,0-3.33-1.64c-6.3-.16-12.62-.08-18.92-.07-12.48,0-19.38,6.94-19.38,19.49V272.67c0,12.54,6.92,19.52,19.36,19.52H297.23ZM268.93,353c0-2.13,0-4.27,0-6.42,0-7-1.68-8.68-8.56-8.68H94.81c-.82,0-1.66,0-2.49,0-3.91.22-6.08,2.38-6.23,6.33-.1,2.74,0,5.47,0,8.21,0,6.49,1.8,8.33,8.2,8.33h167C266.94,360.75,268.9,358.72,268.93,353ZM135.26,326.26H219.1c-2.72-7.35-5.45-14.72-8.35-22.51H143.48c-1,4-1.73,7.86-3.07,11.51S137.05,322.49,135.26,326.26Zm52.9-102.67c3.84,0,6.47-2.49,6.45-5.72s-2.64-5.53-6.49-5.7c-.6,0-1.19,0-1.79,0q-48.86,0-97.71,0c-1.51,0-3.45-.19-4.46.63-1.58,1.3-3.5,3.36-3.49,5.09s2,3.74,3.54,5.09c.89.76,2.71.59,4.1.6q24.61.06,49.22,0h20C167.72,223.62,177.94,223.67,188.16,223.59ZM147.83,86.47c4.72,0,7.71-3.38,6.52-7.14-1-3.18-3.43-4.31-6.6-4.3-9.62,0-19.24,0-28.86,0-8.67,0-17.33-.05-26,0-4.7,0-7.72,3.39-6.52,7.14,1,3.18,3.43,4.31,6.6,4.3q13.71,0,27.43,0C129.55,86.49,138.7,86.54,147.83,86.47Zm-10.39-23c0-6.26.38-12.34-.1-18.34a17.06,17.06,0,0,0-17.59-15.73,17.28,17.28,0,0,0-16.49,16.94c-.18,5.58,0,11.18,0,17.13Zm-.12,57.17V98.05H103.21v4.16c0,20,.17,40-.1,60a31.28,31.28,0,0,0,3.9,16.27c3.51,6.33,6.5,12.94,9.81,19.39,1.63,3.16,4.91,3.79,6.42,1,3.68-6.72,7-13.66,10.72-21.06h-19V166.39H137.3V154.9h-11V143.55h11V132.07H114.91V120.59Z"/><path class="cls-2" d="M309,315.17h57.1c-.43,9.55,1.51,19.19-2.48,28.4-5.28,12.22-18,18.86-31.5,16.53-12.65-2.19-22.42-13.35-23.07-26.73C308.72,327.44,309,321.5,309,315.17Z"/><path class="cls-2" d="M365.89,292.34v11H309.15v-11Z"/><path class="cls-2" d="M365.82,201V280.6H343.38V201Z"/><path class="cls-2" d="M362.22,189.17H312.83c.46-1.12.76-2,1.17-2.82,6.47-12.95,12.9-25.93,19.51-38.82.76-1.49,2.67-3.53,3.84-3.41,1.54.17,3.39,2,4.2,3.54,6.57,12.77,12.92,25.64,19.34,38.48C361.31,187,361.65,187.86,362.22,189.17Z"/><path class="cls-2" d="M331.72,201v79.49H309.17V201Z"/><path class="cls-2" d="M320.36,106.12c0,13,0,25.95,0,38.92a9.18,9.18,0,0,1-.58,3.79c-3.29,6.85-6.72,13.63-10.12,20.43l-.74-.13v-3.46q0-27.67,0-55.34c0-7.87-4.53-12.4-12.38-12.4q-69.45,0-138.89,0h-3.91c4.86-2.36,8.77-5.53,11.12-10.54.33-.7,2.28-.87,3.47-.87,15.48-.07,30.95-.05,46.43-.05h86C313.52,86.47,320.35,93.33,320.36,106.12Z"/><path class="cls-2" d="M297.25,109.61V246.33H57.69V109.62H91.81v3.65c0,18.81-.07,37.61.07,56.41a18.45,18.45,0,0,0,1.72,7.44c3.14,6.79,6.62,13.42,10,20.11.51,1,1,2.09,1.6,3.54-6.5,0-12.55,0-18.6,0-10.06,0-17.6,7.37-17.6,17.11S76.48,235,86.53,235q51.06,0,102.12,0a17,17,0,0,0,17.41-17.32c-.06-9.53-7.6-16.9-17.44-16.92-17.49,0-35,0-53.17,0,1-2,1.79-3.65,2.59-5.28,3.59-7.24,8.57-14.15,10.37-21.81s.5-16.08.5-24.17c0-13.21,0-26.42,0-39.9ZM285.9,212V201H217.69V212Zm0-22.93V121H194.8v68.07Zm-.09,45.82v-11h-11v11Zm-22.76-.1v-11H217.67v11Z"/><path class="cls-2" d="M297.23,257.88v34.31H54c-12.44,0-19.36-7-19.36-19.52V106c0-12.55,6.9-19.48,19.38-19.49,6.3,0,12.62-.09,18.92.07a4.48,4.48,0,0,1,3.33,1.64,22,22,0,0,0,10.87,9.74c-9.62,0-19.25,0-28.87,0-7.55,0-12.17,4.65-12.17,12.24q0,67.47,0,134.94c0,8.36,4.4,12.76,12.74,12.76H297.23ZM114.34,280.47V269.4H103.47v11.07Zm-22.83,0V269.41H80.68v11.08Zm-22.82.05V269.6h-11v10.94Z"/><path class="cls-3" d="M285.9,201V212H217.69V201Z"/><path class="cls-4" d="M285.88,121v68.07H194.8V121ZM274.4,177.75V132.46H206.25v45.29Z"/><path class="cls-5" d="M285.79,223.91v11h-11v-11Z"/><path class="cls-2" d="M274.4,132.46v45.29H206.25V132.46Zm-8.58,16.27c-1.79-3.58-3.42-6.82-5.14-10.27-6,3-11.76,5.74-17.4,8.76a5.6,5.6,0,0,1-5.9-.06c-5.64-3-11.4-5.76-17.35-8.74l-5.12,10.3,12.47,6.33-12.48,6.31L220,171.65c6.07-3,11.94-5.83,17.7-8.86a5,5,0,0,1,5.24,0c5.76,3,11.64,5.86,17.72,8.87l5.14-10.25-12.42-6.31Z"/><path class="cls-2" d="M268.93,346.55c0,2.15,0,4.29,0,6.42,0,5.75-2,7.78-7.68,7.78h-167c-6.4,0-8.19-1.84-8.2-8.33,0-2.74-.08-5.47,0-8.21.15-4,2.32-6.11,6.23-6.33.83-.05,1.67,0,2.49,0H260.37C267.25,337.87,268.93,339.59,268.93,346.55Z"/><path class="cls-6" d="M263,223.81v11H217.67v-11Z"/><path class="cls-7" d="M260.68,138.46c1.72,3.45,3.35,6.69,5.14,10.27l-12.42,6.32,12.42,6.31-5.14,10.25c-6.08-3-12-5.82-17.72-8.87a5,5,0,0,0-5.24,0c-5.76,3-11.63,5.84-17.7,8.86l-5.12-10.29,12.48-6.31-12.47-6.33,5.12-10.3c5.95,3,11.71,5.75,17.35,8.74a5.6,5.6,0,0,0,5.9.06C248.92,144.2,254.71,141.44,260.68,138.46Z"/><path class="cls-2" d="M219.1,326.26H135.26c1.79-3.77,3.78-7.27,5.15-11s2-7.53,3.07-11.51h67.27C213.65,311.54,216.38,318.91,219.1,326.26Z"/><path class="cls-2" d="M194.61,217.87c0,3.23-2.61,5.7-6.45,5.72-10.22.08-20.44,0-30.66,0h-20q-24.61,0-49.22,0c-1.39,0-3.21.16-4.1-.6-1.57-1.35-3.53-3.35-3.54-5.09s1.91-3.79,3.49-5.09c1-.82,3-.63,4.46-.63q48.87,0,97.71,0c.6,0,1.19,0,1.79,0C192,212.34,194.59,214.64,194.61,217.87Z"/><path class="cls-2" d="M154.35,79.33c1.19,3.76-1.8,7.1-6.52,7.14-9.13.07-18.28,0-27.43,0s-18.29,0-27.43,0c-3.17,0-5.59-1.12-6.6-4.3-1.2-3.75,1.82-7.11,6.52-7.14,8.67-.07,17.33,0,26,0,9.62,0,19.24,0,28.86,0C150.92,75,153.34,76.15,154.35,79.33Z"/><path class="cls-2" d="M137.34,45.08c.48,6,.1,12.08.1,18.34H103.22c0-6-.14-11.55,0-17.13a17.28,17.28,0,0,1,16.49-16.94A17.06,17.06,0,0,1,137.34,45.08Z"/><path class="cls-2" d="M137.32,98.05v22.54H114.91v11.48h22.33v11.48h-11V154.9h11v11.49H114.93v11.43h19c-3.73,7.4-7,14.34-10.72,21.06-1.51,2.74-4.79,2.11-6.42-1-3.31-6.45-6.3-13.06-9.81-19.39a31.28,31.28,0,0,1-3.9-16.27c.27-20,.1-40,.1-60V98.05Z"/><path class="cls-8" d="M114.34,269.4v11.07H103.47V269.4Z"/><path class="cls-9" d="M91.51,269.41v11.08H80.68V269.41Z"/><path class="cls-10" d="M68.69,269.6v10.94h-11V269.6Z"/></svg>