<svg width="14" height="14" viewBox="0 0 14 14" fill="none" xmlns="http://www.w3.org/2000/svg">
<path d="M2.57202 11.5026V3.26746C2.57202 2.57391 2.57202 2.22687 2.70551 1.96197C2.82293 1.72896 3.01016 1.53965 3.24061 1.42092C3.5026 1.28595 3.84582 1.28595 4.53175 1.28595H10.1656C10.5086 1.28595 10.6803 1.28595 10.8113 1.35344C10.9265 1.4128 11.0196 1.50745 11.0783 1.62396C11.1451 1.75641 11.1453 1.92993 11.1453 2.2767V9.58306C11.1453 9.92983 11.1451 10.103 11.0783 10.2354C11.0196 10.3519 10.9267 10.4469 10.8114 10.5063C10.6806 10.5737 10.5091 10.5737 10.1668 10.5737H3.94987C3.18891 10.5737 2.57202 11.1974 2.57202 11.9669C2.57202 12.2233 2.77765 12.4312 3.03131 12.4312H9.55438C9.89668 12.4312 10.0682 12.4312 10.1991 12.3638C10.3143 12.3045 10.4073 12.2095 10.466 12.093C10.5327 11.9606 10.5329 11.7873 10.5329 11.4405V10.5737" stroke="white" stroke-width="1.71466" stroke-linecap="round" stroke-linejoin="round"/>
</svg>
