<svg width="24" height="24" viewBox="0 0 24 24" fill="none" xmlns="http://www.w3.org/2000/svg">
<g id="building">
<path id="Vector" d="M1 21H3.2M3.2 21H14.2M3.2 21V5.57669C3.2 4.32481 3.2 3.6984 3.43979 3.22024C3.65071 2.79965 3.98702 2.45794 4.40098 2.24363C4.87158 2 5.4881 2 6.72021 2H10.6802C11.9123 2 12.5275 2 12.9981 2.24363C13.4121 2.45794 13.7495 2.79965 13.9604 3.22024C14.2 3.69793 14.2 4.32358 14.2 5.57302V12.0588M14.2 21H20.8M14.2 21V12.0588M20.8 21H23M20.8 21V12.0588C20.8 11.0173 20.7999 10.4968 20.6324 10.086C20.4091 9.53831 19.9813 9.1029 19.4422 8.87603C19.0379 8.70588 18.5248 8.70588 17.4997 8.70588C16.4746 8.70588 15.9621 8.70588 15.5578 8.87603C15.0188 9.1029 14.5908 9.53831 14.3675 10.086C14.2 10.4968 14.2 11.0173 14.2 12.0588M6.5 9.82353H10.9M6.5 6.47059H10.9" stroke="white" stroke-width="2" stroke-linecap="round" stroke-linejoin="round"/>
</g>
</svg>
