<svg width="14" height="14" viewBox="0 0 14 14" fill="none" xmlns="http://www.w3.org/2000/svg">
<path d="M0.8573 11.5739H2.05756M2.05756 11.5739H5.65835M2.05756 11.5739V6.64126C2.05756 6.33291 2.05756 6.17865 2.09655 6.03517C2.13111 5.90802 2.18827 5.78769 2.26503 5.67895C2.35165 5.55625 2.47204 5.45451 2.71337 5.25146L5.59495 2.82698C6.04234 2.45056 6.26605 2.26233 6.51799 2.19069C6.74015 2.12752 6.97695 2.12752 7.19911 2.19069C7.45124 2.26239 7.67527 2.45079 8.12334 2.82778L11.004 5.25145C11.2453 5.4545 11.3657 5.55626 11.4524 5.67895C11.5291 5.78769 11.5858 5.90802 11.6204 6.03517C11.6594 6.17865 11.6597 6.33291 11.6597 6.64126V11.5739M5.65835 11.5739H8.05887M5.65835 11.5739V9.26567C5.65835 8.62826 6.19572 8.11154 6.85861 8.11154C7.5215 8.11154 8.05887 8.62826 8.05887 9.26567V11.5739M8.05887 11.5739H11.6597M11.6597 11.5739H12.8599" stroke="white" stroke-width="1.71466" stroke-linecap="round" stroke-linejoin="round"/>
</svg>
