<svg width="24" height="24" viewBox="0 0 24 24" fill="none" xmlns="http://www.w3.org/2000/svg">
<g id="Property 1=Variant3">
<g id="Vector">
<path d="M5 10.9229C5 15.7747 9.24448 19.7869 11.1232 21.3252C11.3921 21.5454 11.5281 21.6568 11.7287 21.7132C11.8849 21.7572 12.1148 21.7572 12.271 21.7132C12.472 21.6567 12.6071 21.5463 12.877 21.3254C14.7557 19.7871 18.9999 15.7751 18.9999 10.9233C18.9999 9.08718 18.2625 7.32605 16.9497 6.02772C15.637 4.72939 13.8566 4 12.0001 4C10.1436 4 8.36301 4.7295 7.05025 6.02783C5.7375 7.32616 5 9.08674 5 10.9229Z" fill="#FF0000"/>
<path d="M5 10.9229C5 15.7747 9.24448 19.7869 11.1232 21.3252C11.3921 21.5454 11.5281 21.6568 11.7287 21.7132C11.8849 21.7572 12.1148 21.7572 12.271 21.7132C12.472 21.6567 12.6071 21.5463 12.877 21.3254C14.7557 19.7871 18.9999 15.7751 18.9999 10.9233C18.9999 9.08718 18.2625 7.32605 16.9497 6.02772C15.637 4.72939 13.8566 4 12.0001 4C10.1436 4 8.36301 4.7295 7.05025 6.02783C5.7375 7.32616 5 9.08674 5 10.9229Z" stroke="#FF0000" stroke-width="2" stroke-linecap="round" stroke-linejoin="round"/>
<path d="M10 10C10 11.1046 10.8954 12 12 12C13.1046 12 14 11.1046 14 10C14 8.89543 13.1046 8 12 8C10.8954 8 10 8.89543 10 10Z" stroke="#FF0000" stroke-width="2" stroke-linecap="round" stroke-linejoin="round"/>
</g>
</g>
</svg>
