<svg width="24" height="24" viewBox="0 0 24 24" fill="none" xmlns="http://www.w3.org/2000/svg">
<g clip-path="url(#clip0_455_151299)">
<path d="M10.0897 13.9104L15.7707 8.22942M21.5821 4.7624L16.7867 20.3473C16.357 21.744 16.1419 22.4427 15.7713 22.6743C15.4498 22.8751 15.0517 22.9087 14.7016 22.7634C14.2978 22.5959 13.9701 21.9416 13.3164 20.6342L10.2791 14.5596C10.1754 14.3521 10.1235 14.2488 10.0542 14.1589C9.99268 14.0791 9.92171 14.0073 9.84194 13.9458C9.75409 13.8781 9.65251 13.8273 9.45429 13.7282L3.36568 10.6839C2.05824 10.0302 1.40446 9.70299 1.23693 9.29924C1.09164 8.94909 1.12477 8.55067 1.32565 8.22917C1.55727 7.85845 2.2559 7.64309 3.65302 7.21321L19.2379 2.41785C20.3363 2.07989 20.8857 1.91105 21.2567 2.04725C21.5799 2.16588 21.8346 2.42039 21.9532 2.74355C22.0894 3.11437 21.9204 3.6635 21.5828 4.76078L21.5821 4.7624Z" stroke="white" stroke-width="2.34455" stroke-linecap="round" stroke-linejoin="round"/>
</g>
<defs>
<clipPath id="clip0_455_151299">
<rect width="24" height="24" fill="white"/>
</clipPath>
</defs>
</svg>
