<svg width="24" height="24" viewBox="0 0 24 24" fill="none" xmlns="http://www.w3.org/2000/svg">
<g id="calendar">
<path id="Vector" d="M7 3.44444H6.00024C4.60011 3.44444 3.89953 3.44444 3.36475 3.71087C2.89434 3.94523 2.51217 4.31891 2.27248 4.77886C2 5.30176 2 5.98678 2 7.35579V8.33333M7 3.44444H17M7 3.44444V1M17 3.44444H18.0002C19.4004 3.44444 20.0995 3.44444 20.6342 3.71087C21.1046 3.94523 21.4881 4.31891 21.7278 4.77886C22 5.30125 22 5.98544 22 7.35178V8.33333M17 3.44444V1M2 8.33333V19.0891C2 20.4581 2 21.1423 2.27248 21.6652C2.51217 22.1251 2.89434 22.4995 3.36475 22.7338C3.899 23 4.59874 23 5.99614 23H18.0039C19.4013 23 20.1 23 20.6342 22.7338C21.1046 22.4995 21.4881 22.1251 21.7278 21.6652C22 21.1428 22 20.4596 22 19.0933V8.33333M2 8.33333H22M17 18.1111H17.0025L17.0024 18.1136L17 18.1135V18.1111ZM12 18.1111H12.0025L12.0024 18.1136L12 18.1135V18.1111ZM7 18.1111H7.0025L7.00244 18.1136L7 18.1135V18.1111ZM17.0024 13.2222V13.2247L17 13.2246V13.2222H17.0024ZM12 13.2222H12.0025L12.0024 13.2247L12 13.2246V13.2222ZM7 13.2222H7.0025L7.00244 13.2247L7 13.2246V13.2222Z" stroke="black" stroke-width="2" stroke-linecap="round" stroke-linejoin="round"/>
</g>
</svg>
