<svg width="24" height="24" viewBox="0 0 24 24" fill="none" xmlns="http://www.w3.org/2000/svg">
<g id="window-chevrons" clip-path="url(#clip0_436_22369)">
<path id="Vector" d="M1 4.5H1.02346M1.02346 4.5H22.9767M1.02346 4.5C1 4.89297 1 5.37739 1 6.00024V18.0002C1 19.4004 1 20.0995 1.26643 20.6342C1.50079 21.1046 1.87447 21.4881 2.33442 21.7278C2.85681 22 3.541 22 4.90737 22L19.0927 22C20.459 22 21.1422 22 21.6646 21.7278C22.1245 21.4881 22.4995 21.1046 22.7338 20.6342C23 20.1 23 19.4012 23 18.0038L23 5.99613C23 5.37526 23 4.8921 22.9767 4.5M1.02346 4.5C1.05273 4.00961 1.11852 3.66163 1.26643 3.36475C1.50079 2.89434 1.87447 2.51217 2.33442 2.27248C2.85731 2 3.54233 2 4.91135 2H19.0891C20.4581 2 21.1417 2 21.6646 2.27248C22.1245 2.51217 22.4995 2.89434 22.7338 3.36475C22.8817 3.66163 22.9475 4.00961 22.9767 4.5M22.9767 4.5H23M14.4444 10.75L16.8889 13.25L14.4444 15.75M9.55555 15.75L7.11111 13.25L9.55556 10.75" stroke="black" stroke-width="2.22222" stroke-linecap="round" stroke-linejoin="round"/>
</g>
<defs>
<clipPath id="clip0_436_22369">
<rect width="24" height="24" fill="white"/>
</clipPath>
</defs>
</svg>
