<svg width="15" height="14" viewBox="0 0 15 14" fill="none" xmlns="http://www.w3.org/2000/svg">
<g clip-path="url(#clip0_563_12597)">
<path d="M10.668 7.73907C10.8418 7.65974 10.918 7.45444 10.8393 7.28031C10.7601 7.10619 10.5554 7.02986 10.3819 7.10869C10.2081 7.18801 10.1319 7.39332 10.2106 7.56744C10.2897 7.74156 10.4944 7.8179 10.668 7.73907Z" fill="white"/>
<path d="M10.2241 8.98638C10.2624 8.79904 10.1414 8.61594 9.95438 8.57802C9.76762 8.5396 9.58509 8.66109 9.54724 8.84843C9.5089 9.03577 9.63016 9.21838 9.81693 9.25679C10.0037 9.29521 10.1862 9.17373 10.2241 8.98638Z" fill="white"/>
<path d="M8.43127 9.84425C8.57221 9.71503 8.58142 9.496 8.45268 9.35531C8.32369 9.21411 8.10531 9.20489 7.96461 9.33411C7.82417 9.46333 7.81446 9.68235 7.94345 9.82329C8.07244 9.96399 8.29082 9.97372 8.43152 9.8445H8.43127V9.84425Z" fill="white"/>
<path d="M6.92292 9.22935C6.90151 9.03926 6.73019 8.90281 6.54094 8.92451C6.35119 8.94621 6.21498 9.11784 6.23664 9.30768C6.2583 9.49752 6.42938 9.63397 6.61888 9.61227C6.80863 9.59057 6.94434 9.41894 6.92317 9.2291L6.92292 9.22935Z" fill="white"/>
<path d="M5.30606 8.39888C5.47216 8.49318 5.68282 8.43456 5.7767 8.26792C5.87058 8.10153 5.81231 7.89024 5.64622 7.79644C5.48012 7.70239 5.26946 7.76077 5.17558 7.92741C5.0817 8.09379 5.13997 8.30509 5.30606 8.39888Z" fill="white"/>
<path d="M5.79114 4.96286C5.75279 5.1502 5.87406 5.3328 6.06057 5.37072C6.24733 5.40914 6.42986 5.28765 6.46821 5.10031C6.50656 4.91296 6.38529 4.73036 6.19853 4.69219C6.01152 4.65428 5.82924 4.77526 5.79139 4.96261L5.79114 4.96286Z" fill="white"/>
<path d="M5.01917 6.48452C4.98082 6.67187 5.10209 6.85447 5.2886 6.89239C5.47536 6.93081 5.65789 6.80932 5.69624 6.62198C5.73459 6.43463 5.61332 6.25203 5.42656 6.21386C5.23955 6.17594 5.05727 6.29693 5.01942 6.48427L5.01917 6.48452Z" fill="white"/>
<path d="M7.40968 4.08001C7.26924 4.20923 7.25953 4.42825 7.38852 4.5692C7.5175 4.70989 7.73589 4.71962 7.87658 4.5904C8.01753 4.46118 8.02674 4.24216 7.898 4.10146C7.76901 3.96027 7.55062 3.95104 7.40993 4.08026H7.40968V4.08001Z" fill="white"/>
<path d="M8.99274 4.81964C9.01441 5.00947 9.18548 5.14618 9.37473 5.12447C9.56423 5.10277 9.70069 4.93114 9.67903 4.74131C9.65736 4.55147 9.48629 4.41501 9.29679 4.43672C9.10729 4.45842 8.97083 4.63005 8.9925 4.81989L8.99274 4.81964Z" fill="white"/>
<path d="M10.6654 5.94693C10.7593 5.78054 10.701 5.56925 10.5349 5.47546C10.3688 5.38141 10.1581 5.43978 10.0643 5.60642C9.97037 5.77281 10.0286 5.9841 10.1947 6.0779C10.3608 6.17194 10.5715 6.11357 10.6654 5.94693Z" fill="white"/>
<path d="M9.2634 10.735C9.4656 10.8503 9.72308 10.779 9.83813 10.5761C9.95317 10.3733 9.8822 10.1154 9.67951 10.0001C9.47731 9.88489 9.21982 9.95624 9.10478 10.159C8.98974 10.3619 9.0607 10.6198 9.26315 10.735H9.2634Z" fill="white"/>
<path d="M7.39607 11.0063C7.60798 10.9097 7.70186 10.6595 7.60574 10.4467C7.50937 10.2342 7.25986 10.1401 7.04745 10.2367C6.83554 10.3332 6.74166 10.5834 6.83778 10.7962C6.9339 11.0087 7.18416 11.1028 7.39607 11.0063Z" fill="white"/>
<path d="M5.16832 9.91533C5.39641 9.96223 5.61928 9.81479 5.6661 9.58604C5.71291 9.35729 5.56599 9.13402 5.33789 9.08737C5.10955 9.04047 4.88693 9.1879 4.84012 9.41666C4.7933 9.64541 4.94022 9.86868 5.16832 9.91558V9.91533Z" fill="white"/>
<path d="M4.60186 7.74729C4.77368 7.58988 4.78588 7.32246 4.62875 7.15008C4.47187 6.97771 4.20493 6.96573 4.03311 7.12314C3.86129 7.28055 3.84909 7.54797 4.00622 7.72035C4.1631 7.89272 4.43004 7.9047 4.60186 7.74729Z" fill="white"/>
<path d="M4.81919 5.63211C5.05052 5.60592 5.21711 5.39662 5.19122 5.16513C5.16507 4.93338 4.9564 4.76649 4.72531 4.79268C4.49398 4.81888 4.32739 5.02817 4.35353 5.25992C4.37968 5.49167 4.58835 5.65856 4.81944 5.63286V5.63236L4.81919 5.63211Z" fill="white"/>
<path d="M6.65203 3.31392C6.44983 3.19867 6.19235 3.27002 6.07731 3.47283C5.96226 3.67564 6.03323 3.93358 6.23593 4.04883C6.43813 4.16408 6.69561 4.09273 6.81065 3.88992C6.9257 3.68711 6.85473 3.42917 6.65228 3.31392H6.65203Z" fill="white"/>
<path d="M8.51936 3.04276C8.30744 3.1393 8.21332 3.39001 8.30969 3.6023C8.40605 3.81459 8.65606 3.90888 8.86798 3.81234C9.07989 3.7158 9.17376 3.4656 9.07765 3.25281C8.98128 3.04027 8.73176 2.94622 8.51936 3.04276Z" fill="white"/>
<path d="M10.7469 4.13364C10.5191 4.08674 10.296 4.23417 10.2492 4.46292C10.2023 4.69168 10.3495 4.91494 10.5774 4.96184C10.8052 5.00874 11.0283 4.86131 11.0751 4.63256C11.122 4.4038 10.975 4.18054 10.7469 4.13389V4.13364Z" fill="white"/>
<path d="M11.8823 6.92557C12.0542 6.76816 12.0664 6.50074 11.9092 6.32861C11.7524 6.15623 11.4854 6.14426 11.3136 6.30167C11.1415 6.45933 11.1296 6.7265 11.2867 6.89887C11.4436 7.07125 11.7105 7.08322 11.8823 6.92582V6.92557Z" fill="white"/>
<path d="M11.1902 9.25675C11.4218 9.23056 11.5882 9.02126 11.562 8.78952C11.5359 8.55777 11.3277 8.39088 11.0961 8.41707C10.865 8.44327 10.6982 8.65256 10.7241 8.88406C10.75 9.11606 10.9589 9.2827 11.19 9.257H11.1905L11.1902 9.25675Z" fill="white"/>
<path d="M10.2278 3.62122C10.5112 3.58904 10.7152 3.3321 10.6828 3.04771C10.6504 2.76358 10.3944 2.55927 10.1108 2.5917C9.82717 2.62413 9.62348 2.88082 9.65585 3.16521C9.68822 3.44934 9.94421 3.65365 10.2278 3.62122Z" fill="white"/>
<path d="M12.8286 7.70588C12.7103 7.44569 12.404 7.33094 12.144 7.44968C11.8845 7.56843 11.77 7.87526 11.888 8.13595C12.0063 8.39638 12.3131 8.51088 12.5726 8.39214C12.832 8.2734 12.9468 7.96606 12.8286 7.70588Z" fill="white"/>
<path d="M11.0947 9.83425C10.8151 9.77712 10.5424 9.95848 10.4854 10.2389C10.4283 10.5193 10.6089 10.7924 10.8885 10.8495C11.1682 10.9067 11.4408 10.7253 11.4979 10.4454C11.5551 10.165 11.3741 9.89137 11.0947 9.83475V9.83425Z" fill="white"/>
<path d="M8.81539 11.8779C9.02581 11.6845 9.04 11.357 8.84752 11.1462C8.65478 10.9354 8.32782 10.9212 8.11741 11.1145C7.90699 11.3079 7.89279 11.6354 8.08578 11.8464C8.27852 12.0572 8.60547 12.0715 8.81589 11.8781H8.81564L8.81539 11.8779Z" fill="white"/>
<path d="M5.68831 10.4272C5.40468 10.4597 5.20099 10.7164 5.23336 11.0007C5.26573 11.2849 5.52172 11.4892 5.80535 11.4567C6.08898 11.4243 6.29267 11.1676 6.2603 10.8832C6.22792 10.5991 5.97169 10.395 5.68831 10.4272Z" fill="white"/>
<path d="M4.32194 9.14652C4.46239 8.89756 4.37498 8.58149 4.12647 8.44055C3.87795 8.2996 3.56295 8.38766 3.42226 8.63662C3.28156 8.88558 3.36922 9.20165 3.61723 9.34234C3.86575 9.48329 4.18075 9.39523 4.32145 9.14627H4.3217L4.32194 9.14652Z" fill="white"/>
<path d="M4.02837 5.91303C3.91008 5.65285 3.6033 5.5381 3.34383 5.65684C3.08435 5.77558 2.96956 6.08291 3.08784 6.34335C3.20612 6.60353 3.51291 6.71829 3.77263 6.59979C4.0321 6.48105 4.1469 6.17372 4.02861 5.91328H4.02837V5.91303Z" fill="white"/>
<path d="M4.82175 4.21447C5.10139 4.2716 5.37406 4.09024 5.43109 3.80985C5.48811 3.52946 5.30733 3.25605 5.02768 3.19918C4.74804 3.14205 4.47537 3.32341 4.41835 3.6038C4.36132 3.88419 4.54211 4.1576 4.82175 4.21447Z" fill="white"/>
<path d="M7.10093 2.17086C6.89051 2.36419 6.87631 2.69173 7.0693 2.90277C7.26204 3.11357 7.58899 3.12779 7.79941 2.93446C8.00983 2.74113 8.02402 2.41359 7.83104 2.20254C7.63805 1.99175 7.31134 1.97753 7.10093 2.17086Z" fill="white"/>
<path d="M11.5947 4.90224C11.454 5.1512 11.5417 5.46726 11.7902 5.60821C12.0387 5.7489 12.3542 5.66134 12.4944 5.41213C12.6351 5.16317 12.5475 4.84711 12.2989 4.70616C12.0504 4.56522 11.7352 4.65278 11.5947 4.90199V4.90224Z" fill="white"/>
<path d="M10.518 11.4471C10.2171 11.2757 9.83466 11.3814 9.66384 11.683C9.49276 11.9846 9.59834 12.3681 9.89915 12.5394C10.2 12.7103 10.5824 12.6045 10.7533 12.3034C10.9238 12.0019 10.8188 11.6184 10.518 11.4476V11.4471Z" fill="white"/>
<path d="M6.60593 11.7985C6.29068 11.9417 6.15123 12.3139 6.29416 12.63C6.4371 12.9455 6.80838 13.0852 7.12363 12.942C7.43863 12.7989 7.57833 12.4267 7.43515 12.1106C7.29196 11.795 6.92068 11.6551 6.60568 11.7985H6.60593Z" fill="white"/>
<path d="M4.06471 10.0902C3.72581 10.0206 3.39462 10.2397 3.32514 10.5794C3.25567 10.9192 3.47405 11.251 3.81296 11.3206C4.15187 11.3902 4.48306 11.1711 4.55253 10.8314C4.62201 10.4916 4.40362 10.1598 4.06471 10.09V10.0902Z" fill="white"/>
<path d="M2.97078 8.09854C3.22652 7.86455 3.24445 7.46716 3.01087 7.21147C2.7773 6.95527 2.38112 6.93731 2.12563 7.17155C1.87014 7.4053 1.85221 7.80244 2.08554 8.05863C2.31861 8.31483 2.71504 8.33254 2.97078 8.09854Z" fill="white"/>
<path d="M3.15439 3.70828C2.8105 3.74719 2.56323 4.05777 2.60158 4.40227C2.64042 4.74702 2.9502 4.99474 3.29433 4.95632C3.63822 4.9174 3.88574 4.60683 3.8469 4.26207C3.80855 3.91757 3.49828 3.66961 3.15464 3.70803L3.15439 3.70828Z" fill="white"/>
<path d="M5.39952 2.60347C5.70033 2.77485 6.08282 2.66908 6.25364 2.36748C6.42471 2.06589 6.31913 1.68247 6.01832 1.51159C5.71751 1.34071 5.33503 1.44598 5.1642 1.74758C4.99313 2.04917 5.09871 2.43259 5.39952 2.60347Z" fill="white"/>
<path d="M9.31115 2.25199C9.62616 2.1083 9.76585 1.7361 9.62292 1.42054C9.47974 1.10447 9.10846 0.964777 8.79345 1.10847C8.4782 1.2519 8.33875 1.62435 8.48194 1.93991C8.62462 2.25573 8.99615 2.39567 9.3114 2.25199H9.31115Z" fill="white"/>
<path d="M11.3647 3.21888C11.2952 3.55865 11.5136 3.89043 11.8525 3.96028C12.1914 4.02988 12.5226 3.81085 12.5921 3.47109C12.6616 3.13132 12.4432 2.79954 12.1043 2.7297C11.7654 2.6601 11.4342 2.87912 11.3647 3.21888Z" fill="white"/>
<path d="M12.9463 5.95192C12.6908 6.18566 12.6732 6.58305 12.9062 6.83899C13.1398 7.09494 13.5362 7.11265 13.7915 6.87891C14.047 6.64516 14.0649 6.24778 13.8316 5.99158C13.5985 5.73539 13.2021 5.71768 12.9463 5.95167V5.95192Z" fill="white"/>
<path d="M12.7625 10.3434C13.1064 10.3045 13.3539 9.99345 13.3153 9.64894C13.2765 9.30419 12.9667 9.05648 12.6228 9.09539C12.2789 9.13431 12.0314 9.44514 12.07 9.78989C12.1089 10.1346 12.4186 10.3824 12.7625 10.3434Z" fill="white"/>
</g>
<defs>
<clipPath id="clip0_563_12597">
<rect width="12.0737" height="11.9466" fill="white" transform="translate(1.92175 1.05182)"/>
</clipPath>
</defs>
</svg>
