<svg width="361" height="74" viewBox="0 0 361 74" fill="none" xmlns="http://www.w3.org/2000/svg">
<path d="M296.066 55.8558C290.982 55.8558 287.031 54.5942 284.21 52.071C281.39 49.5107 279.98 46.0413 279.98 41.6628C279.98 37.2843 281.39 33.8334 284.21 31.3102C287.031 28.7499 290.982 27.4697 296.066 27.4697C301.149 27.4697 305.101 28.7499 307.921 31.3102C310.778 33.8334 312.207 37.2843 312.207 41.6628C312.207 46.0413 310.778 49.5107 307.921 52.071C305.101 54.5942 301.149 55.8558 296.066 55.8558ZM296.066 47.8966C299.331 47.8966 300.964 45.8186 300.964 41.6628C300.964 37.5811 299.331 35.5403 296.066 35.5403C292.8 35.5403 291.168 37.5811 291.168 41.6628C291.168 43.7407 291.595 45.2992 292.448 46.3381C293.301 47.3771 294.507 47.8966 296.066 47.8966Z" fill="black"/>
<path d="M318.946 55.1686C317.87 55.1686 317.11 54.946 316.664 54.5007C316.219 54.0555 315.997 53.3504 315.997 52.3857V30.1777C315.997 29.5098 316.108 29.0646 316.33 28.8419C316.59 28.5822 317.11 28.4523 317.889 28.4523H323.177C323.622 28.4523 323.956 28.5265 324.178 28.675C324.438 28.7863 324.587 29.0089 324.624 29.3429L324.902 31.0683C325.941 29.9922 327.11 29.1573 328.408 28.5636C329.707 27.9328 331.229 27.6174 332.973 27.6174C334.531 27.6174 335.867 27.8957 336.98 28.4523C338.093 29.0089 339.039 29.8623 339.819 31.0126C340.82 29.9366 341.971 29.1017 343.269 28.508C344.605 27.9143 346.201 27.6174 348.056 27.6174C350.913 27.6174 353.14 28.4523 354.735 30.1221C356.331 31.7548 357.129 34.2409 357.129 37.5804V52.3857C357.129 53.3504 356.906 54.0555 356.461 54.5007C356.015 54.946 355.255 55.1686 354.179 55.1686H349.67C348.594 55.1686 347.833 54.946 347.388 54.5007C346.943 54.0555 346.72 53.3504 346.72 52.3857V38.304C346.72 37.2279 346.516 36.4487 346.108 35.9663C345.737 35.4839 345.162 35.2427 344.383 35.2427C343.492 35.2427 342.787 35.5396 342.268 36.1333C341.785 36.6899 341.544 37.4876 341.544 38.5266V52.3857C341.544 53.3504 341.321 54.0555 340.876 54.5007C340.431 54.946 339.67 55.1686 338.594 55.1686H334.531C333.455 55.1686 332.694 54.946 332.249 54.5007C331.804 54.0555 331.581 53.3504 331.581 52.3857V38.1926C331.581 36.226 330.82 35.2427 329.299 35.2427C328.371 35.2427 327.648 35.5396 327.128 36.1333C326.609 36.727 326.349 37.5433 326.349 38.5823V52.3857C326.349 53.3504 326.126 54.0555 325.681 54.5007C325.273 54.946 324.531 55.1686 323.455 55.1686H318.946Z" fill="black"/>
<path d="M76.0097 55.1686C74.9337 55.1686 74.173 54.946 73.7277 54.5007C73.2825 54.0555 73.0598 53.3504 73.0598 52.3857V30.1777C73.0598 29.5098 73.1711 29.0646 73.3938 28.8419C73.6535 28.5822 74.173 28.4523 74.9522 28.4523H80.2398C80.6851 28.4523 81.0191 28.5265 81.2417 28.675C81.5014 28.7863 81.6499 29.0089 81.687 29.3429L81.9653 31.0683C83.0042 29.9922 84.1731 29.1573 85.4718 28.5636C86.7705 27.9328 88.2918 27.6174 90.0358 27.6174C91.5943 27.6174 92.9301 27.8957 94.0433 28.4523C95.1564 29.0089 96.1026 29.8623 96.8819 31.0126C97.8837 29.9366 99.034 29.1017 100.333 28.508C101.669 27.9143 103.264 27.6174 105.119 27.6174C107.977 27.6174 110.203 28.4523 111.798 30.1221C113.394 31.7548 114.192 34.2409 114.192 37.5804V52.3857C114.192 53.3504 113.969 54.0555 113.524 54.5007C113.079 54.946 112.318 55.1686 111.242 55.1686H106.734C105.657 55.1686 104.897 54.946 104.451 54.5007C104.006 54.0555 103.784 53.3504 103.784 52.3857V38.304C103.784 37.2279 103.58 36.4487 103.171 35.9663C102.8 35.4839 102.225 35.2427 101.446 35.2427C100.555 35.2427 99.8504 35.5396 99.3309 36.1333C98.8485 36.6899 98.6073 37.4876 98.6073 38.5266V52.3857C98.6073 53.3504 98.3847 54.0555 97.9394 54.5007C97.4941 54.946 96.7334 55.1686 95.6574 55.1686H91.5943C90.5182 55.1686 89.7575 54.946 89.3122 54.5007C88.867 54.0555 88.6443 53.3504 88.6443 52.3857V38.1926C88.6443 36.226 87.8837 35.2427 86.3623 35.2427C85.4347 35.2427 84.7111 35.5396 84.1916 36.1333C83.6721 36.727 83.4124 37.5433 83.4124 38.5823V52.3857C83.4124 53.3504 83.1898 54.0555 82.7445 54.5007C82.3363 54.946 81.5942 55.1686 80.5181 55.1686H76.0097Z" fill="black"/>
<path d="M129.926 56.0033C126.698 56.0033 124.175 55.1684 122.356 53.4987C120.575 51.7918 119.685 49.1944 119.685 45.7064V31.2907C119.685 30.326 119.907 29.621 120.353 29.1757C120.798 28.6933 121.54 28.4521 122.579 28.4521H127.978C129.054 28.4521 129.815 28.6933 130.26 29.1757C130.705 29.621 130.928 30.326 130.928 31.2907V45.2611C130.928 47.3762 131.948 48.4337 133.989 48.4337C135.102 48.4337 135.956 48.1369 136.549 47.5432C137.143 46.9495 137.44 46.1146 137.44 45.0385V31.2907C137.44 30.326 137.663 29.621 138.108 29.1757C138.553 28.6933 139.314 28.4521 140.39 28.4521H145.789C146.865 28.4521 147.626 28.6933 148.071 29.1757C148.516 29.621 148.739 30.326 148.739 31.2907V53.443C148.739 54.148 148.609 54.6119 148.349 54.8345C148.127 55.0571 147.626 55.1684 146.846 55.1684H141.114C140.668 55.1684 140.316 55.1128 140.056 55.0015C139.833 54.8902 139.704 54.6675 139.666 54.3336L139.388 52.6081C138.312 53.6471 136.976 54.482 135.381 55.1128C133.785 55.7065 131.967 56.0033 129.926 56.0033Z" fill="black"/>
<path d="M167.568 56.0035C162.336 56.0035 158.013 55.0388 154.6 53.1093C153.894 52.664 153.542 52.2744 153.542 51.9404C153.542 51.7549 153.635 51.4766 153.82 51.1055L156.158 46.9311C156.381 46.4858 156.659 46.2632 156.993 46.2632C157.215 46.2632 157.531 46.3745 157.939 46.5972C158.978 47.1537 160.295 47.6732 161.891 48.1556C163.524 48.6009 164.971 48.8235 166.232 48.8235C167.42 48.8235 168.273 48.7122 168.793 48.4896C169.312 48.2298 169.572 47.8217 169.572 47.2651C169.572 46.7456 169.201 46.3189 168.459 45.9849C167.754 45.6138 166.455 45.15 164.562 44.5934L163.338 44.2595C160.258 43.3318 158.032 42.2743 156.659 41.0869C155.286 39.8995 154.6 38.2112 154.6 36.0219C154.6 33.3132 155.768 31.2353 158.106 29.7881C160.444 28.341 163.579 27.6174 167.512 27.6174C169.961 27.6174 172.095 27.8401 173.913 28.2853C175.731 28.7306 177.475 29.3985 179.145 30.2891C179.813 30.6601 180.147 31.0683 180.147 31.5136C180.147 31.7733 180.036 32.1073 179.813 32.5154L177.531 36.1333C177.271 36.5414 177.012 36.7455 176.752 36.7455C176.529 36.7455 176.232 36.6342 175.861 36.4116C174.971 35.9292 173.932 35.5396 172.744 35.2427C171.557 34.9459 170.407 34.7974 169.293 34.7974C166.733 34.7974 165.453 35.354 165.453 36.4672C165.453 36.9867 165.861 37.432 166.678 37.803C167.531 38.137 168.83 38.508 170.574 38.9162C170.982 39.0275 171.538 39.176 172.243 39.3615C172.986 39.547 173.598 39.7325 174.08 39.9181C175.861 40.5489 177.234 41.1982 178.199 41.8661C179.164 42.4969 179.85 43.2576 180.258 44.1482C180.666 45.0016 180.871 46.0962 180.871 47.432C180.871 49.0276 180.388 50.4747 179.423 51.7734C178.459 53.035 176.974 54.0555 174.971 54.8347C172.967 55.6139 170.499 56.0035 167.568 56.0035Z" fill="black"/>
<path d="M188.472 55.1685C187.396 55.1685 186.635 54.9458 186.19 54.5006C185.744 54.0553 185.522 53.3503 185.522 52.3855V19.0458C185.522 18.3779 185.633 17.9326 185.856 17.71C186.116 17.4502 186.635 17.3203 187.414 17.3203H193.37C194.149 17.3203 194.65 17.4502 194.873 17.71C195.132 17.9326 195.262 18.3779 195.262 19.0458V30.7342C196.375 29.7694 197.711 29.0087 199.27 28.4521C200.865 27.8956 202.646 27.6173 204.613 27.6173C207.618 27.6173 210.049 28.4707 211.904 30.1776C213.76 31.8473 214.687 34.3334 214.687 37.6359V52.3855C214.687 53.3503 214.465 54.0553 214.019 54.5006C213.611 54.9458 212.869 55.1685 211.793 55.1685H206.394C205.318 55.1685 204.539 54.9458 204.056 54.5006C203.611 54.0553 203.388 53.3503 203.388 52.3855V38.3594C203.388 37.2463 203.147 36.4485 202.665 35.9661C202.22 35.4837 201.496 35.2425 200.494 35.2425C199.381 35.2425 198.472 35.5394 197.767 36.1331C197.099 36.7268 196.765 37.5431 196.765 38.5821V52.3855C196.765 53.3503 196.542 54.0553 196.097 54.5006C195.689 54.9458 194.947 55.1685 193.871 55.1685H188.472Z" fill="black"/>
<path d="M222.688 55.1686C221.611 55.1686 220.851 54.946 220.406 54.5007C219.96 54.0555 219.738 53.3504 219.738 52.3857V30.1777C219.738 29.5098 219.849 29.0646 220.072 28.8419C220.331 28.5822 220.851 28.4523 221.63 28.4523H227.363C227.808 28.4523 228.142 28.5265 228.365 28.675C228.624 28.7863 228.773 29.0089 228.81 29.3429L229.088 30.957C231.315 28.7306 234.005 27.6174 237.159 27.6174C238.383 27.6174 239.385 27.7288 240.164 27.9514C240.944 28.1369 241.649 28.4523 242.28 28.8976C242.651 29.1573 242.836 29.4542 242.836 29.7881C242.836 29.8995 242.799 30.1035 242.725 30.4004L240.944 35.4654C240.795 35.9848 240.517 36.2446 240.109 36.2446C239.923 36.2446 239.701 36.1704 239.441 36.0219C238.439 35.4654 237.233 35.1871 235.823 35.1871C234.413 35.1871 233.244 35.5767 232.317 36.3559C231.426 37.1351 230.981 38.1741 230.981 39.4728V52.3857C230.981 53.3504 230.758 54.0555 230.313 54.5007C229.905 54.946 229.163 55.1686 228.086 55.1686H222.688Z" fill="black"/>
<path d="M259.925 56.0035C254.842 56.0035 250.89 54.7419 248.07 52.2187C245.25 49.6584 243.84 46.189 243.84 41.8105C243.84 37.432 245.25 33.9811 248.07 31.4579C250.89 28.8976 254.842 27.6174 259.925 27.6174C265.009 27.6174 268.961 28.8976 271.781 31.4579C274.638 33.9811 276.066 37.432 276.066 41.8105C276.066 46.189 274.638 49.6584 271.781 52.2187C268.961 54.7419 265.009 56.0035 259.925 56.0035ZM259.925 48.0443C263.191 48.0443 264.823 45.9664 264.823 41.8105C264.823 37.7288 263.191 35.688 259.925 35.688C256.66 35.688 255.027 37.7288 255.027 41.8105C255.027 43.8884 255.454 45.4469 256.307 46.4858C257.161 47.5248 258.367 48.0443 259.925 48.0443Z" fill="black"/>
<g clip-path="url(#clip0_396_9479)">
<path d="M61.7114 31.2294C61.4298 28.15 60.4626 25.1081 58.8323 22.1663C57.364 19.5218 55.7113 17.6297 54.8563 16.7374C53.1886 14.9927 51.3888 13.6155 49.5367 12.5282C44.3791 9.50137 38.8227 8.75403 34.5825 8.75403C30.3422 8.75403 26.977 9.53637 26.3663 9.69133C25.3168 9.95878 21.5851 11.0311 17.5194 13.5505C15.0864 15.0602 12.9326 16.8349 11.1154 18.8244C8.85693 21.3039 7.11198 24.1283 5.9329 27.2202C5.53904 28.2525 4.61671 30.6695 4.18795 33.7588C3.63704 37.723 4.0658 41.4398 5.46176 44.8041C7.18677 48.9607 10.3601 52.465 14.6876 55.0144C13.6481 53.0748 13.1445 50.9078 13.0174 48.8107C11.3048 47.1861 9.99614 45.3215 9.1436 43.2694C8.02684 40.5724 7.68782 37.5581 8.13901 34.3112C8.50545 31.6768 9.31311 29.5547 9.65961 28.6474C10.6567 26.0279 12.1374 23.6309 14.0569 21.5264C15.6298 19.8042 17.4994 18.2646 19.6158 16.9523C23.2951 14.6728 26.7053 13.7305 27.3484 13.568C27.8819 13.4306 30.7411 12.7532 34.5825 12.7532C37.9751 12.7532 42.9757 13.3131 47.525 15.98C49.1578 16.9398 50.6559 18.1246 51.9796 19.5093C52.7 20.2591 54.0935 21.8563 55.3449 24.1083C56.7034 26.5603 57.5086 29.0773 57.7404 31.6043C57.7928 32.1517 57.8177 32.7116 57.8127 33.2665C57.7953 35.8334 57.1621 38.3829 55.9307 40.8449C55.5942 41.5147 55.2177 42.1746 54.799 42.8195C54.8114 43.0169 54.8239 43.2019 54.8363 43.3669C55.0208 46.0463 54.6569 48.2533 54.2854 49.713C56.4766 47.5435 58.2265 45.169 59.4929 42.6395C61.0035 39.6251 61.7812 36.4808 61.8012 33.2914C61.8062 32.6016 61.7763 31.9142 61.7114 31.2294Z" fill="black"/>
<path d="M61.3048 31.149C60.3758 31.7271 59.3085 32.1233 58.1611 32.3327C55.391 32.841 52.1381 32.2604 49.1545 30.4912C43.522 27.1521 40.9823 20.8402 43.4808 16.3947C43.9878 15.4926 44.6621 14.7376 45.465 14.1321C46.5881 13.2873 47.9562 12.7416 49.4601 12.5049C51.2624 13.5864 53.0114 14.9619 54.6342 16.7012C55.4662 17.5908 57.0744 19.4771 58.5031 22.1135C60.0895 25.0489 61.0307 28.0815 61.3072 31.149H61.3048Z" fill="black"/>
<path fill-rule="evenodd" clip-rule="evenodd" d="M49.7313 49.3865C49.4605 50.2049 48.9717 51.631 47.7833 53.1248C46.8656 54.2785 45.7245 55.099 45.2184 55.4629L45.1635 55.5025C45.0306 55.5979 44.7047 55.8288 44.2735 56.0975C44.2735 56.0975 41.9068 57.5637 38.0811 58.5379C37.4749 58.6907 36.9045 58.8076 36.6942 58.8507C36.6558 58.8586 36.6293 58.864 36.6169 58.8668C36.1306 58.9622 35.6392 59.0425 35.1403 59.1103C33.1347 62.0227 31.1992 63.2102 29.9031 63.6923C29.7276 63.7575 29.507 63.8203 29.507 63.8203C29.3967 63.8529 29.2412 63.8981 29.0707 63.9358C28.9454 63.9634 28.7774 63.9961 28.5568 64.0111C28.3725 64.0218 28.2231 64.0142 28.1444 64.0102L28.1105 64.0086C27.8774 63.9885 27.7019 63.9458 27.6342 63.9283L27.6298 63.9271C27.3589 63.8561 26.7123 63.6867 26.3832 63.1324C26.3269 63.0404 26.2983 62.9624 26.2701 62.8853L26.2701 62.8853C26.2644 62.8697 26.2587 62.8542 26.2528 62.8386C26.0914 62.3747 26.1374 61.9961 26.2094 61.4028L26.2252 61.272C26.3707 60.0593 26.3481 59.7806 26.328 59.6225C26.2954 59.3513 26.2428 59.1454 26.1927 58.9948C26.1551 58.8793 26.12 58.7939 26.0924 58.7412C25.8993 58.337 25.6436 58.0809 25.5208 57.9629C25.4581 57.9001 25.255 57.7093 24.899 57.4959C24.7381 57.4002 24.6673 57.3744 24.3654 57.2646C24.1924 57.2016 23.9433 57.111 23.5578 56.9637C23.1961 56.8253 22.8732 56.7009 22.6409 56.6113C22.4433 56.5352 22.3112 56.4843 22.2767 56.4716C21.0722 55.9986 20.1423 55.0235 19.6942 54.5536L19.6292 54.4856C16.5456 51.2469 17.0545 45.4874 18.1701 43.1022C18.5813 42.226 19.1504 41.4251 19.1504 41.4251C19.7746 40.5539 20.449 39.9011 21.0808 39.3563C23.1942 37.5336 28.6746 33.7249 36.8827 33.76C40.6107 33.7776 46.234 33.8128 48.7485 37.5085C50.0955 39.487 50.2835 42.1316 50.3891 43.6172L50.3906 43.6395C50.6012 46.6649 49.9043 48.8617 49.7313 49.3839V49.3865ZM32.6309 48.7631C34.2693 48.7631 35.5974 46.804 35.5974 44.3872C35.5974 41.9704 34.2693 40.0112 32.6309 40.0112C30.9926 40.0112 29.6644 41.9704 29.6644 44.3872C29.6644 46.804 30.9926 48.7631 32.6309 48.7631ZM46.7213 43.8871C46.7213 46.3039 45.3931 48.2631 43.7548 48.2631C42.1164 48.2631 40.7883 46.3039 40.7883 43.8871C40.7883 41.4703 42.1164 39.5111 43.7548 39.5111C45.3931 39.5111 46.7213 41.4703 46.7213 43.8871Z" fill="black"/>
<path d="M14.7083 32.5095C16.6879 32.5095 18.2928 34.3013 18.2928 36.5104C18.2928 38.7195 16.6879 40.5113 14.7083 40.5113C12.7287 40.5113 11.1238 38.7195 11.1238 36.5104C11.1238 34.3013 12.7287 32.5095 14.7083 32.5095Z" fill="black"/>
<path d="M29.7653 32.3216C34.9532 31.1087 38.376 26.7465 37.4105 22.5782C36.445 18.4099 31.4567 16.0141 26.2688 17.2269C21.081 18.4397 17.6581 22.802 18.6236 26.9703C19.5891 31.1385 24.5774 33.5344 29.7653 32.3216Z" fill="black"/>
</g>
<defs>
<clipPath id="clip0_396_9479">
<rect width="65.757" height="63.7644" fill="white" transform="translate(0 4.75311)"/>
</clipPath>
</defs>
</svg>
