<svg width="15" height="14" viewBox="0 0 15 14" fill="none" xmlns="http://www.w3.org/2000/svg">
<g clip-path="url(#clip0_563_12586)">
<path d="M14.0863 5.82982C14.0255 5.16323 13.8165 4.50476 13.4644 3.86793C13.1473 3.29549 12.7903 2.88591 12.6056 2.69275C12.2454 2.31509 11.8567 2.01696 11.4566 1.7816C10.3426 1.12638 9.14247 0.9646 8.2266 0.9646C7.31074 0.9646 6.58387 1.13395 6.45195 1.1675C6.22527 1.22539 5.41925 1.45751 4.54108 2.0029C4.01557 2.3297 3.55037 2.71385 3.15786 3.14453C2.67005 3.68127 2.29315 4.29266 2.03847 4.96196C1.9534 5.18541 1.75418 5.70862 1.66157 6.37737C1.54258 7.23549 1.63519 8.04005 1.93671 8.76832C2.3093 9.6681 2.99472 10.4267 3.92942 10.9786C3.7049 10.5587 3.59614 10.0896 3.56868 9.63564C3.19878 9.28395 2.91611 8.88032 2.73196 8.43611C2.49075 7.8523 2.41752 7.19978 2.51498 6.49695C2.59413 5.92667 2.76858 5.46731 2.84342 5.2709C3.05879 4.70387 3.37861 4.18499 3.7932 3.72942C4.13295 3.35663 4.53677 3.02334 4.99389 2.73928C5.78861 2.24583 6.52518 2.04185 6.66409 2.00668C6.77931 1.97692 7.39689 1.8303 8.2266 1.8303C8.9594 1.8303 10.0395 1.95149 11.0221 2.52881C11.3748 2.73657 11.6984 2.99304 11.9843 3.29278C12.1399 3.4551 12.4409 3.80084 12.7112 4.28834C13.0046 4.81912 13.1785 5.36397 13.2286 5.91098C13.2399 6.02947 13.2453 6.15067 13.2442 6.27078C13.2404 6.82645 13.1037 7.37833 12.8377 7.91128C12.765 8.05628 12.6837 8.19912 12.5932 8.33872C12.5959 8.38146 12.5986 8.4215 12.6013 8.45721C12.6412 9.03723 12.5625 9.51498 12.4823 9.83096C12.9556 9.36132 13.3336 8.84732 13.6071 8.29976C13.9334 7.64724 14.1014 6.96659 14.1057 6.27619C14.1068 6.12686 14.1003 5.97807 14.0863 5.82982Z" fill="white"/>
<path d="M13.9985 5.81243C13.7979 5.93758 13.5673 6.02334 13.3195 6.06865C12.7212 6.17869 12.0186 6.05301 11.3742 5.67003C10.1576 4.94721 9.60902 3.58088 10.1487 2.61857C10.2582 2.42331 10.4038 2.25986 10.5772 2.12879C10.8198 1.94593 11.1153 1.82779 11.4402 1.77655C11.8295 2.01066 12.2072 2.30841 12.5577 2.68492C12.7374 2.87749 13.0848 3.28583 13.3934 3.85652C13.7361 4.49195 13.9393 5.14842 13.9991 5.81243H13.9985Z" fill="white"/>
<path fill-rule="evenodd" clip-rule="evenodd" d="M11.4988 9.76025C11.4403 9.93743 11.3347 10.2461 11.0781 10.5695C10.8798 10.8192 10.6334 10.9968 10.5241 11.0756L10.5122 11.0842C10.4835 11.1048 10.4131 11.1548 10.3199 11.213C10.3199 11.213 9.80876 11.5304 8.98242 11.7412C8.85151 11.7743 8.72833 11.7996 8.68289 11.809L8.68287 11.809L8.66618 11.8124C8.56113 11.8331 8.455 11.8505 8.34724 11.8652C7.91403 12.4956 7.49599 12.7527 7.21603 12.857C7.17813 12.8712 7.13047 12.8847 7.13047 12.8847C7.10665 12.8918 7.07307 12.9016 7.03625 12.9097C7.00918 12.9157 6.9729 12.9228 6.92524 12.926C6.88545 12.9284 6.85317 12.9267 6.83617 12.9258H6.83617L6.82886 12.9255C6.7785 12.9212 6.74059 12.9119 6.72597 12.9081L6.72502 12.9079C6.6665 12.8925 6.52685 12.8558 6.45576 12.7358C6.44359 12.7159 6.43742 12.699 6.43133 12.6823L6.4276 12.6722C6.39273 12.5718 6.40266 12.4898 6.41823 12.3614L6.42164 12.3331C6.45305 12.0706 6.44818 12.0103 6.44384 11.976C6.43681 11.9173 6.42543 11.8728 6.4146 11.8402C6.40648 11.8152 6.3989 11.7967 6.39294 11.7853C6.35125 11.6978 6.29601 11.6423 6.26948 11.6168C6.25594 11.6032 6.21208 11.5619 6.13519 11.5157C6.10043 11.495 6.08513 11.4894 6.01994 11.4656C5.98255 11.452 5.92876 11.4324 5.84548 11.4005C5.76738 11.3705 5.69766 11.3436 5.64749 11.3242L5.6474 11.3242L5.64738 11.3242C5.60473 11.3077 5.57623 11.2967 5.56877 11.294C5.30862 11.1916 5.10776 10.9805 5.01097 10.8788L5.01097 10.8788L4.99694 10.8641C4.33089 10.163 4.44081 8.91622 4.68178 8.39992C4.77059 8.21024 4.89351 8.03687 4.89351 8.03687C5.02835 7.84828 5.17401 7.70697 5.31047 7.58904C5.76696 7.19447 6.95069 6.37001 8.72358 6.37762C9.5288 6.38142 10.7434 6.38903 11.2865 7.18904C11.5775 7.61732 11.6181 8.1898 11.6409 8.51138L11.6412 8.51622C11.6867 9.17112 11.5362 9.64667 11.4988 9.75971V9.76025ZM7.80523 9.62533C8.1591 9.62533 8.44597 9.20123 8.44597 8.67807C8.44597 8.15491 8.1591 7.7308 7.80523 7.7308C7.45136 7.7308 7.16449 8.15491 7.16449 8.67807C7.16449 9.20123 7.45136 9.62533 7.80523 9.62533ZM10.8486 8.56982C10.8486 9.09298 10.5618 9.51709 10.2079 9.51709C9.85402 9.51709 9.56715 9.09298 9.56715 8.56982C9.56715 8.04666 9.85402 7.62255 10.2079 7.62255C10.5618 7.62255 10.8486 8.04666 10.8486 8.56982Z" fill="white"/>
<path d="M3.9339 6.10693C4.36148 6.10693 4.70813 6.4948 4.70813 6.97301C4.70813 7.45121 4.36148 7.83908 3.9339 7.83908C3.50631 7.83908 3.15967 7.45121 3.15967 6.97301C3.15967 6.4948 3.50631 6.10693 3.9339 6.10693Z" fill="white"/>
<path d="M7.18625 6.06621C8.30679 5.80367 9.04611 4.85937 8.83756 3.95707C8.62902 3.05477 7.55157 2.53613 6.43103 2.79868C5.31048 3.06122 4.57116 4.00551 4.77971 4.90781C4.98826 5.81012 6.0657 6.32875 7.18625 6.06621Z" fill="white"/>
</g>
<defs>
<clipPath id="clip0_563_12586">
<rect width="14.2031" height="13.803" fill="white" transform="translate(0.75708 0.0985107)"/>
</clipPath>
</defs>
</svg>
