<svg width="14" height="14" viewBox="0 0 14 14" fill="none" xmlns="http://www.w3.org/2000/svg">
<path fill-rule="evenodd" clip-rule="evenodd" d="M2.3777 0.598572H11.3397C12.4003 0.598572 13.2601 1.45837 13.2601 2.51899V11.481C13.2601 12.5416 12.4003 13.4014 11.3397 13.4014H2.3777C1.31708 13.4014 0.457275 12.5416 0.457275 11.481V2.51899C0.457275 1.45837 1.31708 0.598572 2.3777 0.598572ZM7.85887 11.5009C8.48401 11.5009 9.18416 11.3009 9.48423 10.9758C9.55924 10.9008 9.53424 10.8008 9.48423 10.7008L9.10914 9.57552C9.08414 9.5005 8.95911 9.37547 8.75907 9.4755C8.63404 9.52551 8.434 9.57552 8.18394 9.57552C7.95889 9.57552 7.5588 9.42549 7.5588 8.82535V6.47484H9.00912C9.13415 6.47484 9.20917 6.39982 9.20917 6.2998V4.8995C9.20917 4.77447 9.13415 4.69945 9.00912 4.69945H7.5588V2.649C7.5588 2.57399 7.50879 2.49897 7.40877 2.49897H6.1585C5.98346 2.49897 5.85843 2.57399 5.85843 2.77403C5.78342 3.49919 5.45835 4.42439 4.3581 4.84948C4.25808 4.87449 4.18307 4.97451 4.18307 5.12455V6.2998C4.18307 6.42483 4.25808 6.49985 4.3331 6.49985H5.20829V9.0504C5.20829 9.97561 5.65839 11.5009 7.78385 11.5009H7.85887Z" fill="white"/>
</svg>
