<?xml version="1.0" encoding="iso-8859-1"?>
<!-- Generator: Adobe Illustrator 19.0.0, SVG Export Plug-In . SVG Version: 6.00 Build 0)  -->
<svg version="1.1" id="Layer_1" xmlns="http://www.w3.org/2000/svg" xmlns:xlink="http://www.w3.org/1999/xlink" x="0px" y="0px"
	 viewBox="0 0 512 512" style="enable-background:new 0 0 512 512;" xml:space="preserve">
<rect x="7.604" y="178.895" style="fill:#2F2D30;" width="51.678" height="159.856"/>
<g>
	<path style="fill:#3E3B43;" d="M244.41,117.063l193.634,1.208l-1.785,286.194l-264.921-1.653
		c-16.538-0.103-29.862-13.594-29.759-30.132l1.411-226.303c0.103-16.538,13.594-29.862,30.132-29.759L244.41,117.063z"/>
	<path style="fill:#3E3B43;" d="M141.612,367.315l-71.121-0.507c-10.638-0.066-19.21-8.745-19.143-19.383l1.104-177.049
		c0.066-10.638,8.745-19.21,19.383-19.143l71.121,0.507L141.612,367.315z"/>
</g>
<path style="fill:#C6C3CB;" d="M484.349,422.73l-30.123-0.188c-9.944-0.062-18.029-8.249-17.968-18.193l1.853-297.113
	c0.062-9.944,8.249-18.03,18.193-17.968l30.123,0.188c9.944,0.062,18.029,8.249,17.968,18.193l-1.853,297.113
	C502.48,414.706,494.293,422.792,484.349,422.73z"/>
<polygon style="fill:#FFE477;" points="268.953,403.421 211.85,403.242 211.85,116.618 268.953,116.618 "/>
<rect x="117.78" y="151.744" style="opacity:0.34;enable-background:new    ;" width="25.177" height="215.223"/>
<path style="opacity:0.34;enable-background:new    ;" d="M502.542,336.086c-0.062,9.944-8.249,18.029-18.193,17.968l-30.123-0.188
	c-9.944-0.062-18.029-8.249-17.968-18.193l-0.001,0.115l-167.307-1.044l-57.101-0.178v-0.178l-40.513-0.252
	c-16.538-0.103-29.861-13.594-29.759-30.132l0.033-5.364l-71.121-0.507c-10.638-0.066-19.21-8.745-19.143-19.383l0.054-8.68H7.604
	v13.43v20.199v15.166v19.637h43.799l-0.054,8.68c-0.066,10.638,8.504,19.317,19.143,19.383l71.121,0.507l-0.033,5.364
	c-0.103,16.538,13.221,30.03,29.759,30.132l40.513,0.252v0.178l57.101,0.178l167.307,1.044l0.001-0.115
	c-0.062,9.944,8.024,18.13,17.968,18.193l30.123,0.188c9.944,0.062,18.131-8.024,18.193-17.968v-68.433H502.542z"/>
<path d="M380.787,160.487l-55.751-0.348c-0.017,0-0.031,0-0.049,0c-4.177,0-7.578,3.373-7.603,7.556
	c-0.025,4.2,3.358,7.625,7.556,7.652l55.751,0.348c0.017,0,0.031,0,0.049,0c4.177,0,7.578-3.373,7.603-7.556
	C388.37,163.939,384.986,160.515,380.787,160.487z"/>
<path d="M380.409,221.195l-55.752-0.348c-0.017,0-0.031,0-0.049,0c-4.177,0-7.578,3.373-7.603,7.556
	c-0.025,4.2,3.358,7.625,7.556,7.652l55.752,0.348c0.017,0,0.031,0,0.049,0c4.177,0,7.578-3.373,7.603-7.556
	C387.992,224.647,384.608,221.222,380.409,221.195z"/>
<path d="M380.03,281.903l-55.751-0.348c-0.017,0-0.031,0-0.049,0c-4.177,0-7.578,3.373-7.603,7.556
	c-0.025,4.2,3.358,7.625,7.556,7.652l55.751,0.348c0.017,0,0.031,0,0.049,0c4.177,0,7.578-3.373,7.603-7.556
	C387.612,285.355,384.229,281.93,380.03,281.903z"/>
<path d="M379.652,342.611l-55.752-0.349c-0.017,0-0.031,0-0.049,0c-4.177,0-7.577,3.373-7.603,7.556
	c-0.025,4.199,3.358,7.625,7.556,7.652l55.752,0.349c0.017,0,0.031,0,0.049,0c4.177,0,7.577-3.373,7.603-7.556
	C387.233,346.064,383.851,342.638,379.652,342.611z"/>
<path d="M504.574,89.504c-4.831-4.891-11.258-7.609-18.099-7.652l-30.123-0.188c-0.055,0-0.108,0-0.164,0
	c-6.78,0-13.176,2.633-18.029,7.425c-4.891,4.831-7.608,11.258-7.651,18.099l-0.021,3.431l-161.475-1.007
	c-0.004,0-0.008-0.001-0.012-0.001c-0.017,0-0.031,0-0.049,0c-0.002,0-0.004,0-0.006,0l-24.489-0.153
	c-4.178-0.03-7.625,3.357-7.652,7.556c-0.025,4.2,3.358,7.625,7.556,7.652l16.939,0.105l-1.69,270.985l-41.459-0.259l1.303-208.77
	c0.025-4.2-3.358-7.625-7.556-7.652c-0.017,0-0.032,0-0.049,0c-4.177,0-7.577,3.373-7.603,7.556l-1.303,208.77l-31.558-0.197
	c-5.968-0.037-11.563-2.396-15.757-6.642c-4.193-4.246-6.483-9.871-6.444-15.839l0.033-5.36v-0.004l0.672-107.787l0.706-113.151
	c0.036-5.969,2.396-11.564,6.643-15.757c4.211-4.16,9.78-6.445,15.694-6.445c0.063,0,0.128,0,0.193,0.001
	c4.177,0,7.577-3.373,7.603-7.556c0.026-4.199-3.357-7.625-7.556-7.652c-10.03-0.08-19.482,3.784-26.62,10.832
	c-6.601,6.519-10.48,15.056-11.076,24.237l-63.589-0.453c-0.058,0-0.114,0-0.17,0c-14.736,0-26.772,11.941-26.864,26.699
	l-0.006,0.96H7.604c-4.2,0-7.604,3.404-7.604,7.604v159.852c0,4.2,3.404,7.604,7.604,7.604h36.147l-0.006,1.028
	c-0.045,7.176,2.708,13.941,7.751,19.046c5.044,5.107,11.773,7.944,18.943,7.988l63.595,0.453
	c0.479,9.193,4.252,17.782,10.774,24.386c7.047,7.137,16.453,11.101,26.482,11.164l258.504,1.612
	c1.202,3.894,3.331,7.474,6.285,10.466c4.831,4.892,11.258,7.609,18.099,7.652l30.122,0.189c0.055,0,0.108,0,0.164,0
	c6.78,0,13.177-2.633,18.029-7.424c4.892-4.831,7.609-11.258,7.652-18.099l1.853-297.113
	C512.042,100.856,509.405,94.396,504.574,89.504z M15.208,212.832c6.483-0.02,16.703,0.028,27.04,0.112v20.16
	c-3.784-0.029-8.55-0.064-13.329-0.086c-5.872-0.029-10.309-0.051-13.709-0.031v-20.154H15.208z M15.208,248.199
	c6.483-0.02,16.703,0.028,27.04,0.112v20.16c-3.784-0.029-8.55-0.064-13.329-0.086c-5.872-0.029-10.309-0.052-13.709-0.032v-20.152
	H15.208z M15.208,283.565c6.483-0.02,16.703,0.028,27.04,0.112v20.159c-3.784-0.029-8.55-0.064-13.329-0.086
	c-5.872-0.028-10.309-0.049-13.709-0.03v-20.154H15.208z M42.248,186.497v11.239c-3.784-0.029-8.55-0.064-13.329-0.086
	c-5.872-0.029-10.309-0.052-13.709-0.033v-11.119H42.248z M15.208,331.142v-12.211c6.483-0.02,16.702,0.027,27.04,0.111v12.1H15.208
	z M62.316,355.738c-2.188-2.216-3.383-5.151-3.363-8.265l1.105-177.049c0.019-3.114,1.25-6.035,3.466-8.222
	c2.198-2.172,5.104-3.363,8.184-3.363c0.024,0,0.05,0,0.074,0l16.445,0.117l-0.989,158.461c-0.025,4.2,3.358,7.625,7.556,7.652
	c0.017,0,0.031,0,0.049,0c4.177,0,7.577-3.373,7.603-7.556l0.989-158.447l31.871,0.227l-0.721,115.648l-0.528,84.718l-63.516-0.452
	C67.425,359.186,64.504,357.954,62.316,355.738z M276.509,124.867l153.883,0.96l-1.69,270.985l-153.883-0.96L276.509,124.867z
	 M494.938,404.716c-0.017,2.778-1.128,5.396-3.13,7.372c-1.985,1.961-4.591,3.038-7.345,3.038c-0.021,0-0.045,0-0.066,0
	l-30.123-0.189c-2.778-0.017-5.396-1.128-7.372-3.13c-1.976-2.001-3.056-4.633-3.038-7.412l1.853-297.113
	c0.017-2.778,1.128-5.396,3.13-7.372c1.985-1.961,4.591-3.038,7.344-3.038c0.022,0,0.045,0,0.066,0l30.123,0.188
	c2.778,0.017,5.397,1.128,7.373,3.131c1.976,2.001,3.056,4.632,3.038,7.411L494.938,404.716z"/>
<g>
</g>
<g>
</g>
<g>
</g>
<g>
</g>
<g>
</g>
<g>
</g>
<g>
</g>
<g>
</g>
<g>
</g>
<g>
</g>
<g>
</g>
<g>
</g>
<g>
</g>
<g>
</g>
<g>
</g>
</svg>
