<svg width="695" height="118" viewBox="0 0 695 118" fill="none" xmlns="http://www.w3.org/2000/svg">
  <path
    d="M666.612 89.1229C658.078 89.1229 650.402 88.0092 643.569 85.8037V75.3487C650.552 77.8203 658.448 79.0416 667.235 79.0416C670.898 79.0416 673.904 78.4612 676.035 77.0901C678.28 75.6461 679.387 73.4338 679.387 70.6895C679.387 68.2411 678.71 66.1397 677.107 64.6763C675.53 63.2364 673.31 62.6488 670.723 62.6488H658.888C652.469 62.6488 647.931 61.0693 644.99 58.1743C642.053 55.2836 640.454 50.8302 640.454 44.5268C640.454 38.0754 642.708 33.4331 647.093 30.3346C651.573 27.1686 658.479 25.4705 668.045 25.4705C675.731 25.4705 682.973 26.5794 689.78 28.7887V39.2403C682.898 36.7773 675.503 35.5518 667.609 35.5518C663.065 35.5518 659.431 36.1249 656.881 37.4294C655.584 38.0929 654.526 38.967 653.796 40.0873C653.061 41.2153 652.716 42.5064 652.716 43.9039C652.716 46.3906 653.468 48.5053 655.198 49.958C656.877 51.3685 659.233 51.9446 662.002 51.9446H672.592C679.665 51.9446 684.69 53.5394 687.94 56.465C691.161 59.3636 692.894 63.8003 692.894 70.0666C692.894 76.545 690.73 81.1904 686.557 84.278C682.299 87.4282 675.732 89.1229 666.612 89.1229Z"
    stroke="white" stroke-width="3" />
  <path
    d="M606.002 78.4187C612.107 78.4187 618.21 77.8937 624.311 76.8445V86.908C618.9 87.9638 612.388 88.5 604.756 88.5C593.109 88.5 584.653 85.7598 579.107 80.5446C573.579 75.3457 570.687 67.4439 570.687 56.5492C570.687 46.1139 573.195 38.5655 577.946 33.6217C582.687 28.689 589.907 26.0934 599.897 26.0934C609.583 26.0934 616.574 28.5635 621.157 33.2426C625.746 37.9276 628.173 45.0826 628.173 54.9919C628.173 57.1906 628.046 59.3898 627.791 61.5898H585.695H584.195V63.0898C584.195 68.1229 586.076 72.0785 589.927 74.7013C593.675 77.2538 599.109 78.4187 606.002 78.4187ZM584.199 51.509L584.07 53.1281H585.695H613.602H615.102V51.6281V51.1298C615.102 46.3685 613.899 42.5228 611.231 39.8795C608.566 37.2388 604.693 36.0501 599.897 36.0501C595.268 36.0501 591.477 37.3015 588.75 40.0043C586.04 42.6902 584.59 46.6046 584.199 51.509Z"
    stroke="white" stroke-width="3" />
  <path
    d="M555.167 48.7627V88.5H541.659V48.7627C541.659 44.9207 540.703 41.7633 538.529 39.576C536.352 37.3871 533.208 36.4239 529.383 36.4239C523.594 36.4239 518.032 38.7433 512.722 43.1899L512.185 43.6396V44.34V88.5H498.678V26.0934H508.735L510.537 34.5006L511.121 37.2285L513.074 35.2365C519.099 29.0918 525.869 26.0934 533.432 26.0934C540.93 26.0934 546.282 28.0402 549.776 31.6753C553.282 35.3213 555.167 40.923 555.167 48.7627Z"
    stroke="white" stroke-width="3" />
  <path
    d="M434.943 57.0475C434.943 64.0311 436.289 69.5445 439.229 73.337C442.224 77.202 446.685 79.0416 452.327 79.0416C457.97 79.0416 462.431 77.202 465.426 73.337C468.366 69.5445 469.712 64.0311 469.712 57.0475C469.712 50.2239 468.363 44.8289 465.415 41.1177C462.415 37.3407 457.957 35.5518 452.327 35.5518C446.698 35.5518 442.24 37.3407 439.24 41.1177C436.291 44.8289 434.943 50.2239 434.943 57.0475ZM421.436 57.2939C421.436 46.5574 424.08 38.7816 429.102 33.6816C434.121 28.5854 441.767 25.9065 452.327 25.9065C462.888 25.9065 470.534 28.5854 475.553 33.6816C480.576 38.782 483.219 46.5588 483.219 57.2967C483.219 68.0131 480.576 75.7739 475.554 80.8641C470.535 85.9505 462.888 88.6246 452.327 88.6246C441.81 88.6246 434.183 85.9515 429.164 80.8641C424.14 75.7724 421.477 68.0097 421.436 57.2939Z"
    stroke="white" stroke-width="3" />
  <path
    d="M404.42 2.42242V64.3357C404.42 72.5084 401.644 78.4297 396.237 82.3719C390.983 86.2036 383.049 88.3112 372.225 88.4879V77.1543C377.85 77.0125 382.335 76.0525 385.519 74.121C389.102 71.9474 390.913 68.6151 390.913 64.3357V2.42242H404.42Z"
    stroke="white" stroke-width="3" />
  <path
    d="M309.167 72.1723L324.953 26.0934H338.852L312.525 91.3673C312.524 91.3681 312.524 91.3689 312.524 91.3697C308.008 102.502 300.929 110.47 291.291 115.374L285.091 106.608C291.89 103.219 296.921 98.0034 300.141 91.0004L300.403 90.4284L300.18 89.8401L275.912 26.0934H290.177L306.332 72.1823L307.764 76.267L309.167 72.1723Z"
    stroke="white" stroke-width="3" />
  <path
    d="M255.035 34.0167C260.09 29.1074 265.299 26.5476 270.679 26.1487V36.472C264.669 36.8611 259.293 39.6025 254.585 44.552L254.172 44.9863V45.5858V88.5H240.664V26.0934H250.759L252.533 33.2992L253.159 35.8384L255.035 34.0167Z"
    stroke="white" stroke-width="3" />
  <path
    d="M222.029 48.7627V88.5H208.522V48.7627C208.522 44.9207 207.566 41.7633 205.391 39.576C203.215 37.3871 200.071 36.4239 196.245 36.4239C190.456 36.4239 184.894 38.7433 179.584 43.1899L179.047 43.6396V44.34V88.5H165.54V26.0934H175.597L177.399 34.5006L177.983 37.2285L179.937 35.2365C185.962 29.0918 192.731 26.0934 200.294 26.0934C207.792 26.0934 213.144 28.0402 216.639 31.6753C220.144 35.3213 222.029 40.923 222.029 48.7627Z"
    stroke="white" stroke-width="3" />
  <path
    d="M127.973 78.4187C134.078 78.4187 140.181 77.8937 146.282 76.8445V86.908C140.871 87.9638 134.359 88.5 126.727 88.5C115.08 88.5 106.624 85.7598 101.078 80.5446C95.5501 75.3457 92.6584 67.4439 92.6584 56.5492C92.6584 46.1139 95.1664 38.5655 99.9174 33.6217C104.658 28.689 111.878 26.0934 121.868 26.0934C131.554 26.0934 138.545 28.5635 143.128 33.2426C147.717 37.9276 150.144 45.0826 150.144 54.9919C150.144 57.1906 150.017 59.3898 149.762 61.5898H107.666H106.166V63.0898C106.166 68.1229 108.047 72.0785 111.898 74.7013C115.647 77.2538 121.08 78.4187 127.973 78.4187ZM106.171 51.509L106.042 53.1281H107.666H135.573H137.073V51.6281V51.1298C137.073 46.3685 135.87 42.5228 133.202 39.8795C130.537 37.2388 126.664 36.0501 121.868 36.0501C117.239 36.0501 113.448 37.3015 110.721 40.0043C108.011 42.6902 106.561 46.6046 106.171 51.509Z"
    stroke="white" stroke-width="3" />
  <path
    d="M15.1571 52.0019V88.5H1.64975V2.42242H15.1571V37.6747V39.1747H16.6571H60.573H62.073V37.6747V2.42242H75.5804V88.5H62.073V52.0019V50.5019H60.573H16.6571H15.1571V52.0019Z"
    stroke="white" stroke-width="3" />
</svg>