<?xml version="1.0" encoding="iso-8859-1"?>
<!-- Generator: Adobe Illustrator 19.0.0, SVG Export Plug-In . SVG Version: 6.00 Build 0)  -->
<svg version="1.1" id="Layer_1" xmlns="http://www.w3.org/2000/svg" xmlns:xlink="http://www.w3.org/1999/xlink" x="0px" y="0px"
	 viewBox="0 0 426.709 426.709" style="enable-background:new 0 0 426.709 426.709;" xml:space="preserve">
<g id="XMLID_585_">
	<polygon id="XMLID_1468_" style="fill:#EDEDED;" points="186.082,85.079 221.145,50.017 178.718,7.59 125.75,60.559 	"/>
	<polygon id="XMLID_1465_" style="fill:#F8F8F9;" points="366.166,300.974 419.136,248.007 376.708,205.58 341.645,240.642 	"/>
	
		<rect id="XMLID_1464_" x="140.737" y="4.284" transform="matrix(-0.7071 -0.7071 0.7071 -0.7071 229.2433 198.5224)" style="fill:#D8D8DA;" width="30.001" height="94.999"/>
	
		<rect id="XMLID_1463_" x="338.726" y="202.271" transform="matrix(-0.7071 -0.7071 0.7071 -0.7071 427.2343 676.5064)" style="fill:#D8D8DA;" width="30.001" height="94.999"/>
	<path id="XMLID_589_" style="fill:#F8F8F9;" d="M390.85,347.001c-25.22-60.575-63.639-176.776-63.639-176.776l-36.142-36.142
		l-98.995,98.995L383.78,424.783l7.07-7.072C410.376,398.186,401.464,372.493,390.85,347.001z"/>
	<path id="XMLID_590_" style="fill:#EDEDED;" d="M256.5,99.513c0,0-116.201-38.419-176.779-63.639
		c-25.49-10.613-51.182-19.526-70.708,0l-7.071,7.071l190.133,190.133l98.995-98.995L256.5,99.513z"/>
	<path id="XMLID_1458_" style="fill:#EDEDED;" d="M146.309,345.85c17.422-14.024,35.574-30.297,53.623-48.346L412.064,85.372
		c19.526-19.526,19.526-51.185,0-70.711s-51.185-19.526-70.711,0L129.221,226.793c-18.049,18.049-34.322,36.201-48.347,53.623
		c-45.111-2.61-76.248,3.761-80.379,19.178c-3.292,12.287,11.156,28.174,37.586,44.393c-12.776,24.954-16.323,44.044-7.855,52.512
		c8.468,8.467,27.556,4.921,52.506-7.855c16.222,26.439,32.111,40.877,44.399,37.584
		C142.549,422.098,148.919,390.961,146.309,345.85z"/>
	
		<rect id="XMLID_1457_" x="278.073" y="261.295" transform="matrix(0.7071 0.7071 -0.7071 0.7071 287.0669 -140.4511)" style="fill:#E17858;" width="69.999" height="29.999"/>
	<path id="XMLID_1456_" style="fill:#C6C5CA;" d="M341.321,14.694L129.189,226.826c-18.049,18.049-34.323,36.201-48.348,53.623
		c-45.11-2.61-76.247,3.761-80.378,19.178c-3.293,12.288,11.156,28.174,37.586,44.393c-12.381,24.179-16.095,42.854-8.609,51.693
		L411.225,13.928C391.643-4.814,360.582-4.568,341.321,14.694z"/>
	<path id="XMLID_1455_" style="fill:#D8D8DA;" d="M256.5,99.514L256.5,99.514c0,0-17.424-5.761-42.285-14.282l-84.994,84.993
		l28.284,28.285L256.5,99.514z"/>
	
		<rect id="XMLID_1454_" x="115.434" y="98.659" transform="matrix(0.7071 0.7071 -0.7071 0.7071 124.4297 -73.0825)" style="fill:#E17858;" width="69.999" height="30"/>
	
		<rect id="XMLID_1453_" x="166.648" y="119.872" transform="matrix(0.7071 0.7071 -0.7071 0.7071 145.6436 -81.87)" style="fill:#DF6246;" width="10" height="30"/>
	<path id="XMLID_1452_" style="fill:#D8D8DA;" d="M0.463,299.626c-2.575,9.607,5.697,21.415,22.063,33.862l53.292-53.292
		C33.433,278.335,4.438,284.789,0.463,299.626z"/>
</g>
<g>
</g>
<g>
</g>
<g>
</g>
<g>
</g>
<g>
</g>
<g>
</g>
<g>
</g>
<g>
</g>
<g>
</g>
<g>
</g>
<g>
</g>
<g>
</g>
<g>
</g>
<g>
</g>
<g>
</g>
</svg>
