<svg width="125" height="124" viewBox="0 0 125 124" fill="none" xmlns="http://www.w3.org/2000/svg">
<g clip-path="url(#clip0_4756_222618)">
<circle cx="62.5" cy="62" r="62" fill="#1B1E29"/>
<path d="M83.8368 70.8571C78.1362 70.8938 73.5713 75.4435 73.5713 80.9493C73.5713 81.4873 74.0204 81.9158 74.572 81.9158H93.2372C93.7889 81.9158 94.238 81.4873 94.238 80.9493V80.8398C94.238 75.3126 89.5651 70.8257 83.8368 70.8571ZM91.2688 79.9828C89.4084 79.9828 90.5762 77.4808 88.0778 77.4808C85.579 77.4808 86.1415 80.3641 83.9024 80.3641C81.6633 80.3641 82.2312 77.4808 79.727 77.4808C77.2281 77.4808 78.3965 79.9828 76.5414 79.9828C74.6864 79.9828 76.9797 74.8531 80.2894 73.5419C82.2096 72.9777 81.3819 75.1978 83.9024 75.1978C86.4284 75.1978 85.6007 72.9777 87.5208 73.5419C90.8306 74.8531 93.1184 79.9828 91.2688 79.9828Z" fill="#525669"/>
<path d="M87.2022 86.4098H80.6043V85.2695C80.6043 84.5929 80.0364 84.0439 79.3354 84.0439H78.3662V87.6034C78.3662 88.1376 78.8148 88.5708 79.3679 88.5708H88.4385C88.9916 88.5708 89.4402 88.1376 89.4402 87.6034V84.0439H88.4711C87.7705 84.0439 87.2022 84.5924 87.2022 85.2695V86.4098Z" fill="#525669"/>
<path d="M89.6554 50.755C86.5573 65.1144 73.7862 75.8752 58.5 75.8752C40.881 75.8752 26.625 61.6192 26.625 44.0002C26.625 28.714 37.3858 15.9429 51.7452 12.8448C53.5687 12.4514 54.9113 14.5166 53.8078 16.0206C50.8664 20.0247 49.2838 24.8652 49.2917 29.8336C49.2917 42.7085 59.7918 53.2086 72.6667 53.2086C77.6349 53.2163 82.4752 51.6337 86.4792 48.6924C87.9837 47.5889 90.0489 48.9315 89.6554 50.755Z" fill="#81869B"/>
<path d="M100.905 97.6608L99.0623 95.8184L97.0051 97.4175C93.3054 100.294 88.6614 102.005 83.6096 102.005C71.5435 102.005 61.762 92.223 61.762 80.1569C61.762 68.0908 71.5435 58.3093 83.6096 58.3093C95.6757 58.3093 105.457 68.0908 105.457 80.1569C105.457 85.2088 103.746 89.8527 100.87 93.5525L99.271 95.6096L101.113 97.4521L117.814 114.153C117.872 114.21 117.872 114.304 117.814 114.361C117.756 114.419 117.663 114.419 117.605 114.361L100.905 97.6608Z" fill="#313544" stroke="#525669" stroke-width="5.90476" stroke-linecap="round"/>
<circle cx="39.6188" cy="24.357" r="1.47619" fill="#373A4A"/>
<circle cx="21.9045" cy="40.5954" r="2.95238" fill="#373A4A"/>
<circle cx="31.1314" cy="22.5117" r="1.84524" fill="#373A4A"/>
</g>
<defs>
<clipPath id="clip0_4756_222618">
<rect x="0.5" width="124" height="124" rx="62" fill="white"/>
</clipPath>
</defs>
</svg>
