<svg width="611" height="384" viewBox="0 0 611 384" fill="none" xmlns="http://www.w3.org/2000/svg">
<path d="M400.759 134.306V134.344L401.179 138.09L404.778 145.396L405.861 146.275L409.524 145.842L412.276 143.969M400.759 134.306H400.721L400.727 134.344M400.759 134.306L400.721 130.764L398.759 123.814L400.014 115.463L401.428 105.175L405.689 93.5246L404.154 93.7285L397.478 103.761L395.924 102.175L399.485 96.5886L399.568 96.4421M546.69 176.412L549.844 170.596L548.926 169.468L544.257 162.971L540.231 155.913L541.155 155.537L544.626 158.614L547.2 158.779L548.869 162.2L554.207 149.479L553.576 138.911L550.742 138.956L552.729 131.223L553.15 136.07L559.946 134.331L573.719 126.229L569.877 124.426L555.366 130.197L562.794 124.783L568.743 122.477L573.203 120.521L580.229 115.96L585.331 114.807L591.714 110.514L591.383 106.303L587.37 104.131L589.937 108.883L585.529 109.787L579.993 103.392L577.993 95.9771L578.834 92.3526L581.464 84.5365L590.376 72.771L599.033 66.4965L607.225 58.999L605.161 53.1703L596.249 47.4182L590.185 28.48L584.688 25.8046L579.057 30.1553L574.776 27.4417L570.635 40.1882L570.858 51.9473L569.215 59.3111L565.832 62.9038L562.666 64.2606L562.635 67.9871M543.499 178.387L536.326 172.921L533.511 162.442L532.791 167.806L535.619 179.985L528.032 177.227L536.779 183.61L540.658 190.26L545.881 198.293M399.568 96.4358L404.67 86.6386L411.429 84.6257L418.99 80.8546L427.105 81.4279L427.449 81.4534L436.151 79.0009L430.399 73.8985L431.482 72.2996L428.093 72.2805L427.66 73.7775L424.532 73.5736L421.946 69.7707L412.289 72.1659L403.74 76.3255L396.166 71.4652L390.35 70.1083L392.866 62.1521L384.528 67.7132L376.884 73.0322L369.393 77.2492L369.304 77.1855L369.399 77.2555L370.004 76.9179L370.017 76.9625M412.276 143.963L414.251 141.746L417.856 134.274L417.123 124.744L412.684 116.202L412.563 110.029L414.512 102.659L416.55 97.525L420.258 93.6011L421.774 98.334L422.742 90.9957L424.812 89.2567L425.564 83.5937L434.533 85.3901L442.814 89.9893L444.566 96.4103L444.547 103.099L439.635 109.635L440.654 113.183L442.744 113.023L448.305 105.8L452.35 106.679L455.465 114.718L456.873 120.515L457.108 120.279L456.873 120.508L453.063 129.121L451.445 134.471L448.553 140.517V140.523L455.605 142.542L461.077 142.479L468.562 139.364L474.257 134.382L479.416 131.535L486.691 125.999L486.71 125.974L494.182 115.813L493.723 114.488L493.717 114.45L491.513 110.609L496.59 107.781L504.845 106.685L513.579 106.093L520.306 99.7355L518.477 94.3591L516.828 92.4099L516.783 92.3971L516.789 92.3908L516.834 92.4099L525.147 80.3832L529.077 76.7141L544.27 72.8793L562.635 67.9871M545.875 198.299L550.678 212.04L545.639 224.162L535.326 232.067L526.682 241.265L522.65 242.928L519.879 253.827L511.005 264.605L499.565 274.071L495.966 285.467L494.94 294.054L498.265 304.297L505.005 315.336L512.553 325.191L513.528 330.828L521.733 344.683L524.58 357.557L524.064 370.66L518.93 374.196L512.082 373.52L508.935 367.456L503.368 364.902L494.456 353.442L486.481 343.766L484.277 336.95L485.175 327.79L481.047 320.107L471.581 312.591L463.65 308.062L450.21 315.929L446.821 312.209L434.189 307.004L420.143 310.253L408.811 309.635L401.345 313.527L394.064 313.827L393.026 319.993L397.625 328.459L380.031 330.185L368.991 327.777L361.481 325.102L351.709 323.573L340.651 323.452L329.809 326.726L318.216 337.682L305.342 343.989L298.169 350.926L295.067 357.493L294.787 367.647L295.341 374.737L297.806 379.801L292.583 380.164L283.168 376.718L272.918 371.839L269.447 364.787L266.943 354.385L259.592 345.696L255.522 336.905L249.604 326.56L240.953 320.222L230.538 319.808L221.627 330.726L211.364 325.471L205.173 320.477L202.778 312.183L199.344 304.195L192.573 297.054L186.719 291.793L182.795 286.149L161.563 283.48L160.601 289.404L150.683 288.047L126.229 284.314L100.124 269.217L83.2562 258.611L84.9315 256.114L69.3886 254.311L55.521 252.266L55.3044 246.724L52.0366 238.22L41.5961 226.691L37.0287 224.958L33.1303 219.219L24.2568 215.67L21.9317 212.6L22.6579 204.574L15.6317 187.457L12.0581 165.455L13.4086 162.366L9.96237 156.333L5.16572 142.179L7.23599 130.484L4 121.164L9.96874 110.488L13.3895 98.5697L12.5868 89.7791L20.4347 75.9879L26.1232 60.6297L34.538 40.2646L35.6209 27.8749L38.3792 13.9754L50.6543 20.6321L51.5142 32.8754L54.9795 29.8814L56.9097 17.9248L56.0051 5L83.6002 13.0135L111.45 20.0843L120.725 22.1991L149.027 28.0405L177.514 32.9454L206.147 36.914L234.895 39.9398L268.294 42.3221L301.169 43.4114L321.19 43.4688L321.159 37.8185L324.414 37.7039L326.236 45.7556L329.3 48.1953L336.115 48.947L346.136 50.9663L355.812 55.1069L363.634 52.7818L375.922 55.8139H375.928L375.922 55.8203L366.201 61.2922L359.494 67.5221L353.022 74.0004L353.085 76.1408L362.965 72.6054L369.304 77.1918L369.399 77.2619L369.998 76.9179L370.011 76.9625M562.654 67.9935L562.635 67.9871M546.697 176.412L542.951 189.095L541.798 188.763L543.499 178.38" stroke="white" stroke-width="6.16322"/>
<path d="M436.335 239.781L441.508 257.28L446.069 271.249L448.362 275.549L449.744 277.995L448.031 280.772L447.897 285.448L448.891 288.085V290.678L448.84 293.086L449.846 294.837L450.668 296.468L425.232 299.36L418.168 300.87L418.072 301.991L421.258 305.252L420.869 308.176L420.143 310.253L408.81 309.635L406.568 287.512L406.772 264.217L407.294 245.329L406.205 242.609L421.111 241.227L436.335 239.781Z" fill="black" stroke="white" stroke-width="1.91102"/>
<path d="M387.413 229.232L387.375 230.436L386.324 232.551L384.356 234.093L384.063 236.513L382.317 238.532L382.731 242.724L381.464 244.157L381.311 245.317L379.253 246.527L379.336 248.623L377.973 252.585L376.635 253.489L374.629 255.579L373.52 258.63L371.163 263.822L371.068 267.268L372.667 270.994L372.234 273.874L361.895 273.886L348.569 274.88L336.765 275.167L337.294 266.924H334.485L332.134 267.16L331.478 266.223L331.612 253.547L331.625 239.469L329.045 224.225L343.224 224.123L356.117 223.716L368.418 223.149L381.738 223.257L382.827 224.977L381.61 226.614L380.4 228.258L379.769 229.735L387.413 229.232Z" fill="black" stroke="white" stroke-width="1.91102"/>
<path d="M162.398 206.873L150.683 288.047L126.229 284.314L100.124 269.217L83.2562 258.611L84.9315 256.114L86.524 256.464L88.435 253.897L86.7279 251.502L86.747 249.285L86.6514 246.654L89.6453 243.877L91.9258 237.577L96.0982 235.392L94.4292 232.213L93.461 229.232L93.0087 226.55L92.7667 224.499L92.7921 223.181L94.0853 220.55L94.0916 217.658L94.4229 214.861L95.0599 211.817L94.4356 209.663L95.5886 208.084L98.0028 208.581L100.003 210.039L101.455 210.918L102.653 208.912L103.245 208.542L105.456 197.127L123.853 200.433L145.791 204.23L162.398 206.873Z" fill="black" stroke="white" stroke-width="1.91102"/>
<path d="M56.9925 111.552L45.6729 153.371L61.5407 177.641L77.3448 201.038L92.7922 223.181L92.7667 224.499L93.0088 226.55L93.461 229.232L94.4293 232.213L96.0983 235.392L91.9259 237.577L89.6454 243.877L86.6515 246.654L86.747 249.285L86.7279 251.502L88.4351 253.897L86.5241 256.464L84.9316 256.114L69.3886 254.311L55.521 252.266L55.3044 246.724L52.0366 238.22L41.5961 226.69L37.0287 224.958L33.1303 219.218L24.2568 215.67L21.9317 212.6L22.6579 204.574L15.6317 187.457L12.0581 165.455L13.4086 162.366L9.96237 156.333L5.16572 142.179L7.23599 130.484L4 121.164L9.96874 110.488L13.3895 98.5696L56.9925 111.552Z" fill="black" stroke="white" stroke-width="1.91102"/>
<path d="M245.877 172.125L244.508 194.337L243.087 215.498L231.972 214.651L218.149 213.473L198.548 211.504L180.368 209.313L162.398 206.873L170.577 149.638L181.451 151.142L192.331 152.53L214.135 154.938L225.06 155.964L246.865 157.658L245.903 171.66L245.877 172.125Z" fill="black" stroke="white" stroke-width="1.91102"/>
<path d="M571.119 110.698L573.285 118.304L573.202 120.521L568.743 122.476L562.794 124.782L555.366 130.197L554.557 128.579L556.519 126.63L555.385 125.649L553.264 114.775L561.329 112.972L571.119 110.698Z" fill="black" stroke="white" stroke-width="1.91102"/>
<path d="M525.816 169.583L525.695 168.742L524.516 167.723L525.268 166.857L526.981 168.022L525.816 169.583Z" fill="black" stroke="white" stroke-width="1.91102"/>
<path d="M540.601 151.428L539.327 153.269L540.231 155.913L544.257 162.971L548.926 169.468L541.55 171.163L536.683 153.39L537.263 152.091L538.097 151.237L540.601 151.428Z" fill="black" stroke="white" stroke-width="1.91102"/>
<path d="M494.94 294.054L498.265 304.297L505.005 315.336L512.553 325.191L513.528 330.828L521.733 344.683L524.58 357.557L524.064 370.66L518.93 374.195L512.082 373.52L508.935 367.456L503.368 364.902L494.456 353.442L486.481 343.766L484.277 336.95L485.175 327.79L481.047 320.107L471.581 312.591L463.65 308.062L450.21 315.929L446.821 312.208L434.189 307.004L420.143 310.253L420.869 308.176L421.258 305.252L418.073 301.991L418.168 300.87L425.233 299.36L450.668 296.468L453.038 300.131L465.683 299.175L486.239 298.43L487.551 300.806L488.965 299.265L488.22 294.258L489.64 293.531L492.271 294.207L494.94 294.054Z" fill="black" stroke="white" stroke-width="1.91102"/>
<path d="M466.46 235.997L465.332 237.373L463.822 240.354L467.358 242.284L469.543 242.858L472.416 247.068L474.212 249.4L478.888 252.171L479.983 253.827L483.187 255.719L485.124 258.91L489.436 261.191L490.825 264.325L491.8 265.796L491.551 266.917L494.067 268.115L495.711 270.606L496.138 273.338L497.348 273.682L499.565 274.071L495.966 285.467L494.94 294.054L492.271 294.207L489.64 293.532L488.22 294.258L488.965 299.265L487.551 300.806L486.239 298.43L465.683 299.175L453.038 300.131L450.668 296.468L449.847 294.837L448.84 293.086L448.891 290.678V288.085L447.897 285.448L448.031 280.772L449.745 277.995L448.362 275.549L446.069 271.249L441.508 257.28L436.336 239.781L445.47 238.825L451.758 237.883L466.46 235.997Z" fill="black" stroke="white" stroke-width="1.91102"/>
<path d="M363.392 122.387L363.583 123.171L365.08 125.394L364.195 126.541L364.392 129.579L364.896 130.847L365.705 133.108L369.265 134.299L370.431 136.446L371.119 137.51L372.431 138.172L373.037 139.701L374.795 140.752L375.986 141.931L375.655 145.848L373.858 149.244L373.196 150.327L370.769 151.308L367.081 152.231L366.24 154.766L367.654 155.817L368.24 158.028L366.947 160.608L366.335 162.837L363.628 165.131L363.539 167.774L361.972 166.647L359.755 164.404L347.735 165.207L335.065 165.678L325.191 165.869L315.298 165.933L314.566 163.315L314.872 160.729L314.629 158.238L313.502 154.066L312.782 152.339L311.999 151.868L311.922 148.524L311.247 146.129L309.291 143.396L309.323 142.198L308.648 139.81L308.177 138.364L308.196 137.039L306.476 135.421L307.349 133.051L307.915 130.732L308.177 129.159L306.833 127.229L306.871 123.693H308.272L319.808 123.706L334.147 123.305L349.55 122.751L363.392 122.387Z" fill="black" stroke="white" stroke-width="1.91102"/>
<path d="M156.977 96.1427L157.302 96.4612L151.352 132.012L119.655 126.305L88.1036 119.311L94.2189 94.0087L96.0535 90.2058L95.6649 88.1674L93.9896 86.7659L94.5501 84.5109L96.7287 81.638L99.557 79.3512L102.054 75.1087L104.245 71.7708L105.679 70.1528L105.64 67.8787L104.239 66.3436L102.538 63.0693L103.213 60.5659L102.818 58.1899L107.201 38.3153L111.45 20.0842L120.725 22.1991L118.126 37.4044L119.82 41.7615L119.247 44.335L120.546 47.0104L122.496 48.8514L123.649 51.4121L125.432 56.4063L127.534 59.0116L130.471 59.7569L128.738 62.6999L127.006 66.2607L127.082 70.1019L125.732 70.7835L125.082 74.459L126.579 76.2362L128.904 74.9431L130.331 73.1404L131.465 73.7774L132.274 75.9751L132.535 80.7144L133.974 82.8484L133.892 86.7022L134.306 87.8616L136.306 88.6133L137.166 90.9256L138.274 94.9769L140.529 93.3462L143.784 94.4865L144.313 93.1296L149.925 95.0534L152.352 95.0024L154.301 92.4098L155.34 92.9895L155.996 95.168L156.977 96.1427Z" fill="black" stroke="white" stroke-width="1.91102"/>
<path d="M400.759 134.306V134.344L401.179 138.09L404.778 145.396L406.326 162.073L407.868 178.731L406.97 182.852L407.989 183.82L408.81 186.222L408.906 188.165L408.04 189.126L407.441 191.585L405.377 194.936L404.129 198.943L404.02 201.886L404.192 202.949L403.071 205.064L404.167 206.338L402.243 207.561L399.746 208.988L400.453 212.097L399.039 213.409L396.147 212.301L393.019 211.759L392.344 213.218L392.955 215.365L390.739 213.282L389.522 213.747L387.789 210.313L388.057 208.122L386.955 204.695L385.77 204.351L382.56 201.389L381.26 201.421L378.871 199.535L377.126 197.471L377.699 194.891L378.616 192.726L379.088 190.025L376.795 187.84L374.718 188.904L373.399 188.375L373.074 185.973L371.979 183.285L370.909 182.686L368.221 180.89L365.959 178.552L363.959 175.679L362.755 171.411L363.539 167.774L363.628 165.13L366.335 162.837L366.947 160.608L368.24 158.028L367.654 155.817L366.239 154.766L367.08 152.231L370.769 151.307L373.196 150.326L373.858 149.244L375.654 145.848L375.986 141.931L374.794 140.752L373.036 139.701L372.431 138.172L371.119 137.51L370.431 136.446L381.343 135.745L392.497 134.924L400.727 134.344L400.721 134.306H400.759Z" fill="black" stroke="white" stroke-width="1.91102"/>
<path d="M434.138 142.65L435.705 155.639L437.349 169.609L438.508 179.552L437.954 180.31L439.221 183.126L438.871 184.247L436.985 184.502L435.38 185.98L432.66 185.776L432.743 188.559L431.278 189.795L430.074 192.432L428.52 193.063L426.5 197.611L424.061 196.63L423.162 194.949L421.487 198.019L420.391 199.752L417.773 198.312L415.289 199.943L414.563 201.427L410.843 199.573L408.543 201.376L405.505 200.529L405.53 202.128L404.02 201.886L404.129 198.943L405.377 194.936L407.441 191.585L408.04 189.126L408.906 188.164L408.811 186.222L407.989 183.82L406.97 182.852L407.868 178.73L406.326 162.073L404.778 145.396L405.861 146.275L409.524 145.842L412.276 143.969L423.876 142.797L433.991 141.529L434.138 142.65Z" fill="black" stroke="white" stroke-width="1.91102"/>
<path d="M329.013 217.588L318.846 217.709L297.991 217.639L277.129 217.161L265.548 216.722L253.98 216.148L243.087 215.498L244.508 194.337L245.877 172.125H245.896L265.287 173.227L279.721 173.806L305.278 174.322H320.579L323.235 176.227L324.681 176.182L325.025 178.272L323.484 180.966L324.35 182.33L325.771 185.349L328.745 186.674L328.86 202.147L329.013 217.588Z" fill="black" stroke="white" stroke-width="1.91102"/>
<path d="M464.899 186.037L465.313 187.362L465.631 190.337L467.313 192.369L468.186 194.452L470.122 196.057L471.524 197.611L473.779 197.535L469.867 202.484L466.549 204.689L466.44 205.886L465.447 207.574L462.548 209.734L461.714 211.269L459.465 212.492L456.248 213.759L448.49 215.269L438.221 215.919L434.915 216.486L428.226 216.83L421.436 217.435L415.187 217.983L407.97 219.066L407.536 218.441L405.237 218.677L405.473 220.939L388.847 222.13L391.344 220.423L393.095 219.085L392.701 216.836L392.955 215.365L392.344 213.218L393.019 211.759L396.147 212.301L399.039 213.409L400.453 212.097L399.746 208.988L402.243 207.561L404.167 206.338L403.071 205.064L404.192 202.949L404.02 201.886L405.53 202.128L405.504 200.529L408.543 201.376L410.842 199.573L414.563 201.427L415.289 199.943L417.773 198.312L420.391 199.752L421.487 198.019L423.162 194.949L424.06 196.63L426.5 197.611L428.519 193.063L430.074 192.433L431.278 189.795L432.743 188.56L432.66 185.776L435.38 185.98L436.985 184.502L438.871 184.247L439.221 183.126L437.953 180.31L438.508 179.552L442.374 179.406L444.527 180.533L447.929 183.381L450.439 184.075L452.324 184.999L454.942 184.234L457.032 184.782L459.325 183.655L461.414 183.1L462.599 184.973L464.899 186.037Z" fill="black" stroke="white" stroke-width="1.91102"/>
<path d="M372.234 273.874L373.151 274.657L372.151 276.81L374.087 279.696L373.68 281.518L375.406 283.925L373.775 285.505L373.355 288.276L371.081 290.665L370.119 293.767L369.163 297.328L367.717 299.029L368.399 302.634L379.47 302.507L391.274 301.787L391.083 304.227L390.414 306.667L391.338 308.45L393.108 310.024L393.726 312.4L394.064 313.826L393.026 319.993L397.625 328.459L380.031 330.185L368.991 327.777L361.481 325.101L351.709 323.573L340.651 323.452L339.555 321.547L340.798 319.375L342.651 317.4L342.613 314.489L341.664 313.54L342.677 310.03L343.441 308.431L344.511 303.074L343.346 301.118L341.817 297.844L340.67 294.5L339.925 292.27L337.855 290.678L336.765 275.167L348.569 274.88L361.895 273.886L372.234 273.874Z" fill="black" stroke="white" stroke-width="1.91102"/>
<path d="M577.993 95.9772L579.993 103.392L585.529 109.787L589.937 108.883L587.369 104.131L591.383 106.303L591.714 110.514L585.331 114.807L580.229 115.96L579.343 113.915L577.254 112.775L575.464 109.335L571.119 110.698L561.329 112.972L553.264 114.775L553.048 104.539L561.634 102.551L574.113 99.2896L574.795 97.6143L576.706 96.06L577.993 95.9772Z" fill="black" stroke="white" stroke-width="1.91102"/>
<path d="M536.683 153.39L541.55 171.163L548.926 169.468L549.844 170.596L546.69 176.412L544.155 177.221L543.499 178.386L536.326 172.921L533.511 162.442L532.791 167.806L535.619 179.985L528.032 177.227L526.962 175.38L525.281 176.374L523.644 175.909L524.249 172.494L525.86 170.768L525.816 169.583L526.981 168.022L525.268 166.857L524.516 167.723L522.134 166.576L519.63 166.207L520.121 164.519L518.446 163.754L516.732 163.608L515.503 161.977L513.757 160.225L510.145 159.78L508.247 161.264L507.253 162.551L503.903 162.608L502.718 164.372L500.641 165.347L499.055 167.334L497.596 168.921L496.367 161.691L506.54 159.786L510.005 159.079L517.751 157.454L527.096 155.55L536.683 153.39Z" fill="black" stroke="white" stroke-width="1.91102"/>
<path d="M578.834 92.3525L577.795 92.7984L576.77 90.9893L574.305 89.4541L574.298 87.9699L565.833 62.9038L569.215 59.311L570.859 51.9473L570.635 40.1881L574.776 27.4417L579.057 30.1553L584.688 25.8046L590.185 28.48L596.25 47.4182L605.161 53.1703L607.225 58.9989L599.033 66.4965L590.376 72.771L581.465 84.5365L578.834 92.3525Z" fill="black" stroke="white" stroke-width="1.91102"/>
<path d="M428.093 72.2805L431.482 72.2996L430.399 73.8985L436.151 79.0009L427.449 81.4534L427.106 81.4279L418.99 80.8546L411.429 84.6256L404.67 86.6386L399.568 96.4357L399.294 96.3593L399.288 96.3848L397.765 94.7986L398.306 92.3971L396.045 92.4736L396.3 90.0784L396.816 88.8554L395.733 86.8998L393.255 86.1927L392.491 83.8549L390.503 83.8358L387.643 84.0523L381.611 81.8929L372.603 79.9054L371.622 77.3383L370.017 76.9625L370.004 76.9179L369.399 77.2555L369.304 77.1854L369.393 77.2491L376.884 73.0322L384.528 67.7132L392.866 62.1521L390.35 70.1083L396.166 71.4651L403.74 76.3255L412.289 72.1658L421.946 69.7707L424.532 73.5736L427.66 73.7774L428.093 72.2805ZM457.108 120.279L456.873 120.508L453.063 129.12L451.445 134.471L448.553 140.517L444.521 141.198L439.629 141.841L434.138 142.644L433.992 141.523L423.876 142.791L412.276 143.963L414.251 141.746L417.856 134.274L417.124 124.744L412.684 116.202L412.563 110.029L414.512 102.659L416.55 97.525L420.258 93.6011L421.774 98.334L422.742 90.9957L424.812 89.2567L425.564 83.5937L434.533 85.3901L442.814 89.9892L444.566 96.4102L444.547 103.099L439.635 109.634L440.655 113.183L442.744 113.023L448.305 105.8L452.35 106.679L455.465 114.718L456.873 120.515L457.108 120.279Z" fill="black" stroke="white" stroke-width="1.91102"/>
<path d="M375.928 55.8139L375.922 55.8203L366.201 61.2922L359.493 67.5221L353.022 74.0004L353.085 76.1408L350.473 77.0644L350.913 85.2308H350.595L348.148 86.938L346.034 88.4159L344.677 91.1422L346.919 93.7922L346.269 97.4741L346.403 101.417L346.199 104.621L349.327 107.303L350.569 107.386L354.015 109.31L355.226 110.24L356.028 111.768L358.774 114.138L362.417 116.106L362.819 117.285L363.029 120.769L363.392 122.387L349.55 122.75L334.147 123.305L319.808 123.706L308.272 123.693L308.482 110.138L307.304 96.2192L305.52 95.0726L304.526 92.8176L305.093 90.8492L307.386 89.2376L307.578 87.1227L307.597 84.4728L306.979 82.256L306.151 79.8864L305.686 76.9179L305.59 73.5927L305.259 72.7901L304.889 68.5031L304.87 66.5347L304.692 64.783L304.227 61.8145L303.061 58.7951L301.953 56.1006L301.819 53.4379L301.73 50.565L302.087 48.6922L302.169 46.985L301.29 44.8574L301.169 43.4114L321.19 43.4688L321.158 37.8185L324.414 37.7039L326.235 45.7556L329.299 48.1953L336.115 48.947L346.135 50.9663L355.812 55.1068L363.634 52.7818L375.922 55.8139H375.928Z" fill="black" stroke="white" stroke-width="1.91102"/>
<path d="M363.539 167.774L362.755 171.411L363.959 175.679L365.959 178.552L368.221 180.89L370.909 182.686L371.979 183.285L373.074 185.973L373.399 188.375L374.718 188.903L376.795 187.84L379.088 190.025L378.616 192.725L377.699 194.891L377.126 197.471L378.871 199.535L381.26 201.421L382.56 201.389L385.77 204.351L386.955 204.695L388.057 208.122L387.789 210.313L389.522 213.747L390.739 213.282L392.955 215.365L392.701 216.836L393.096 219.085L391.344 220.422L388.847 222.13L388.643 223.544L388.076 225.652L387.413 229.232L379.769 229.735L380.4 228.258L381.61 226.614L382.827 224.977L381.738 223.257L368.418 223.149L356.117 223.716L343.224 224.123L329.045 224.225L329.07 217.588H329.013L328.86 202.147L328.745 186.674L325.77 185.349L324.35 182.329L323.484 180.966L325.025 178.272L324.681 176.182L323.235 176.227L320.579 174.322L319.114 171.246L317.387 169.405L315.521 167.124L315.298 165.933L325.191 165.869L335.064 165.678L347.734 165.207L359.755 164.404L361.971 166.646L363.539 167.774Z" fill="black" stroke="white" stroke-width="1.91102"/>
<path d="M406.205 242.609L407.294 245.329L406.772 264.217L406.568 287.512L408.811 309.635L401.345 313.527L394.064 313.827L393.726 312.4L393.108 310.024L391.337 308.45L390.414 306.667L391.083 304.227L391.274 301.787L379.47 302.507L368.399 302.634L367.717 299.029L369.163 297.328L370.119 293.767L371.081 290.665L373.355 288.276L373.775 285.505L375.406 283.926L373.68 281.518L374.087 279.696L372.151 276.81L373.151 274.657L372.234 273.874L372.667 270.994L371.068 267.268L371.164 263.822L373.52 258.63L374.629 255.579L376.635 253.489L377.973 252.585L379.336 248.623L379.254 246.527L381.311 245.317L381.464 244.157L393.159 243.342L406.205 242.609Z" fill="black" stroke="white" stroke-width="1.91102"/>
<path d="M231.596 84.4282L229.889 97.6651L212.798 95.8306L194.356 93.7348L178.489 91.4097L158.423 88.3776L157.251 95.6649L156.977 96.1427L155.996 95.1681L155.34 92.9895L154.302 92.4098L152.352 95.0025L149.925 95.0534L144.313 93.1297L143.785 94.4865L140.529 93.3462L138.274 94.977L137.166 90.9256L136.306 88.6133L134.306 87.8616L133.892 86.7023L133.975 82.8484L132.535 80.7144L132.274 75.9751L131.465 73.7774L130.331 73.1404L128.904 74.9431L126.579 76.2363L125.082 74.459L125.732 70.7835L127.082 70.1019L127.006 66.2608L128.738 62.6999L130.471 59.7569L127.535 59.0116L125.432 56.4063L123.649 51.4122L122.496 48.8514L120.547 47.0105L119.247 44.335L119.82 41.7615L118.126 37.4044L120.725 22.1991L149.027 28.0404L177.514 32.9454L206.147 36.9139L234.895 39.9397L232.653 66.7258L231.596 84.4282Z" fill="black" stroke="white" stroke-width="1.91102"/>
<path d="M545.875 198.299L550.678 212.039L545.639 224.162L535.326 232.067L526.682 241.265L522.65 242.928L506.909 231.946L493.825 234.093L493.577 232.424L491.335 230.315L490.309 231.455L490.01 230.213L484.41 230.449L473.562 232.016L467.574 235.405L466.46 235.997L451.758 237.883L451.624 234.812L454 233.583L454.605 231.939L456.038 229.977L458.363 229.277L461.026 228.238L463.523 226.627L464.498 225.2L466.555 223.735L466.345 222.709L468.989 220.34L470.116 221.461L473.995 218.116L476.04 218.091L477.448 215.416L479.703 214.428L479.257 212.409L479.263 210.568L498.762 207.924L521.605 203.669L533.67 201.051L545.875 198.299Z" fill="black" stroke="white" stroke-width="1.91102"/>
<path d="M301.169 43.4115L301.29 44.8575L302.17 46.9851L302.087 48.6923L301.73 50.5651L301.819 53.438L301.953 56.1006L303.061 58.7952L304.227 61.8146L304.692 64.783L304.87 66.5348L304.89 68.5031L305.259 72.7902L305.59 73.5928L305.686 76.918L306.151 79.8864L306.979 82.2561L307.597 84.4729L307.578 87.1228L288.245 87.6006L271.746 86.9763L250.948 85.8743L231.596 84.4283L232.653 66.7259L234.895 39.9398L268.294 42.3222L301.169 43.4115Z" fill="black" stroke="white" stroke-width="1.91102"/>
<path d="M308.176 138.364L308.648 139.81L309.323 142.198L309.291 143.396L311.247 146.129L311.922 148.524L311.998 151.868L312.782 152.339L313.502 154.066L314.629 158.238L314.871 160.729L314.565 163.315L315.298 165.933L315.521 167.124L317.387 169.405L319.114 171.246L320.579 174.322H305.278L279.721 173.807L265.287 173.227L245.896 172.125H245.877L245.903 171.66L246.865 157.658L225.06 155.964L227.531 127.184L248.234 128.796L264.159 129.738L285.467 130.579L288.168 132.484L292.06 133.733L292.99 133.089L295.525 133.191L299.335 133.108L302.067 135.007L304.985 136.242L305.463 137.453L306.38 138.153L308.176 138.364Z" fill="black" stroke="white" stroke-width="1.91102"/>
<path d="M578.834 92.3526L577.993 95.9771L576.706 96.0599L574.795 97.6142L574.113 99.2896L561.634 102.551L560.424 101.315L560.755 99.2832L560.029 95.544L560.112 94.5821L559.577 91.1805L559.946 88.0846L560.45 86.6386L560.762 82.995L560.386 80.6763L560.354 79.2239L562.112 78.02L563.915 75.7777L563.832 73.9304L562.539 72.1276L562.654 67.9935L562.635 67.9871L562.666 64.2606L565.832 62.9038L574.298 87.97L574.304 89.4542L576.77 90.9894L577.795 92.7985L578.834 92.3526Z" fill="black" stroke="white" stroke-width="1.91102"/>
<path d="M552.729 131.223L550.742 138.956L553.576 138.911L554.207 149.479L548.869 162.2L547.2 158.78L544.626 158.614L541.155 155.537L540.231 155.913L539.326 153.269L540.6 151.428L542.524 149.626L543.097 148.568L545.225 146.103L546.251 144.243L542.002 141.402L541.467 139.956L540.199 139.79L539.721 137.516L540.569 135.503L539.568 133.803L540.983 132.165L542.097 128.579L543.244 127.649L552.729 131.223Z" fill="black" stroke="white" stroke-width="1.91102"/>
<path d="M231.971 214.651L231.436 221.798L228.519 259.579L226.417 286.792L214.963 285.849L192.77 283.683L181.693 282.435L181.68 283.683L182.795 286.149L161.563 283.48L160.601 289.404L150.683 288.047L162.398 206.873L180.368 209.313L198.548 211.504L218.148 213.473L231.971 214.651Z" fill="black" stroke="white" stroke-width="1.91102"/>
<path d="M119.655 126.305L105.456 197.127L103.245 208.542L102.653 208.912L101.455 210.918L100.003 210.039L98.0028 208.581L95.5886 208.084L94.4356 209.663L95.0599 211.817L94.4229 214.861L94.0916 217.658L94.0853 220.55L92.7921 223.181L77.3448 201.038L61.5407 177.641L45.6729 153.371L56.9924 111.552L88.091 119.349L88.1038 119.311L119.655 126.305Z" fill="black" stroke="white" stroke-width="1.91102"/>
<path d="M553.048 104.538L553.265 114.775L555.386 125.649L556.52 126.63L554.558 128.579L555.367 130.197L569.878 124.426L573.719 126.228L559.947 134.331L553.15 136.07L552.729 131.223L543.244 127.649L541.295 127.063L539.263 126.509L538.097 124.623L538.015 123.005L536.46 122.024L533.658 120.343L519.344 123.508L503.948 126.7L487.411 129.834L486.71 125.974L494.182 115.813L493.724 114.488L493.717 114.45L491.513 110.609L496.59 107.781L504.846 106.685L513.579 106.093L520.306 99.7354L518.478 94.3591L516.828 92.4099L516.783 92.3971L516.79 92.3908L516.834 92.4099L525.147 80.3832L529.077 76.714L544.27 72.8793L544.792 75.784L544.85 77.7014L546.156 81.8165L547.258 83.823L546.977 86.9889L548.844 90.4288L548.71 92.6328L549.035 93.1169L550.525 92.8494L553.048 104.538Z" fill="black" stroke="white" stroke-width="1.91102"/>
<path d="M482.671 150.626L481.289 151.594L482.06 153.326L482.111 156.696L481.614 160.595L481.066 163.85L481.13 165.347L478.671 169.099L477.505 170.003L476.078 170.647L474.69 170.545L472.607 173.392L472.562 176.036L472.435 177.482L471.53 178.202L471.142 176.635L469.581 176.52L468.485 179.858L468.791 183.049L467.632 185.253L464.899 186.037L462.599 184.973L461.415 183.1L459.325 183.654L457.032 184.782L454.943 184.234L452.324 184.998L450.439 184.075L447.929 183.38L444.527 180.533L442.374 179.405L438.508 179.552L437.348 169.608L435.705 155.639L434.138 142.65L439.629 141.848L444.521 141.204L448.553 140.516V140.523L455.605 142.542L461.077 142.478L468.562 139.363L474.257 134.382L479.416 131.535L482.671 150.626Z" fill="black" stroke="white" stroke-width="1.91102"/>
<path d="M329.045 224.225L331.625 239.469L331.612 253.547L331.478 266.223L326.229 263.458L322.828 261.955L320.089 262.955L315.84 262.821L313.324 262.847L311.253 264.025L309.228 264.624L307.457 263.904L303.412 264.662L301.603 262.229L299.692 264.299L296.405 263.318L293.06 261.012L289.404 262.388L287.901 258.866L282.282 259.063L278.721 258.178L274.721 257.012L273.046 253.948L269.854 254.795L267.95 253.534L265.16 251.859L265.771 238.061L266.389 223.913L254.732 223.334L243.075 222.633L231.436 221.798L231.972 214.651L243.087 215.498L253.98 216.148L265.548 216.721L277.129 217.161L297.991 217.639L318.846 217.709L329.013 217.588H329.07L329.045 224.225Z" fill="black" stroke="white" stroke-width="1.91102"/>
<path d="M102.538 63.0694L104.239 66.3437L105.641 67.8788L105.679 70.1529L104.246 71.7709L102.054 75.1088L99.5571 79.3513L96.7288 81.6381L94.5503 84.511L93.9897 86.766L95.665 88.1675L96.0536 90.2059L94.219 94.0088L88.1038 119.311L88.091 119.349L56.9924 111.552L13.3894 98.5698L12.5868 89.7791L20.4347 75.9879L26.1232 60.6297L34.538 40.2646L36.5955 40.7042L39.5194 41.6979L41.475 43.6917L44.0421 45.3543L45.0358 48.5648L44.5836 50.9791L44.7173 53.1513L46.8195 54.3616L49.2401 55.0368L53.4634 54.6737L55.814 54.8712L59.1455 56.4764L60.4832 57.6485L62.6809 57.7313L65.2353 57.2217L69.6179 58.6295L73.6883 58.0626L75.9115 57.4319L78.2557 58.7123L82.1669 58.1581L102.538 63.0694Z" fill="black" stroke="white" stroke-width="1.91102"/>
<path d="M543.244 127.649L542.098 128.579L540.983 132.165L539.569 133.803L540.569 135.503L539.722 137.516L540.199 139.79L541.467 139.956L542.002 141.402L546.251 144.243L545.225 146.103L543.098 148.568L542.524 149.626L540.601 151.429L538.097 151.237L537.263 152.091L536.683 153.39L527.096 155.55L517.751 157.455L510.005 159.079L506.54 159.786L496.367 161.691L484.926 163.729L482.671 150.626L479.416 131.535L486.691 125.999L486.71 125.974L487.411 129.834L503.947 126.7L519.344 123.509L533.657 120.343L536.46 122.024L538.014 123.005L538.097 124.623L539.263 126.509L541.295 127.063L543.244 127.649Z" fill="black" stroke="white" stroke-width="1.91102"/>
<path d="M580.229 115.96L573.203 120.521L573.285 118.304L571.12 110.698L575.464 109.335L577.254 112.775L579.343 113.915L580.229 115.96Z" fill="black" stroke="white" stroke-width="1.91102"/>
<path d="M522.65 242.928L519.879 253.827L511.005 264.605L499.565 274.071L497.348 273.682L496.138 273.339L495.711 270.606L494.067 268.115L491.551 266.918L491.8 265.796L490.825 264.325L489.436 261.191L485.124 258.91L483.187 255.719L479.983 253.827L478.888 252.171L474.212 249.4L472.416 247.068L469.543 242.858L467.358 242.285L463.822 240.354L465.332 237.373L466.46 235.997L467.574 235.405L473.562 232.016L484.41 230.449L490.01 230.213L490.309 231.455L491.335 230.315L493.577 232.424L493.825 234.093L506.909 231.946L522.65 242.928Z" fill="black" stroke="white" stroke-width="1.91102"/>
<path d="M308.272 123.693H306.871L306.832 127.228L308.177 129.159L307.915 130.732L307.348 133.051L306.476 135.42L308.196 137.038L308.177 138.363L306.38 138.153L305.463 137.452L304.985 136.242L302.068 135.006L299.335 133.108L295.526 133.191L292.99 133.089L292.06 133.732L288.168 132.484L285.467 130.579L264.16 129.738L248.234 128.796L227.532 127.184L229.889 97.6651L231.596 84.4281L250.948 85.8741L271.746 86.9761L288.245 87.6004L307.578 87.1226L307.387 89.2375L305.093 90.8491L304.527 92.8175L305.52 95.0725L307.304 96.2191L308.482 110.138L308.272 123.693Z" fill="black" stroke="white" stroke-width="1.91102"/>
<path d="M456.248 213.759L473.467 211.759L479.263 210.568L479.257 212.409L479.703 214.428L477.448 215.415L476.04 218.091L473.995 218.116L470.116 221.461L468.988 220.34L466.345 222.709L466.555 223.735L464.498 225.2L463.523 226.627L461.026 228.238L458.363 229.277L456.038 229.977L454.605 231.939L454 233.583L451.624 234.812L451.758 237.883L445.47 238.825L436.336 239.781L421.111 241.227L406.205 242.609L393.159 243.342L381.464 244.157L382.732 242.724L382.318 238.532L384.063 236.513L384.356 234.092L386.324 232.551L387.375 230.436L387.414 229.232L388.076 225.652L388.643 223.544L388.847 222.13L405.473 220.938L405.237 218.677L407.537 218.441L407.97 219.066L415.187 217.983L421.436 217.435L428.227 216.83L434.915 216.486L438.221 215.919L448.49 215.269L456.248 213.759Z" fill="black" stroke="white" stroke-width="1.91102"/>
<path d="M331.478 266.223L332.134 267.159L334.485 266.924H337.294L336.765 275.167L337.855 290.678L339.925 292.27L340.67 294.5L341.817 297.844L343.346 301.118L344.511 303.074L343.441 308.431L342.677 310.03L341.664 313.54L342.613 314.489L342.651 317.4L340.798 319.375L339.555 321.547L340.651 323.452L329.809 326.726L318.216 337.682L305.342 343.989L298.169 350.926L295.067 357.493L294.787 367.647L295.341 374.737L297.806 379.801L292.583 380.164L283.168 376.718L272.918 371.839L269.447 364.787L266.943 354.385L259.592 345.696L255.522 336.905L249.604 326.56L240.953 320.222L230.538 319.808L221.627 330.726L211.364 325.471L205.173 320.477L202.778 312.183L199.344 304.195L192.573 297.054L186.719 291.792L182.795 286.149L181.68 283.683L181.693 282.435L192.77 283.683L214.964 285.849L226.417 286.792L228.519 259.579L231.437 221.798L243.075 222.633L254.732 223.334L266.389 223.913L265.771 238.061L265.16 251.859L267.95 253.534L269.854 254.795L273.046 253.948L274.721 257.012L278.721 258.178L282.282 259.063L287.901 258.866L289.404 262.388L293.06 261.012L296.405 263.318L299.692 264.299L301.603 262.229L303.412 264.662L307.457 263.904L309.228 264.624L311.253 264.025L313.324 262.847L315.84 262.821L320.089 262.955L322.828 261.955L326.229 263.458L331.478 266.223Z" fill="black" stroke="white" stroke-width="1.91102"/>
<path d="M170.577 149.638L162.398 206.873L145.791 204.23L123.853 200.433L105.456 197.127L119.655 126.305L151.352 132.012L148.982 145.893L170.577 149.638Z" fill="black" stroke="white" stroke-width="1.91102"/>
<path d="M516.732 163.608L518.439 163.761L520.121 164.519L519.624 166.207L522.127 166.576L524.516 167.723L525.688 168.742L525.809 169.583L525.854 170.768L524.249 172.494L523.643 175.908L525.281 176.367L526.962 175.373L528.032 177.227L536.779 183.61L540.435 189.878L540.658 190.26L545.881 198.293L533.676 201.045L521.618 203.663L498.768 207.918L479.27 210.568L473.473 211.759L456.248 213.759L459.472 212.485L461.72 211.262L462.548 209.721L465.447 207.568L466.447 205.88L466.555 204.682L469.874 202.478L473.779 197.522L474.664 199.866L476.148 200.956L478.066 201.828L481.385 199.529L482.92 200.306L486.971 198.408L487.003 197.089L488.372 197.376L489.602 196.095L491.22 196.025L492.832 194.611L492.851 193.267L492.36 191.655L493.456 188.922L495.303 186.68L495.481 184.483L496.947 181.61L497.456 178.323L499.138 179.151L500.985 179.858L502.488 179.011L502.782 177.616L503.546 175.647L504.4 173.399L505.317 173.838L506.61 171.692L508.419 169.417L509.515 167.742L509.642 163.799L516.031 166.513L516.732 163.608ZM541.798 188.763L542.951 189.095L546.697 176.412L544.155 177.221L543.499 178.38L541.798 188.763Z" fill="black" stroke="white" stroke-width="1.91102"/>
<path d="M561.635 102.551L553.048 104.538L550.525 92.8494L549.035 93.1169L548.71 92.6328L548.843 90.4288L546.977 86.9889L547.257 83.823L546.155 81.8165L544.849 77.7014L544.792 75.784L544.27 72.8793L562.635 67.9871L562.654 67.9934L562.539 72.1276L563.832 73.9303L563.915 75.7776L562.112 78.0199L560.354 79.2238L560.386 80.6762L560.762 82.9949L560.45 86.6386L559.946 88.0846L559.577 91.1804L560.112 94.582L560.029 95.5439L560.755 99.2831L560.424 101.315L561.635 102.551Z" fill="black" stroke="white" stroke-width="1.91102"/>
<path d="M111.45 20.0843L107.201 38.3154L102.819 58.1899L103.213 60.566L102.538 63.0694L82.1669 58.1581L78.2556 58.7123L75.9115 57.4319L73.6883 58.0626L69.6178 58.6295L65.2352 57.2217L62.6809 57.7313L60.4832 57.6485L59.1455 56.4764L55.8139 54.8711L53.4634 54.6737L49.24 55.0368L46.8194 54.3616L44.7173 53.1512L44.5835 50.9791L45.0358 48.5648L44.0421 45.3543L41.475 43.6917L39.5193 41.6979L36.5955 40.7042L34.538 40.2646L35.6209 27.8749L38.3791 13.9754L50.6542 20.6321L51.5142 32.8754L54.9795 29.8814L56.9096 17.9248L56.005 5L83.6001 13.0135L111.45 20.0843Z" fill="black" stroke="white" stroke-width="1.91102"/>
<path d="M369.304 77.1917L369.399 77.2617L369.998 76.9178L370.011 76.9623L371.622 77.3445L372.603 79.9117L381.604 81.8928L387.643 84.0522L390.497 83.842L392.484 83.8611L393.249 86.1989L395.733 86.906L396.816 88.8616L396.3 90.0847L396.045 92.4798L398.306 92.4034L397.765 94.8049L399.287 96.391L399.294 96.3655L399.568 96.442L399.485 96.5885L395.924 102.175L397.478 103.761L404.154 93.7283L405.689 93.5245L401.428 105.175L400.014 115.463L398.759 123.814L400.721 130.764L400.759 134.306H400.721L400.727 134.344L392.497 134.923L381.343 135.745L370.431 136.446L369.265 134.299L365.704 133.108L364.895 130.847L364.392 129.579L364.195 126.54L365.08 125.394L363.583 123.171L363.392 122.387L363.029 120.769L362.819 117.285L362.418 116.106L358.774 114.138L356.028 111.768L355.226 110.24L354.015 109.309L350.569 107.386L349.327 107.303L346.199 104.621L346.403 101.417L346.269 97.4739L346.919 93.792L344.677 91.1421L346.034 88.4157L348.149 86.9378L350.595 85.2307H350.913L350.474 77.0643L353.085 76.1406L362.965 72.6052L369.304 77.1917Z" fill="black" stroke="white" stroke-width="1.91102"/>
<path d="M496.367 161.691L497.596 168.921L499.055 167.335L500.641 165.347L502.718 164.372L503.903 162.608L507.253 162.551L508.247 161.264L510.145 159.78L513.757 160.226L515.503 161.977L516.732 163.608L516.038 166.519L509.649 163.805L509.521 167.749L508.426 169.424L506.616 171.698L505.323 173.845L504.406 173.405L503.546 175.647L502.782 177.622L502.489 179.011L500.992 179.858L499.138 179.151L497.456 178.323L496.947 181.61L495.482 184.483L495.303 186.68L493.462 188.923L492.36 191.655L492.838 193.292L492.819 194.637L491.214 196.051L489.596 196.121L488.366 197.401L486.997 197.108L486.965 198.427L482.913 200.325L481.378 199.542L478.06 201.841L476.148 200.968L474.658 199.879L473.779 197.535L471.524 197.611L470.122 196.057L468.186 194.452L467.313 192.369L465.632 190.337L465.313 187.362L464.899 186.037L467.632 185.253L468.791 183.049L468.485 179.858L469.581 176.52L471.142 176.635L471.53 178.202L472.435 177.482L472.562 176.036L472.607 173.392L474.69 170.545L476.078 170.647L477.505 170.004L478.671 169.099L481.13 165.347L481.066 163.85L481.614 160.595L482.111 156.697L482.06 153.327L481.289 151.594L482.671 150.626L484.926 163.729L496.367 161.691Z" fill="black" stroke="white" stroke-width="1.91102"/>
<path d="M229.889 97.6651L227.532 127.184L225.06 155.964L214.135 154.938L192.331 152.53L181.451 151.142L170.577 149.638L148.982 145.893L151.352 132.012L157.302 96.4612L156.977 96.1427L157.251 95.6649L158.423 88.3776L178.489 91.4097L194.356 93.7348L212.798 95.8305L229.889 97.6651Z" fill="black" stroke="white" stroke-width="1.91102"/>
</svg>
