<svg width="47" height="50" viewBox="0 0 47 50" fill="none" xmlns="http://www.w3.org/2000/svg">
<path d="M2.26727 32.3756L15.1184 7.90397L27.761 1.13228L31.5193 3.02871L18.9527 10.1235L31.9381 49.1256L27.761 46.6977L18.0427 24.3132L5.28524 33.9878L2.26727 32.3756Z" fill="white"/>
<path d="M39.8346 26.0383C42.4558 26.0383 44.5807 24.0595 44.5807 21.6186C44.5807 19.1777 42.4558 17.1989 39.8346 17.1989C37.2135 17.1989 35.0886 19.1777 35.0886 21.6186C35.0886 24.0595 37.2135 26.0383 39.8346 26.0383Z" fill="white"/>
<path d="M43.2978 19.6463C42.8708 19.0408 42.2943 18.5559 41.6244 18.2388C40.9545 17.9216 40.2139 17.783 39.4745 17.8363C38.7352 17.8896 38.0221 18.133 37.4047 18.543C36.7873 18.953 36.2865 19.5155 35.9508 20.176C35.6213 20.8869 35.5157 21.681 35.6479 22.4532C35.7801 23.2255 36.1439 23.9393 36.6912 24.5003C38.1923 24.6197 39.6862 24.1947 40.8995 23.3033C42.1127 22.4119 42.9641 21.1137 43.2978 19.6463ZM30.5333 2.95984L27.7998 1.46071L15.8976 8.08054L16.8464 8.59261L18.6487 9.54083L21.9176 7.72739L30.5368 2.92806L30.5333 2.95984ZM31.6341 2.50427C31.705 2.52155 31.7702 2.55679 31.8234 2.60659C31.8766 2.65638 31.9161 2.71906 31.938 2.78856L35.9243 14.5432C35.965 14.6367 35.9678 14.7422 35.9322 14.8377C35.8967 14.9332 35.8254 15.0112 35.7335 15.0553C34.2123 15.8897 33.0174 17.2127 32.3424 18.8102C31.6674 20.4078 31.5517 22.1862 32.014 23.8576C32.5651 25.677 33.7363 27.2461 35.3244 28.2924C36.9124 29.3388 38.817 29.7964 40.7075 29.5857C40.811 29.5792 40.9139 29.605 41.0022 29.6593C41.0905 29.7137 41.1598 29.7941 41.2005 29.8894L45.3192 41.9549C45.3466 42.0519 45.3431 42.155 45.3093 42.2499C45.2754 42.3448 45.2128 42.4268 45.1302 42.4846L32.4681 49.8814C32.4085 49.9074 32.3441 49.9206 32.2791 49.9202C32.1623 49.9422 32.0415 49.9222 31.938 49.8637L27.4959 47.0738C27.4144 47.0319 27.3478 46.9659 27.3051 46.8849L18.6311 26.9495L5.41773 34.461C5.38798 34.4772 5.35659 34.4903 5.32408 34.4998C5.25782 34.5303 5.1852 34.5445 5.11233 34.5411C5.03946 34.5377 4.96847 34.5169 4.90531 34.4804L1.90148 32.7729C1.80295 32.7205 1.72825 32.6324 1.69276 32.5266C1.65726 32.4209 1.66367 32.3055 1.71065 32.2044L14.5494 7.86512C14.5969 7.78151 14.67 7.7153 14.7579 7.67618L27.5524 0.54428C27.6226 0.506873 27.7009 0.487305 27.7804 0.487305C27.8599 0.487305 27.9382 0.506873 28.0083 0.54428L31.6341 2.50427ZM15.7633 9.04112L15.1378 8.71975L2.76906 32.2609L5.029 33.5322L15.6961 19.5827C15.7491 19.5188 15.8164 19.4683 15.8925 19.4352C15.9686 19.4021 16.0515 19.3873 16.1343 19.392C16.2151 19.4069 16.2913 19.4403 16.3569 19.4896C16.4225 19.539 16.4758 19.6029 16.5125 19.6763L28.1302 46.424L31.2348 48.3399L18.7636 11.9069L18.2335 10.3884L15.7474 9.02346L15.7633 9.04112ZM34.8977 23.0789C34.6145 22.029 34.6948 20.9142 35.1256 19.9157C35.5564 18.9172 36.3124 18.0935 37.2707 17.5786C38.2435 17.0348 39.3644 16.8153 40.4705 16.9519C41.5767 17.0884 42.6104 17.5739 43.4215 18.3378C43.8766 18.7742 44.2412 19.296 44.4945 19.8733C44.7477 20.4505 44.8847 21.072 44.8975 21.7022C44.9103 22.3324 44.7987 22.9589 44.5691 23.546C44.3395 24.1331 43.9964 24.6692 43.5593 25.1237C43.5158 25.1696 43.4698 25.2155 43.4215 25.2614C42.7854 25.8701 42.0045 26.3066 41.1526 26.5298C40.3007 26.7531 39.4059 26.7556 38.5527 26.5371C37.6996 26.3187 36.9162 25.8865 36.2767 25.2814C35.6372 24.6763 35.1626 23.9183 34.8977 23.0789Z" fill="#4630EB"/>
</svg>
