<svg width="31" height="45" viewBox="0 0 31 45" fill="none" xmlns="http://www.w3.org/2000/svg">
<g clip-path="url(#clip0_448_151255)">
<path d="M7.99609 45C12.1797 45 15.5547 41.6512 15.5547 37.5V30H7.99609C3.8125 30 0.4375 33.3488 0.4375 37.5C0.4375 41.6512 3.8125 45 7.99609 45Z" fill="#0ACF83"/>
<path d="M0.4375 22.5C0.4375 18.3488 3.8125 15 7.99609 15H15.5547V30H7.99609C3.8125 30 0.4375 26.6512 0.4375 22.5Z" fill="#A259FF"/>
<path d="M0.4375 7.5C0.4375 3.34884 3.8125 0 7.99609 0H15.5547V15H7.99609C3.8125 15 0.4375 11.6512 0.4375 7.5Z" fill="#F24E1E"/>
<path d="M15.5547 0H23.1133C27.2969 0 30.6719 3.34884 30.6719 7.5C30.6719 11.6512 27.2969 15 23.1133 15H15.5547V0Z" fill="#FF7262"/>
<path d="M30.6719 22.5C30.6719 26.6512 27.2969 30 23.1133 30C18.9297 30 15.5547 26.6512 15.5547 22.5C15.5547 18.3488 18.9297 15 23.1133 15C27.2969 15 30.6719 18.3488 30.6719 22.5Z" fill="#1ABCFE"/>
</g>
<defs>
<clipPath id="clip0_448_151255">
<rect width="31" height="45" fill="white"/>
</clipPath>
</defs>
</svg>
