<svg width="47" height="47" viewBox="0 0 47 47" fill="none" xmlns="http://www.w3.org/2000/svg">
<path d="M17.2236 46.6659C21.5181 46.6659 24.9826 43.2014 24.9826 38.9068V31.1477H17.2236C12.929 31.1477 9.46448 34.6122 9.46448 38.9068C9.46448 43.2014 12.929 46.6659 17.2236 46.6659Z" fill="#0ACF83"/>
<path d="M9.46448 23.3887C9.46448 19.0942 12.929 15.6296 17.2236 15.6296H24.9826V31.1478H17.2236C12.929 31.1478 9.46448 27.6833 9.46448 23.3887Z" fill="#A259FF"/>
<path d="M9.46448 7.87053C9.46448 3.57597 12.929 0.11145 17.2236 0.11145H24.9826V15.6296H17.2236C12.929 15.6296 9.46448 12.1651 9.46448 7.87053Z" fill="#F24E1E"/>
<path d="M24.9827 0.11145H32.7417C37.0363 0.11145 40.5008 3.57597 40.5008 7.87053C40.5008 12.1651 37.0363 15.6296 32.7417 15.6296H24.9827V0.11145Z" fill="#FF7262"/>
<path d="M40.5008 23.3887C40.5008 27.6833 37.0363 31.1478 32.7417 31.1478C28.4472 31.1478 24.9827 27.6833 24.9827 23.3887C24.9827 19.0942 28.4472 15.6296 32.7417 15.6296C37.0363 15.6296 40.5008 19.0942 40.5008 23.3887Z" fill="#1ABCFE"/>
</svg>
