<svg width="45" height="45" viewBox="0 0 45 45" fill="none" xmlns="http://www.w3.org/2000/svg">
<path d="M22.4382 44.9988C10.3469 44.9988 0.0956679 34.7865 0.000554005 22.6197C-0.0201896 19.6845 0.541788 16.7744 1.65392 14.058C2.76606 11.3415 4.40623 8.87284 6.4794 6.79491C8.56627 4.65812 11.0568 2.95714 13.8064 1.79069C16.556 0.624245 19.5099 0.015573 22.4966 7.98394e-06C25.4297 -0.00247747 28.3343 0.575366 31.0432 1.70026C33.752 2.82514 36.2115 4.47485 38.28 6.55435C40.3828 8.60447 42.0592 11.0505 43.2125 13.7514C44.3658 16.4523 44.9732 19.3547 44.9998 22.2914C45.0557 34.728 35.0576 44.8749 22.6206 45.0014H22.4382V44.9988ZM22.5085 1.17764C19.6777 1.19443 16.8783 1.77319 14.2729 2.88034C11.6675 3.9875 9.30791 5.601 7.33098 7.62725C5.36482 9.59322 3.80839 11.9299 2.7519 14.5018C1.69542 17.0737 1.15988 19.8297 1.17634 22.6101C1.26368 34.1418 10.9819 43.8112 22.4308 43.8112H22.584C34.3763 43.7039 43.8658 34.0904 43.8218 22.2985C43.7955 19.5166 43.219 16.7674 42.1254 14.2093C41.0318 11.6512 39.4428 9.33486 37.4499 7.39372C35.4949 5.42023 33.1675 3.85455 30.6027 2.78749C28.0379 1.72043 25.2868 1.17324 22.5089 1.17764H22.5085Z" fill="#0B5A9D"/>
<path d="M5.04871 29.0813V15.9363H8.24631V17.1143H6.55018V27.9277H8.24668V29.1057L5.04834 29.0813H5.04871ZM15.9009 22.3785C15.9009 24.776 14.4454 26.1412 12.4739 26.1412C10.5024 26.1412 9.18857 24.6031 9.18857 22.5029C9.18857 20.3049 10.5661 18.7571 12.5812 18.7571C14.5964 18.7571 15.9009 20.3708 15.9009 22.3785ZM10.5661 22.4858C10.5661 23.941 11.2962 25.095 12.5498 25.095C13.8033 25.095 14.5235 23.917 14.5235 22.4322C14.5235 21.0839 13.8588 19.8108 12.5494 19.8108C11.24 19.8108 10.5538 21.0425 10.5538 22.5151L10.5661 22.4855V22.4858ZM17.0083 19.0055C17.6337 18.8982 18.2692 18.8449 18.9042 18.8471C19.618 18.7777 20.3354 18.9361 20.9534 19.2997C21.1853 19.4357 21.3765 19.6313 21.5071 19.8663C21.6377 20.1013 21.7029 20.367 21.6959 20.6357C21.6876 20.985 21.5693 21.3227 21.3577 21.6007C21.1462 21.8787 20.8523 22.0828 20.5178 22.1838C21.3576 22.3541 21.9612 23.0943 21.9612 23.951C21.9656 24.2326 21.9059 24.5115 21.7865 24.7665C21.6672 25.0216 21.4914 25.2462 21.2725 25.4233C20.7662 25.8711 19.9242 26.0879 18.6219 26.0879C18.0866 26.0904 17.5517 26.0586 17.0205 25.9928L17.0083 19.0055ZM18.3032 21.8263H18.9675C19.868 21.8263 20.3743 21.4026 20.3743 20.7967C20.3743 20.1905 19.868 19.8182 19.0382 19.8182C18.7896 19.8105 18.5408 19.8285 18.2958 19.8719L18.3032 21.826V21.8263ZM18.3032 25.112C18.5319 25.1361 18.7632 25.1461 18.9916 25.1409C19.8291 25.1409 20.5689 24.8222 20.5689 23.9632C20.5689 23.1043 19.8509 22.7852 18.9505 22.7852H18.3028V25.112H18.3032ZM24.5341 18.9104H25.8357V23.5565C25.8357 25.5306 24.882 26.1901 23.4801 26.1901C23.1055 26.1877 22.7339 26.1244 22.3798 26.0025L22.5382 24.9536C22.7984 25.0365 23.0711 25.0776 23.3461 25.0828C24.0885 25.0828 24.5241 24.7419 24.5241 23.5054L24.5337 18.9104H24.5341ZM29.5403 22.7801V23.6809H26.8313V22.7801H29.5403V22.7801ZM35.8656 25.8418C35.279 26.0757 34.6513 26.1827 34.0233 26.1609C31.755 26.1609 30.3775 24.7419 30.3775 22.5684C30.2728 20.5873 31.7938 18.8959 33.7749 18.7912C33.9137 18.7838 34.0551 18.7838 34.1935 18.7934C34.7989 18.7683 35.4023 18.8772 35.9607 19.1124L35.6709 20.1491C35.2276 19.9613 34.7504 19.8668 34.269 19.8715C32.8138 19.8715 31.7672 20.7845 31.7672 22.5051C31.7672 24.0724 32.692 25.085 34.2594 25.085C34.7454 25.0924 35.2279 25.0022 35.6783 24.8196L35.8656 25.8418V25.8418ZM39.9522 15.8997V29.0787H36.7542V27.901H38.4503V17.0777H36.7542V15.8997H39.9518H39.9522Z" fill="#0B5A9D"/>
</svg>
