<svg width="44" height="45" viewBox="0 0 44 45" fill="none" xmlns="http://www.w3.org/2000/svg">
<path fill-rule="evenodd" clip-rule="evenodd" d="M43.5049 26.8218C43.3425 25.7688 42.4579 25.0791 41.429 25.0325C41.0566 25.0156 40.6784 25.0546 40.307 25.1018C39.8585 25.1589 39.4153 25.2599 38.9678 25.3267C38.6585 25.3729 38.3449 25.3941 38.036 25.4259L38.0284 25.3858C38.6051 24.2967 39.206 23.2194 39.7516 22.1148C40.1699 21.2674 40.5279 20.3894 40.8978 19.5185C41.5099 18.0757 41.9989 16.5881 42.4038 15.0764C42.7918 13.6289 43.1238 12.1655 43.2281 10.6638C43.2699 10.064 43.2988 9.46169 43.2956 8.86117C43.2927 8.38227 43.2411 7.90265 43.1931 7.4252C43.1389 6.87809 42.9736 6.3595 42.7448 5.86039C42.4431 5.20285 41.9754 4.66332 41.4832 4.15086C41.0891 3.74053 40.6557 3.36665 40.2258 2.99314C39.6131 2.4601 38.9241 2.03462 38.2085 1.65677C37.3978 1.22599 36.5389 0.892848 35.6498 0.664328C35.111 0.52683 34.5599 0.424699 34.0143 0.315711C33.8179 0.276013 33.6212 0.194092 33.4249 0.194092H29.7291C29.5955 0.194092 29.4631 0.263021 29.3285 0.278179C28.4436 0.376701 27.5692 0.543431 26.72 0.806518C26.4024 0.90504 26.1123 0.842968 25.8106 0.815179C25.5792 0.793887 25.3519 0.731814 25.1205 0.720266C24.2393 0.676238 23.3569 0.611639 22.476 0.621022C21.6318 0.629683 20.7964 0.768625 19.9793 1.00068C19.2955 1.19483 18.6264 1.43194 18.0136 1.79138C17.7512 1.94512 17.5433 1.91625 17.272 1.83793C16.36 1.57485 15.4415 1.32764 14.5151 1.12013C13.9377 0.990932 13.3441 0.926694 12.7544 0.864982C12.1885 0.806174 11.6205 0.770776 11.0517 0.758881C10.4966 0.746972 9.93763 0.747333 9.38512 0.796413C8.50507 0.87292 7.63761 1.05628 6.80188 1.34244C5.8763 1.65847 5.01147 2.13019 4.24463 2.73727C3.46259 3.35619 2.83537 4.11189 2.33084 4.97477C1.79926 5.88529 1.43476 6.86005 1.20812 7.88388C1.08542 8.43857 1.00783 9.00877 0.923744 9.57212C0.8974 9.74751 1.18791 9.9229 0.827026 10.0976V12.5494C1.18791 12.7126 0.902091 12.8753 0.923022 13.0388C0.973186 13.4318 1.01757 13.8281 1.08398 14.2182C1.189 14.8357 1.3135 15.4513 1.44054 16.0648C1.61693 16.9223 1.80291 17.7778 1.99847 18.6311C2.14138 19.2518 2.30414 19.869 2.47448 20.4828C2.73468 21.4204 2.99091 22.3598 3.28503 23.2869C3.55822 24.1484 3.87111 24.9975 4.18148 25.8467C4.61129 27.0214 5.12592 28.1582 5.74304 29.2477C6.27679 30.1911 6.88669 31.0745 7.70482 31.8013C8.24399 32.2802 8.84414 32.6484 9.54282 32.8324C10.0917 32.9768 10.6497 32.9941 11.2116 32.879C11.8518 32.7487 12.4498 32.4622 12.9525 32.0449C13.0113 31.9966 13.0759 31.9598 13.1456 32.0486C13.4108 32.3845 13.7659 32.6087 14.1373 32.8025C15.1395 33.325 16.2315 33.4816 17.3409 33.5455C17.6094 33.561 17.8808 33.5224 18.1514 33.5148C18.6787 33.5004 19.1912 33.3976 19.6953 33.2518C19.9595 33.1752 20.2175 33.0782 20.4864 32.9876C20.5005 33.2738 20.5185 33.5495 20.5268 33.8252L20.5643 35.3287C20.5712 35.5575 20.5802 35.787 20.6015 36.0147C20.656 36.6019 20.7094 37.1894 20.7794 37.7748C20.8281 38.1782 20.8787 38.585 20.9736 38.9787C21.1639 39.7735 21.4245 40.5498 21.7524 41.2985C22.0663 42.0251 22.5487 42.6666 23.1598 43.1697C23.961 43.8323 24.9 44.1148 25.9141 44.1672C26.3335 44.1892 26.7647 44.1686 27.1776 44.0935C27.8338 43.9769 28.4829 43.8233 29.1217 43.6334C30.4176 43.2422 31.5378 42.5666 32.3747 41.4749C32.8511 40.8528 33.2423 40.1797 33.4935 39.4366C33.7006 38.8228 33.8959 38.2028 34.0511 37.5745C34.1738 37.0793 34.2344 36.5687 34.3091 36.0631C34.3585 35.7285 34.3881 35.3907 34.4192 35.0537C34.4697 34.5062 34.5213 33.9591 34.5578 33.4105C34.583 33.0287 34.5819 32.6451 34.5971 32.2626C34.6018 32.146 34.6205 32.0301 34.6314 31.9139C34.6415 31.8064 34.6956 31.7692 34.8053 31.771C35.1918 31.7768 35.5791 31.7869 35.9645 31.7696C36.3965 31.7501 36.8324 31.7317 37.2575 31.6602C37.8633 31.5591 38.4642 31.4306 39.0584 31.2752C39.7596 31.0918 40.4027 30.7634 41.0216 30.3892C41.7427 29.9536 42.3998 29.4426 42.9332 28.7843C43.397 28.2102 43.6167 27.5465 43.5049 26.8218ZM42.2735 27.1762C42.2497 27.5064 42.0985 27.7894 41.8791 28.0312C40.8437 29.1726 39.5449 29.8652 38.0591 30.2062C37.4947 30.3354 36.9122 30.4025 36.3344 30.456C35.8408 30.4994 35.3448 30.5111 34.8497 30.491C34.4867 30.4773 34.1265 30.3942 33.7555 30.3408C33.7183 30.6801 33.683 31.0334 33.64 31.386L33.4671 32.7375C33.4148 33.1659 33.374 33.5957 33.3203 34.0237C33.2676 34.4391 33.2019 34.853 33.1467 35.2684C33.0951 35.6553 33.0572 36.0439 32.9998 36.4301C32.9114 37.0219 32.8269 37.6152 32.7114 38.2024C32.5729 38.9043 32.3603 39.5843 32.0135 40.2172C31.5905 40.9899 30.9907 41.5785 30.2275 42.0145C29.4407 42.4641 28.5807 42.698 27.7088 42.8936C27.0917 43.0322 26.4558 43.0549 25.8308 42.9986C24.7467 42.9004 23.8213 42.4367 23.1219 41.5962C22.4543 40.7939 22.0025 39.8744 21.8408 38.8336C21.7653 38.3381 21.7062 37.8403 21.6636 37.341C21.6157 36.786 21.5797 36.2301 21.5557 35.6737C21.5237 34.9677 21.5 34.2614 21.4846 33.5549C21.4655 32.6866 21.4593 31.8183 21.4471 30.95L21.4449 30.9168C21.0032 31.1817 20.569 31.4719 20.1085 31.7108C19.5704 31.9891 18.9813 32.1553 18.377 32.199C17.9013 32.2351 17.4196 32.268 16.9461 32.2301C16.1698 32.1676 15.3943 32.046 14.6992 31.6638C14.4173 31.5087 14.1232 31.3199 13.9291 31.072C13.4635 30.478 13.6865 29.7273 14.3885 29.3661C14.8735 29.116 15.4029 29.0117 15.9287 28.8901C16.3864 28.7862 16.8393 28.6623 17.286 28.5187C17.727 28.3744 18.0053 28.0167 18.2799 27.6659L18.7151 27.1062C18.5336 27.0871 18.3626 27.0676 18.1915 27.0517C17.6722 27.0026 17.1767 26.8597 16.7028 26.6497C16.2972 26.4703 16.2911 26.4508 15.9937 26.7735C15.4971 27.3126 15.0142 27.8644 14.5278 28.4126C14.1698 28.8157 13.8139 29.2214 13.4577 29.6256C13.1048 30.0254 12.7742 30.448 12.3942 30.8201C11.8298 31.3726 11.1495 31.705 10.3379 31.6675C9.8171 31.6436 9.34037 31.461 8.91163 31.1626C8.02673 30.5462 7.43055 29.684 6.88777 28.7786C6.19234 27.6183 5.65859 26.3823 5.20171 25.1123C4.88557 24.2346 4.56799 23.3562 4.29191 22.4659C3.99201 21.4984 3.72892 20.5186 3.47017 19.5391C3.27689 18.7991 3.09857 18.0553 2.93533 17.3081C2.74499 16.4595 2.56885 15.6078 2.40699 14.7534C2.29945 14.1763 2.23701 13.591 2.15004 13.0099C2.03275 12.2268 2.0111 11.4365 2.05368 10.6501C2.09158 9.94167 2.19335 9.23505 2.2944 8.53132C2.43442 7.55764 2.75525 6.63882 3.21682 5.77125C3.4994 5.23966 3.85018 4.75643 4.25582 4.30749C4.92166 3.57056 5.72752 3.03789 6.62396 2.63802C7.25046 2.3587 7.91233 2.19052 8.58683 2.05916C9.58793 1.86428 10.5981 1.87186 11.6085 1.89279C12.0503 1.90181 12.4902 1.98229 12.9316 2.02596C13.8818 2.12051 14.8132 2.32044 15.7328 2.56729C16.4029 2.74701 17.0594 2.97978 17.7241 3.18188C17.7909 3.20209 17.8887 3.20029 17.9432 3.16456C18.844 2.57667 19.8285 2.18872 20.8754 1.96677C21.2728 1.88268 21.6827 1.84587 22.0891 1.81989C22.5831 1.78849 23.0812 1.75962 23.5741 1.78813C24.1667 1.82206 24.7564 1.90939 25.3454 1.99023C25.6312 2.02921 25.9102 2.12845 26.1967 2.15552C26.3338 2.16851 26.4793 2.06818 26.6244 2.03462C27.3638 1.86392 28.1 1.67373 28.846 1.53876C29.4014 1.43843 29.9687 1.39116 30.5335 1.35868C31.1632 1.32259 31.7977 1.29624 32.4271 1.32656C33.224 1.36602 34.0158 1.47751 34.7927 1.65966C35.7588 1.88449 36.6855 2.21109 37.5665 2.66437C38.2247 3.00288 38.8505 3.39553 39.4139 3.87839C39.783 4.19525 40.1609 4.50814 40.4944 4.86109C40.9058 5.29632 41.3255 5.73191 41.5835 6.28948C41.7777 6.70992 41.9162 7.14515 41.9545 7.60564C42.0021 8.17801 42.0599 8.75254 42.0545 9.32563C42.0494 9.87382 41.9747 10.4216 41.9217 10.9684C41.8011 12.2149 41.5301 13.4343 41.201 14.6375C40.9256 15.6314 40.614 16.6149 40.2666 17.586C39.9494 18.4813 39.5835 19.3605 39.2136 20.236C38.9413 20.8845 38.6454 21.5229 38.3265 22.1498C37.7213 23.3356 37.0919 24.5093 36.364 25.6262C36.2384 25.8193 36.1193 26.017 35.9966 26.2141C36.3142 26.4285 36.674 26.5039 37.0363 26.5429C37.381 26.5804 37.7325 26.6028 38.0768 26.5771C38.6278 26.5364 39.1771 26.4577 39.7249 26.3808C40.2677 26.305 40.7997 26.1506 41.3569 26.1914C41.9134 26.2318 42.3114 26.6547 42.2735 27.1762ZM34.3293 25.9662C34.0929 25.6608 33.8519 25.3591 33.6205 25.0502C33.2575 24.5652 32.9965 24.0235 32.7345 23.4793C32.4863 22.9636 32.1817 22.4753 31.92 21.9654C31.4635 21.0758 30.9987 20.1891 30.5782 19.2822C30.0495 18.1428 29.6327 16.9631 29.5014 15.7011C29.4458 15.167 29.4317 14.6336 29.5396 14.1045C29.7125 13.2597 30.1538 12.5989 30.8958 12.1456C31.584 11.7252 32.3509 11.5895 33.1366 11.5469C33.6241 11.5205 34.1139 11.5422 34.6198 11.5422L34.6029 11.4567C34.2882 10.7988 33.994 10.1297 33.6498 9.48731C33.164 8.58076 32.5426 7.76335 31.8504 7.00548C31.3375 6.4443 30.7821 5.92354 30.1737 5.46341C29.5753 5.0105 28.9449 4.60594 28.2722 4.27501C27.4699 3.88056 26.6345 3.57561 25.7579 3.38109C24.9156 3.19415 24.0678 3.07975 23.2039 3.07037C22.4669 3.06243 21.7347 3.09563 21.0169 3.262C19.9335 3.51281 18.9425 3.95887 18.0803 4.68137C17.6033 5.08141 17.1771 5.53832 16.8111 6.04191C16.3795 6.63485 16.0312 7.27507 15.7335 7.94632C15.325 8.8673 15.0446 9.82582 14.8529 10.811C14.7569 11.3022 14.6819 11.7977 14.6054 12.2928C14.5786 12.4661 14.5765 12.6433 14.561 12.8418C14.6941 12.7725 14.7901 12.7191 14.8883 12.6714L15.2077 12.5281C16.2878 12.0341 17.4069 11.7161 18.6098 11.7526C19.1208 11.7681 19.6098 11.8692 20.0641 12.0929C20.9357 12.5227 21.4456 13.2535 21.6672 14.1785C21.8202 14.8169 21.9249 15.4679 22.0266 16.1172C22.1064 16.6242 22.188 17.1367 22.1973 17.6481C22.2107 18.3955 22.1728 19.1443 22.132 19.8913C22.097 20.5266 21.9656 21.1528 21.7423 21.7485C21.3381 22.8286 20.8877 23.8911 20.4669 24.9651C20.3279 25.3198 20.2211 25.6872 20.0898 26.0773C20.2926 26.0773 20.4571 26.0759 20.6217 26.078C20.6859 26.0791 20.7516 26.0809 20.8137 26.0957C21.2973 26.2098 21.7166 26.4288 22.0606 26.8009C22.5193 27.296 22.76 27.8738 22.7722 28.5425C22.7791 28.9132 22.7401 29.2849 22.7419 29.6555C22.7495 31.3827 22.7625 33.1099 22.7769 34.8368C22.7795 35.119 22.7935 35.4016 22.8137 35.6834C22.856 36.2735 22.8986 36.8639 22.9563 37.4525C22.9967 37.87 23.053 38.2869 23.1191 38.7015C23.2125 39.289 23.4799 39.812 23.7834 40.3118C24.0447 40.7416 24.3843 41.1068 24.8318 41.3587C25.5922 41.7867 26.4111 41.8225 27.2364 41.6648C27.794 41.5583 28.3415 41.3872 28.8828 41.2108C29.4151 41.04 29.9012 40.7494 30.3036 40.3612C30.6829 39.9935 30.9521 39.5453 31.1336 39.0505C31.4859 38.0909 31.5956 37.0804 31.7414 36.0779C31.7959 35.7025 31.8432 35.3261 31.893 34.9501C31.9496 34.5221 32.007 34.0944 32.0619 33.6668C32.1023 33.3481 32.1391 33.0287 32.1781 32.7101C32.2336 32.2525 32.2925 31.7952 32.3455 31.3372C32.3863 30.9832 32.4209 30.6277 32.457 30.273C32.5036 29.8197 32.5537 29.3664 32.5938 28.9124C32.6248 28.5678 32.6122 28.217 32.6732 27.8789C32.7854 27.2589 33.0785 26.7312 33.6281 26.3902C33.858 26.2476 34.1175 26.1538 34.3726 26.0333L34.3293 25.9662ZM13.5433 23.4212C13.2692 22.7766 13.104 22.091 13.0546 21.3923C13.0084 20.7336 13.0867 20.0776 13.1542 19.4218C13.2199 18.7867 13.2744 18.1486 13.2935 17.5106C13.3253 16.4618 13.2546 15.4145 13.2044 14.3665C13.1741 13.7425 13.2466 13.111 13.3022 12.4856C13.3524 11.9222 13.4148 11.3574 13.5212 10.8024C13.6999 9.87093 13.937 8.95283 14.2741 8.06289C14.5942 7.21913 14.9619 6.39739 15.4812 5.65757C15.8371 5.15016 16.2409 4.67595 16.6289 4.1801L16.5137 4.13931C15.2513 3.73837 13.9684 3.42512 12.649 3.28834C12.025 3.22374 11.3989 3.18585 10.7731 3.14868C10.5811 3.13713 10.3862 3.16311 10.1935 3.18152C9.71641 3.22699 9.23354 3.24504 8.76403 3.33454C7.96502 3.48647 7.1985 3.74198 6.48863 4.15808C5.8513 4.5316 5.31611 5.01447 4.86789 5.59369C4.37275 6.23318 4.03965 6.9564 3.80038 7.72762C3.5178 8.63742 3.38319 9.57356 3.34674 10.5184C3.31499 11.3466 3.29911 12.1795 3.44202 13.0045C3.54848 13.6187 3.61957 14.2395 3.73686 14.8512C3.89674 15.6852 4.06816 16.5174 4.26629 17.3427C4.54958 18.5243 4.83252 19.7076 5.16814 20.8748C5.48933 21.9931 5.85166 23.1014 6.24431 24.1964C6.5655 25.0899 6.93685 25.9669 7.32806 26.8323C7.58284 27.396 7.8914 27.9384 8.21476 28.4664C8.55868 29.0268 8.94989 29.5588 9.48075 29.9655C10.1506 30.4791 10.6692 30.5588 11.3498 29.9955C11.6414 29.754 11.8879 29.4559 12.1416 29.1719C12.5447 28.7208 12.9337 28.2574 13.335 27.8049C13.846 27.2282 14.3636 26.6576 14.8771 26.0838C14.9857 25.9625 15.09 25.8377 15.1958 25.715L15.0211 25.5616C14.3869 24.9571 13.8838 24.2285 13.5433 23.4212ZM32.9186 6.25412C33.3385 6.74227 33.7369 7.24848 34.1128 7.77129C34.8345 8.78502 35.4112 9.87959 35.836 11.0507C36.024 11.5667 36.1742 12.0879 36.107 12.6527C36.0605 13.0482 36.0645 13.4495 36.0294 13.8472C36.0002 14.1781 35.9479 14.5073 35.9049 14.8371C35.8407 15.3344 35.7476 15.8303 35.7198 16.3297C35.6935 16.805 35.7209 17.2854 35.7508 17.7617C35.7812 18.2457 35.8465 18.7275 35.8909 19.2107C35.941 19.7585 36.0085 20.3064 36.024 20.8553C36.0367 21.306 35.9966 21.7597 35.9573 22.2097C35.9104 22.7517 35.7729 23.2765 35.5679 23.7799C35.4239 24.1343 35.2517 24.4779 35.089 24.8326L35.1543 24.9019L35.2535 24.9788L35.3535 24.7998C36.1977 23.4712 36.948 22.0853 37.5989 20.6521C38.0155 19.7269 38.411 18.7925 38.7852 17.8494C39.3713 16.3828 39.835 14.875 40.1937 13.3373C40.3547 12.6469 40.4777 11.946 40.5871 11.2452C40.6723 10.6974 40.7434 10.143 40.7592 9.59016C40.7762 9.00372 40.7437 8.41259 40.6896 7.82759C40.6492 7.38586 40.5402 6.94125 40.2634 6.58216C39.8184 6.00402 39.3381 5.45114 38.7473 5.01375C38.25 4.64528 37.7545 4.26743 37.2207 3.95743C36.3745 3.46662 35.4585 3.13966 34.5014 2.91699C33.5675 2.69937 32.6212 2.60554 31.6688 2.58569C31.1073 2.57378 30.5432 2.63405 29.9828 2.68674C29.475 2.73438 28.9705 2.81558 28.4591 2.8827C29.0077 3.19126 29.5486 3.46554 30.0589 3.78889C31.1318 4.46844 32.0932 5.28622 32.9186 6.25412ZM18.9793 25.2808C19.3261 24.1718 19.7985 23.113 20.2561 22.0476C20.6271 21.1837 20.8299 20.2735 20.8974 19.3388C20.931 18.878 20.9216 18.4113 20.8989 17.949C20.8763 17.4347 20.8291 16.9218 20.7574 16.412C20.6614 15.7621 20.5521 15.1117 20.3983 14.4737C20.2316 13.7833 19.8112 13.3026 19.0908 13.1254C18.652 13.0175 18.216 13.0218 17.7725 13.0919C16.6891 13.2626 15.6974 13.6617 14.7735 14.2463C14.5877 14.364 14.4855 14.4589 14.5177 14.7256C14.5855 15.2904 14.6003 15.8642 14.5978 16.4344C14.5942 17.2413 14.5599 18.0483 14.5292 18.8549C14.5191 19.1176 14.4812 19.3789 14.4531 19.6405C14.4098 20.0411 14.3264 20.4413 14.3289 20.8412C14.3314 21.2533 14.3737 21.6752 14.4736 22.0743C14.7912 23.34 15.4639 24.3757 16.5664 25.1065C17.2445 25.5558 17.9948 25.7825 18.8184 25.8254C18.8743 25.6363 18.9241 25.4577 18.9793 25.2808ZM17.6852 14.4228C17.5401 14.1182 17.6231 13.866 17.9594 13.749C18.0414 13.7202 18.1258 13.6895 18.211 13.6812C18.3279 13.6696 18.447 13.6783 18.5654 13.6783C18.9919 13.6805 19.4023 13.74 19.7545 14.0114C19.9804 14.1853 20.041 14.4163 19.8949 14.6534C19.6874 14.9898 19.3709 15.1587 18.9822 15.1911C18.3698 15.242 17.94 14.9566 17.6852 14.4228ZM34.6613 14.3117C34.7104 13.906 34.7497 13.4993 34.7999 13.0937C34.8201 12.9305 34.7342 12.8865 34.5974 12.8825C34.1673 12.8706 33.7371 12.8555 33.3069 12.8475C32.8219 12.8389 32.3498 12.9168 31.9009 13.1012C31.4029 13.3062 31.0236 13.6346 30.8688 14.1767C30.7555 14.5764 30.7196 14.9941 30.763 15.4073C30.8233 16.0463 30.9681 16.6744 31.1936 17.2753C31.4945 18.0768 31.8096 18.878 32.186 19.6459C32.6959 20.6856 33.273 21.6922 33.8147 22.716C33.9594 22.9892 34.081 23.2743 34.2319 23.5933C34.536 22.9591 34.7022 22.2676 34.7194 21.5644C34.7342 20.9834 34.6877 20.3998 34.6537 19.8184C34.6325 19.4626 34.5823 19.1089 34.5476 18.7538C34.4993 18.259 34.426 17.7646 34.4148 17.2688C34.4036 16.7646 34.4394 16.2576 34.4827 15.7541C34.5235 15.2713 34.6032 14.7924 34.6613 14.3117ZM33.6909 13.9212C33.531 14.3625 33.1893 14.6116 32.7461 14.6848C32.3329 14.7527 31.9709 14.6 31.7017 14.2705C31.5101 14.0359 31.5833 13.7581 31.8706 13.5996C32.2004 13.417 32.5631 13.3708 32.9908 13.343C33.107 13.3643 33.282 13.382 33.4484 13.4296C33.6898 13.4979 33.779 13.6794 33.6909 13.9212ZM20.9075 27.5122C20.6712 27.3191 20.3586 27.3079 20.1338 27.5198C19.8548 27.7832 19.6094 28.0846 19.364 28.3816C19.0807 28.7248 18.8151 29.0817 18.4495 29.3477C17.9176 29.7342 17.2976 29.8944 16.6743 30.046C16.1788 30.1665 15.6812 30.2784 15.1842 30.3942L15.1781 30.4585C15.3257 30.5267 15.4686 30.6119 15.6223 30.6606C16.3802 30.9006 17.1511 31.02 17.9519 30.9522C18.53 30.9031 19.0807 30.7771 19.6026 30.5296C20.3207 30.1893 20.8733 29.6501 21.3431 29.0229C21.4218 28.9182 21.4575 28.7634 21.4669 28.6284C21.499 28.1517 21.2569 27.7973 20.9075 27.5122ZM39.5838 27.702C38.9739 27.7673 38.3633 27.8366 37.7516 27.8716C37.4564 27.8886 37.1569 27.8323 36.8588 27.8081C36.3589 27.7677 35.871 27.6566 35.4484 27.3895C35.2037 27.2354 35.0006 27.2181 34.7407 27.3054C34.3697 27.4303 34.0669 27.6201 33.9774 28.0221C33.9165 28.2939 33.8944 28.5754 33.8699 28.8536C33.8652 28.9027 33.9266 28.9929 33.9735 29.0052C34.2597 29.0806 34.5473 29.1698 34.84 29.1961C35.1994 29.2286 35.5653 29.2181 35.9273 29.2001C36.3182 29.1806 36.7115 29.1553 37.0966 29.0904C38.0042 28.9381 38.8823 28.6898 39.6621 28.1751C39.9433 27.9893 40.2219 27.7995 40.5012 27.6114L40.4781 27.5717C40.18 27.6161 39.8834 27.6703 39.5838 27.702Z" fill="#336791"/>
</svg>
