<svg width="47" height="47" viewBox="0 0 47 47" fill="none" xmlns="http://www.w3.org/2000/svg">
<path d="M23.904 27.3224C26.1762 27.3224 28.0182 25.4804 28.0182 23.2082C28.0182 20.9361 26.1762 19.0941 23.904 19.0941C21.6319 19.0941 19.7899 20.9361 19.7899 23.2082C19.7899 25.4804 21.6319 27.3224 23.904 27.3224Z" fill="#61DAFB"/>
<path d="M39.5304 16.4236C38.7364 16.1349 37.9064 15.8462 37.0403 15.5936C37.2568 14.7274 37.4372 13.8613 37.5816 13.0313C38.3394 8.26754 37.5094 4.91128 35.1997 3.61209C34.514 3.21511 33.7562 3.03467 32.89 3.03467C30.3638 3.03467 27.1519 4.91128 23.9039 8.05101C20.656 4.91128 17.4441 3.03467 14.9178 3.03467C14.0517 3.03467 13.2938 3.21511 12.6082 3.61209C10.2985 4.94737 9.46844 8.30363 10.2263 13.0313C10.3707 13.8613 10.5511 14.7274 10.7676 15.5936C9.9015 15.8462 9.07146 16.0988 8.27751 16.4236C3.76641 18.1559 1.31238 20.5377 1.31238 23.2083C1.31238 25.8789 3.8025 28.2607 8.27751 29.993C9.07146 30.2817 9.9015 30.5704 10.7676 30.823C10.5511 31.6891 10.3707 32.5553 10.2263 33.3853C9.46844 38.149 10.2985 41.5053 12.6082 42.8045C13.2938 43.2015 14.0517 43.3819 14.9178 43.3819C17.4801 43.3819 20.692 41.5053 23.9039 38.3656C27.1519 41.5053 30.3638 43.3819 32.89 43.3819C33.7562 43.3819 34.514 43.2015 35.1997 42.8045C37.5094 41.4692 38.3394 38.1129 37.5816 33.3853C37.4372 32.5553 37.2568 31.6891 37.0403 30.823C37.9064 30.5704 38.7364 30.3178 39.5304 29.993C44.0415 28.2607 46.4955 25.8789 46.4955 23.2083C46.4955 20.5377 44.0415 18.1559 39.5304 16.4236ZM34.1892 5.41653C35.6689 6.28266 36.1741 8.95322 35.5606 12.7425C35.4523 13.5004 35.2719 14.2944 35.0554 15.1244C33.1788 14.6913 31.1939 14.4026 29.1007 14.2222C27.8737 12.4899 26.6106 10.9381 25.3475 9.53064C28.0181 6.89617 30.7247 5.09173 32.9261 5.09173C33.3953 5.09173 33.8284 5.19999 34.1892 5.41653ZM30.1473 26.8172C29.4977 27.972 28.7398 29.1268 27.9459 30.2817C26.6106 30.3899 25.2753 30.426 23.9039 30.426C22.4965 30.426 21.1612 30.3899 19.862 30.2817C19.068 29.1268 18.3463 27.972 17.6967 26.8172C17.011 25.6262 16.3614 24.3992 15.784 23.2083C16.3614 22.0174 17.011 20.7903 17.6967 19.5994C18.3463 18.4446 19.1041 17.2897 19.8981 16.1349C21.2334 16.0266 22.5687 15.9905 23.94 15.9905C25.3475 15.9905 26.6828 16.0266 27.982 16.1349C28.7759 17.2897 29.4977 18.4446 30.1473 19.5994C30.833 20.7903 31.4826 22.0174 32.06 23.2083C31.4465 24.3992 30.833 25.5901 30.1473 26.8172ZM33.1427 25.6262C33.684 26.8893 34.1171 28.1164 34.514 29.3434C33.287 29.6321 31.9878 29.8486 30.6165 30.0291C31.0495 29.3434 31.5187 28.6216 31.9156 27.8637C32.3487 27.1059 32.7457 26.348 33.1427 25.6262ZM23.9039 35.4063C23.0378 34.468 22.2078 33.4575 21.4138 32.4109C22.2439 32.447 23.0739 32.4831 23.9039 32.4831C24.734 32.4831 25.564 32.447 26.3941 32.4109C25.6001 33.4575 24.7701 34.468 23.9039 35.4063ZM17.1914 29.993C15.8201 29.8125 14.5209 29.596 13.2938 29.3073C13.6908 28.1164 14.1239 26.8533 14.6652 25.5901C15.0622 26.3119 15.4592 27.0698 15.8922 27.7916C16.3253 28.5855 16.7584 29.2712 17.1914 29.993ZM14.6652 20.7903C14.1239 19.5272 13.6908 18.3002 13.2938 17.0732C14.5209 16.7845 15.8201 16.568 17.1914 16.3875C16.7584 17.0732 16.2892 17.795 15.8922 18.5528C15.4592 19.3107 15.0622 20.0686 14.6652 20.7903ZM23.9039 11.0103C24.7701 11.9486 25.6001 12.9591 26.3941 14.0057C25.564 13.9696 24.734 13.9335 23.9039 13.9335C23.0739 13.9335 22.2439 13.9696 21.4138 14.0057C22.2078 12.9591 23.0378 11.9486 23.9039 11.0103ZM31.9156 18.5889L30.6165 16.4236C31.9878 16.604 33.287 16.8206 34.514 17.1093C34.1171 18.3002 33.684 19.5633 33.1427 20.8264C32.7457 20.0686 32.3487 19.3107 31.9156 18.5889ZM12.2473 12.7425C11.6338 8.95322 12.139 6.28266 13.6186 5.41653C13.9795 5.19999 14.4126 5.09173 14.8818 5.09173C17.0471 5.09173 19.7537 6.86008 22.4604 9.53064C21.1973 10.902 19.9342 12.4899 18.7072 14.2222C16.614 14.4026 14.6291 14.7274 12.7525 15.1244C12.536 14.2944 12.3916 13.5004 12.2473 12.7425ZM3.33335 23.2083C3.33335 21.5121 5.39041 19.7077 8.99928 18.3724C9.72106 18.0837 10.515 17.8311 11.309 17.6145C11.8864 19.419 12.6082 21.3317 13.4743 23.2444C12.6082 25.1571 11.8503 27.0337 11.309 28.8381C6.32872 27.3946 3.33335 25.2293 3.33335 23.2083ZM13.6186 41C12.139 40.1339 11.6338 37.4633 12.2473 33.674C12.3555 32.9162 12.536 32.1222 12.7525 31.2922C14.6291 31.7252 16.614 32.0139 18.7072 32.1944C19.9342 33.9266 21.1973 35.4785 22.4604 36.8859C19.7898 39.5204 17.0832 41.3248 14.8818 41.3248C14.4126 41.3248 13.9795 41.2166 13.6186 41ZM35.5606 33.674C36.1741 37.4633 35.6689 40.1339 34.1892 41C33.8284 41.2166 33.3953 41.3248 32.9261 41.3248C30.7608 41.3248 28.0541 39.5565 25.3475 36.8859C26.6106 35.5146 27.8737 33.9266 29.1007 32.1944C31.1939 32.0139 33.1788 31.6891 35.0554 31.2922C35.2719 32.1222 35.4163 32.9162 35.5606 33.674ZM38.8086 28.0442C38.0868 28.3329 37.2929 28.5855 36.4989 28.802C35.9215 26.9976 35.1997 25.0849 34.3336 23.1722C35.1997 21.2595 35.9576 19.3829 36.4989 17.5784C41.4792 19.022 44.4745 21.1873 44.4745 23.2083C44.4745 24.9045 42.3814 26.7089 38.8086 28.0442Z" fill="#61DAFB"/>
</svg>
