<svg width="46" height="46" viewBox="0 0 46 46" fill="none" xmlns="http://www.w3.org/2000/svg">
<path fill-rule="evenodd" clip-rule="evenodd" d="M12.3344 39.736L42.0597 43.7938C38.6598 38.1336 35.3474 32.6182 32.0085 27.0578L12.3344 39.736ZM44.8712 8.40576C43.9932 9.7245 43.1133 11.0422 42.2363 12.3616C39.2241 16.8924 36.2134 21.4242 33.2042 25.957C33.0367 26.2095 32.8194 26.4097 33.0555 26.7988C35.9629 31.5998 38.8473 36.4148 41.7391 41.2256C42.1953 41.9854 42.6567 42.7423 43.2468 43.4713L45 8.44276L44.8712 8.40576V8.40576ZM5.18247 23.3751C5.31848 23.5038 5.65796 23.5789 5.81609 23.5009C8.60481 22.1303 11.4113 20.7902 14.1391 19.3068C15.0288 18.8233 15.7128 17.9565 16.4792 17.2536C19.0169 14.9262 21.5507 12.5941 24.0833 10.2616C24.2382 10.1184 24.4217 9.97984 24.5142 9.79922C25.4238 8.02131 26.3179 6.23434 27.2434 4.39586C26.1398 3.98095 25.0934 3.5751 24.034 3.20588C23.8904 3.15583 23.6641 3.2552 23.5085 3.34189C21.0563 4.71177 18.5581 6.00875 16.1839 7.50267C14.9961 8.25017 14.0285 9.35166 12.9767 10.311C11.2815 11.8582 9.58843 13.4091 7.91788 14.9831C7.47219 15.4057 7.07246 15.8743 6.72536 16.3809C5.58288 18.0446 4.4745 19.7322 3.31535 21.4677C3.96311 22.1376 4.55212 22.7781 5.18247 23.3751V23.3751ZM15.3748 21.1006L11.1835 38.8082L30.8776 26.1188L15.3748 21.1006ZM43.1681 8.46234L26.4299 11.2587L32.1104 25.0757C35.8174 19.5052 39.4512 14.0463 43.1681 8.46234V8.46234ZM15.6076 19.9019L30.8014 24.8345C28.8973 20.1957 27.0585 15.719 25.1815 11.1477L15.6076 19.9019ZM5.39247 26.7927L0.074714 39.5042L10.2028 39.205L5.39247 26.7927V26.7927ZM10.3225 36.2574L10.448 36.2299C11.6641 31.1736 12.8976 26.1522 14.1391 20.8982L6.01376 25.1214C7.39887 28.7215 8.87574 32.5192 10.3225 36.2574ZM41.1247 7.6423C39.5074 7.21396 37.8902 6.78418 36.2722 6.35874C33.9467 5.74725 31.6193 5.14337 29.2952 4.52643C29.0047 4.44918 28.7947 4.39877 28.6238 4.74876C27.8023 6.43164 26.9555 8.10183 26.1209 9.77854C26.0952 9.83041 26.1006 9.89751 26.0807 10.0277L41.1214 7.74821L41.1247 7.6423ZM31.7422 3.81447L44.9235 7.46096L42.7455 1.25533L31.7615 3.6908L31.7422 3.81447V3.81447ZM11.44 40.7069C9.80749 40.5187 8.1315 40.6917 6.47583 40.7203C5.11574 40.7432 3.75565 40.795 2.39557 40.8375C2.25557 40.8418 2.11593 40.8701 1.9763 41.021C13.2208 42.0605 24.4649 43.0999 35.709 44.1401L35.7318 43.99L24.9182 42.5138C20.4267 41.9005 15.9428 41.2259 11.44 40.7069V40.7069ZM0.297043 35.6245C1.74599 32.2624 3.18877 28.8981 4.64352 25.5385C4.78895 25.2016 4.77771 24.9727 4.493 24.7014C3.88441 24.1222 3.31897 23.498 2.6538 22.806C1.75469 27.2453 0.877709 31.5747 0 35.9038L0.0982889 35.9499C0.165386 35.8422 0.247354 35.7402 0.297043 35.6245V35.6245ZM28.8552 2.92697C31.2987 2.29662 33.7777 1.80372 36.2421 1.25388C36.4017 1.21798 36.5577 1.16539 36.7147 1.12041L36.6904 1L26.1021 2.42465C27.0962 2.85879 27.8622 3.18303 28.8552 2.92697V2.92697Z" fill="#D91404"/>
</svg>
