<svg width="45" height="45" viewBox="0 0 45 45" fill="none" xmlns="http://www.w3.org/2000/svg">
<path d="M44.9964 11.1801C44.9961 10.1857 44.9005 9.19396 44.7112 8.21963C44.5217 7.2222 44.1996 6.25751 43.7544 5.35372C43.2891 4.47832 42.7108 3.67425 42.0359 2.96421C41.3397 2.2509 40.5311 1.66891 39.6458 1.24391C38.772 0.782529 37.8375 0.460132 36.873 0.287347C35.9162 0.094522 34.8656 0.0945219 33.9089 0H10.3077C9.57147 0.0125539 8.8369 0.0769744 8.10895 0.192825C7.38656 0.281884 6.67943 0.475285 6.0077 0.767518C5.81635 0.86204 5.53113 0.960343 5.33978 1.05486C4.70426 1.41161 4.10017 1.82661 3.53458 2.29499C3.34323 2.48782 3.15188 2.58234 2.96053 2.77138C2.25688 3.45485 1.67496 4.26396 1.24198 5.1609C0.769133 6.05198 0.445536 7.0213 0.285221 8.0268C0.142943 9.008 0.0477501 9.99605 0 10.9872V33.8199C0.000296982 34.8143 0.0958492 35.806 0.285221 36.7804C0.474688 37.7778 0.79674 38.7425 1.24198 39.6463C1.70728 40.5217 2.28557 41.3257 2.96053 42.0358C3.65667 42.7491 4.46525 43.3311 5.35061 43.7561C6.22434 44.2175 7.15888 44.5399 8.1234 44.7127C9.08015 44.9055 10.1308 44.9055 11.0875 45H33.9125C34.9068 44.9992 35.899 44.9031 36.8766 44.7127C37.8411 44.5399 38.7757 44.2175 39.6494 43.7561C40.5158 43.2969 41.3197 42.7184 42.0395 42.0358C42.7431 41.3523 43.325 40.5432 43.758 39.6463C44.2309 38.7552 44.5545 37.7859 44.7148 36.7804C44.8571 35.7992 44.9523 34.8111 45 33.8199V11.1801H44.9964Z" fill="#F05138"/>
<path d="M30.4101 34.8535C26.2868 37.2099 20.6195 37.452 14.9152 35.0341C10.4675 33.165 6.66473 29.9548 4 25.8199C5.23838 26.8018 6.59133 27.618 8.02684 28.2494C13.9168 30.9787 19.803 30.7903 23.9486 28.2494C18.0476 23.7672 13.0372 17.9396 9.30355 13.1807C8.56677 12.3764 7.90909 11.4982 7.34024 10.559C11.8533 14.6376 19.0311 19.7848 21.5845 21.2417C17.9387 17.3726 14.5884 13.2162 11.5638 8.81C16.5916 13.8706 22.1241 18.3639 28.0683 22.2142C28.3318 22.3603 28.5359 22.4833 28.6992 22.5986C28.8734 22.158 29.0234 21.7076 29.1483 21.2494C30.5252 16.2944 28.9516 10.6628 25.5148 6C33.472 10.7551 38.204 19.6887 36.2222 27.1692C36.1702 27.3729 36.1145 27.5536 36.0551 27.765L36.1257 27.8496C40.056 32.7046 38.976 37.8441 38.4824 36.8831C36.3483 32.7392 32.4031 34.0193 30.4101 34.8535Z" fill="#FEFEFE"/>
</svg>
