<svg width="46" height="46" viewBox="0 0 46 46" fill="none" xmlns="http://www.w3.org/2000/svg">
<path d="M1.09161 23.1762V45.3792H44.8541V0.973145H1.09161V23.1762ZM36.3572 21.3999C37.4054 21.6468 38.358 22.203 39.095 22.9986C39.5007 23.4272 39.8534 23.9043 40.1453 24.4196C40.1453 24.4764 38.2547 25.7731 37.1029 26.4978C37.0609 26.5262 36.8929 26.3415 36.7073 26.0608C36.497 25.6927 36.1983 25.3846 35.8389 25.1653C35.4795 24.946 35.0713 24.8226 34.6522 24.8068C33.3253 24.7144 32.4711 25.4214 32.4781 26.583C32.4671 26.8722 32.5324 27.1592 32.6672 27.4143C32.9577 28.0289 33.5004 28.3948 35.2019 29.1408C38.3353 30.5085 39.6762 31.4109 40.5094 32.6933C41.4407 34.1143 41.6472 36.4092 41.017 38.1073C40.3168 39.9546 38.6013 41.2086 36.1752 41.6243C35.067 41.753 33.9474 41.7411 32.8422 41.5887C31.1555 41.3111 29.5995 40.4962 28.3994 39.2619C27.9968 38.8107 27.2126 37.6348 27.2616 37.5496C27.3894 37.4533 27.524 37.3666 27.6642 37.2902L29.2747 36.3524L30.5315 35.6134L30.7941 36.0078C31.2372 36.651 31.8012 37.1991 32.4536 37.6206C33.854 38.3666 35.7655 38.2636 36.7108 37.4003C37.0282 37.084 37.2262 36.6648 37.2703 36.2156C37.3145 35.7664 37.2019 35.3157 36.9524 34.942C36.6023 34.4482 35.9021 34.0326 33.945 33.1658C31.6869 32.1782 30.7136 31.5672 29.8243 30.5938C29.2692 29.9515 28.8593 29.1936 28.6235 28.3735C28.4476 27.4365 28.4216 26.4769 28.5465 25.5315C29.0121 23.3183 30.6471 21.773 33.0348 21.3147C34.1405 21.1759 35.2606 21.207 36.3572 21.4071V21.3999ZM26.0853 23.2614V25.0803H20.4031V41.5035H16.3735V25.0768H10.6774V23.3005C10.6621 22.6891 10.6784 22.0772 10.7264 21.4674C10.7474 21.439 14.2274 21.4248 18.4286 21.4319H26.0643L26.0853 23.2614Z" fill="#007ACC"/>
</svg>
