<svg width="45" height="45" viewBox="0 0 45 45" fill="none" xmlns="http://www.w3.org/2000/svg">
<g clip-path="url(#clip0_448_151217)">
<path d="M38.25 0H6.75C3.02208 0 0 3.02208 0 6.75V38.25C0 41.9779 3.02208 45 6.75 45H38.25C41.9779 45 45 41.9779 45 38.25V6.75C45 3.02208 41.9779 0 38.25 0Z" fill="white"/>
<path d="M33.3896 14.9414C33.3896 33.6357 13.9746 38.8477 13.9746 38.8477V39.0234C26.9824 37.9688 41.3086 24.5215 41.748 11.6895L33.3896 14.9414Z" fill="url(#paint0_linear_448_151217)"/>
<path d="M30.2344 16.084C29.9707 26.6309 21.0938 36.5625 13.7988 38.7598V38.9355C24.9609 35.7715 37.793 24.7852 36.2988 13.7988L30.2344 16.084Z" fill="#EE6611"/>
<path d="M34.8047 14.3613C34.8152 25.7871 26.4287 35.8945 12.6562 38.7949V39.2344C27.8613 38.0918 37.6172 23.4404 36.5625 13.6846L34.8047 14.3613Z" fill="#DD5511"/>
<path d="M11.6104 14.9414C11.6104 33.6357 31.0254 38.8477 31.0254 38.8477V39.0234C18.0176 37.9688 3.69141 24.5215 3.25195 11.6895L11.6104 14.9414Z" fill="url(#paint1_linear_448_151217)"/>
<path d="M14.7656 16.084C15.0293 26.6309 23.9062 36.5625 31.2012 38.7598V38.9355C20.0391 35.7715 7.20703 24.7852 8.70117 13.7988L14.7656 16.084Z" fill="#AACC66"/>
<path d="M10.1953 14.3613C10.1848 25.7871 18.5713 35.8945 32.3438 38.7949V39.2344C17.1387 38.0918 7.38281 23.4404 8.4375 13.6846L10.1953 14.3613Z" fill="#449933"/>
</g>
<defs>
<linearGradient id="paint0_linear_448_151217" x1="27.8613" y1="39.0234" x2="27.8613" y2="11.6895" gradientUnits="userSpaceOnUse">
<stop offset="0.3" stop-color="#11BBEE"/>
<stop offset="1" stop-color="#002255"/>
</linearGradient>
<linearGradient id="paint1_linear_448_151217" x1="17.1387" y1="39.0234" x2="17.1387" y2="11.6895" gradientUnits="userSpaceOnUse">
<stop offset="0.3" stop-color="#11BBEE"/>
<stop offset="1" stop-color="#002255"/>
</linearGradient>
<clipPath id="clip0_448_151217">
<rect width="45" height="45" fill="white"/>
</clipPath>
</defs>
</svg>
